<?xml version="1.0" encoding="UTF-8"?>
<svg width="160px" height="160px" viewBox="0 0 160 160" version="1.1" xmlns="http://www.w3.org/2000/svg" xmlns:xlink="http://www.w3.org/1999/xlink">
    <!-- Generator: Sketch 52.4 (67378) - http://www.bohemiancoding.com/sketch -->
    <title>微信公眾號</title>
    <desc>Created with Sketch.</desc>
    <defs>
        <linearGradient x1="50.0555556%" y1="94.1503497%" x2="50.0555556%" y2="0.436538462%" id="linearGradient-1">
            <stop stop-color="#78D431" offset="0%"></stop>
            <stop stop-color="#9EEE69" offset="100%"></stop>
            <stop stop-color="#9EEE69" offset="100%"></stop>
        </linearGradient>
        <linearGradient x1="50.0888889%" y1="93.5351252%" x2="50.0888889%" y2="-0.0360587002%" id="linearGradient-2">
            <stop stop-color="#E4E6E6" offset="0%"></stop>
            <stop stop-color="#F5F5FF" offset="100%"></stop>
        </linearGradient>
    </defs>
    <g id="微信公眾號" stroke="none" stroke-width="1" fill="none" fill-rule="evenodd">
        <g id="bg_logo_primary4273fb" transform="translate(18.000000, 31.000000)">
            <g id="Full-Emblem-1-Copy">
                <g id="symbol">
                    <path d="M0,36.4412385 C0,47.3736101 5.935838,57.3612088 15.1094058,63.9746188 C15.9188383,64.514489 16.3235545,65.3242944 16.3235545,66.4040349 C16.3235545,66.67397 16.1886491,67.0788727 16.1886491,67.3488078 C15.514122,70.0481587 14.2999734,74.5020877 14.165068,74.6370553 C14.0301625,75.041958 13.8952571,75.3118931 13.8952571,75.7167958 C13.8952571,76.5266011 14.5697842,77.2014389 15.3792166,77.2014389 C15.6490274,77.2014389 15.9188383,77.0664714 16.1886491,76.9315038 L25.7669331,71.3978341 C26.4414602,70.9929314 27.2508926,70.7229965 28.060325,70.7229965 C28.4650412,70.7229965 29.0046628,70.7229965 29.409379,70.8579641 C33.8612576,72.2076395 38.7178524,72.8824773 43.7093526,72.8824773 C67.8574207,72.8824773 87.418705,56.5514037 87.418705,36.4412385 C87.418705,16.3310736 67.8574207,0 43.7093526,0 C19.5612843,9.59002126e-15 0,16.3310736 0,36.4412385" id="XMLID_140_" fill="url(#linearGradient-1)"></path>
                    <path d="M84.4345323,94.328492 C88.6065228,94.328492 92.6439328,93.7845648 96.277602,92.6967106 C96.5467625,92.5607288 96.9505035,92.5607288 97.3542447,92.5607288 C98.0271464,92.5607288 98.7000479,92.8326923 99.2383692,93.104656 L107.178609,97.7280365 C107.44777,97.8640181 107.58235,98 107.851511,98 C108.524412,98 109.062734,97.4560728 109.062734,96.776164 C109.062734,96.5042005 108.928154,96.2322368 108.928154,95.8242915 C108.928154,95.6883098 107.851511,92.0168016 107.313189,89.7051114 C107.178609,89.4331477 107.178609,89.1611842 107.178609,88.8892208 C107.178609,88.0733301 107.58235,87.393421 108.255252,86.8494941 C115.926331,81.274241 120.771223,72.9793525 120.771223,63.7325914 C120.771223,46.8708505 104.487002,33.1366908 84.4345323,33.1366908 C64.3820623,33.1366908 48.0978417,46.7348687 48.0978417,63.7325914 C48.0978417,80.594332 64.3820623,94.328492 84.4345323,94.328492 Z" id="XMLID_137_" fill="url(#linearGradient-2)"></path>
                    <path d="M34.7568345,24.6762589 C34.7568345,27.8243266 32.2747867,30.3165467 29.1395682,30.3165467 C26.00435,30.3165467 23.5223022,27.8243266 23.5223022,24.6762589 C23.5223022,21.5281914 26.00435,19.0359712 29.1395682,19.0359712 C32.2747867,19.0359712 34.7568345,21.5281914 34.7568345,24.6762589" id="XMLID_135_" fill="#187E28"></path>
                    <path d="M63.896403,24.6762589 C63.896403,27.8243266 61.4143549,30.3165467 58.2791367,30.3165467 C55.1439183,30.3165467 52.6618705,27.8243266 52.6618705,24.6762589 C52.6618705,21.5281914 55.1439183,19.0359712 58.2791367,19.0359712 C61.4143549,19.0359712 63.896403,21.5281914 63.896403,24.6762589" id="XMLID_134_" fill="#187E28"></path>
                    <path d="M91.9827337,54.2877698 C91.9827337,57.0295763 94.1672262,59.2230217 96.8978417,59.2230217 C99.6284572,59.2230217 101.81295,57.0295763 101.81295,54.2877698 C101.81295,51.5459633 99.6284572,49.352518 96.8978417,49.352518 C94.1672262,49.352518 91.9827337,51.5459633 91.9827337,54.2877698" id="XMLID_133_" fill="#858C8C"></path>
                    <path d="M67.7582734,54.2877698 C67.7582734,57.0295763 69.9427657,59.2230217 72.6733814,59.2230217 C75.4039969,59.2230217 77.5884893,57.0295763 77.5884893,54.2877698 C77.5884893,51.5459633 75.4039969,49.352518 72.6733814,49.352518 C69.9427657,49.352518 67.7582734,51.5459633 67.7582734,54.2877698" id="XMLID_132_" fill="#858C8C"></path>
                </g>
            </g>
        </g>
    </g>
</svg>