<svg xmlns="http://www.w3.org/2000/svg" width="18" height="18" viewBox="0 0 18 18">
    <g fill="none" fill-rule="evenodd">
        <path fill="#CCC" d="M13.658 3.094V2.61c0-.338-.25-.611-.558-.611-.308 0-.557.273-.557.611v.483H5.455V2.61c0-.338-.249-.611-.557-.611-.308 0-.557.273-.557.611v.483H2.282C1.573 3.094 1 3.723 1 4.5v11.094C1 16.37 1.573 17 2.282 17h13.436c.709 0 1.282-.629 1.282-1.406V4.5c-.002-.775-.575-1.406-1.284-1.406h-2.058zm-7.973 8.451c-.305 0-.552.305-.552.682 0 .377.247.682.552.682h6.63c.305 0 .552-.305.552-.682-.002-.377-.249-.682-.554-.682H5.685zm0-2.727c-.305 0-.552.305-.552.682 0 .377.247.682.552.682h6.63c.305 0 .552-.305.552-.682-.002-.377-.249-.682-.554-.682H5.685zM4.378 4.455v.315c0 .336.247.609.553.609.305 0 .553-.273.553-.61v-.314h7.032v.315c0 .336.248.609.553.609.306 0 .553-.273.553-.61v-.314h2.045v1.909H2.333v-1.91h2.045zM2.333 15.5V7.59h13.334v7.91H2.333z"/>
    </g>
</svg>
