<svg xmlns="http://www.w3.org/2000/svg" width="18" height="18" viewBox="0 0 18 18">
    <g fill="none" fill-rule="evenodd">
        <path fill="#1875F0" fill-rule="nonzero" d="M5.87 2c.156 0 .307.053.427.15L7.32 3.895c.08.064.18 0 .284 0h8.728c.369 0 .667.354.667.71V13.8a.655.655 0 0 1-.667.643H1.667A.655.655 0 0 1 1 13.801V2.644C1 2.288 1.298 2 1.667 2H5.87z"/>
        <path fill="#FFF" d="M8.4 8.4V6.3a.3.3 0 0 1 .3-.3h.6a.3.3 0 0 1 .3.3v2.1h2.1a.3.3 0 0 1 .3.3v.6a.3.3 0 0 1-.3.3H9.6v2.1a.3.3 0 0 1-.3.3h-.6a.3.3 0 0 1-.3-.3V9.6H6.3a.3.3 0 0 1-.3-.3v-.6a.3.3 0 0 1 .3-.3h2.1z"/>
    </g>
</svg>
