<svg xmlns="http://www.w3.org/2000/svg" width="18" height="18" viewBox="0 0 18 18">
    <g fill="none" fill-rule="evenodd">
        <path fill="#8CCFF4" fill-rule="nonzero" d="M4.665 2a.79.79 0 0 1 .505.183l.91 1.713c.036.03.081 0 .127 0h8.225c.436 0 .79.334.79.77v1.778c0 .11.089.198.198.198h.79a.784.784 0 0 1 .764.962l-1.61 6.032a.79.79 0 0 1-.77.61H1.79a.79.79 0 0 1-.79-.79V2.79A.79.79 0 0 1 1.79 2h2.875z"/>
        <path fill="#FFF" d="M14.432 5.864a.198.198 0 0 0-.197-.197h-8.1a.79.79 0 0 1-.505-.183l-.91-1.648a.198.198 0 0 0-.127-.046H1.988a.198.198 0 0 0-.198.198v8.239a.06.06 0 0 0 .117.013l1.125-3.986a.79.79 0 0 1 .77-.612h10.433c.109 0 .197-.088.197-.198v-1.58z"/>
    </g>
</svg>
