<svg xmlns="http://www.w3.org/2000/svg" width="18" height="18" viewBox="0 0 18 18">
    <g fill="none" fill-rule="evenodd">
        <path fill="#8CCFF4" fill-rule="nonzero" d="M5.87 2c.156 0 .307.053.427.15L7.32 3.895c.08.064.18 0 .284 0h8.728c.369 0 .667.354.667.71V13.8a.655.655 0 0 1-.667.643H1.667A.655.655 0 0 1 1 13.801V2.644C1 2.288 1.298 2 1.667 2H5.87z"/>
        <path fill="#FFF" d="M9.152 10.923a.2.2 0 0 1-.304 0L6.283 7.93a.2.2 0 0 1 .152-.33h5.13a.2.2 0 0 1 .152.33l-2.565 2.993z"/>
    </g>
</svg>
