<?xml version="1.0" encoding="UTF-8"?>
<svg width="20px" height="20px" viewBox="0 0 20 20" version="1.1" xmlns="http://www.w3.org/2000/svg" xmlns:xlink="http://www.w3.org/1999/xlink">
    <!-- Generator: Sketch 52.1 (67048) - http://www.bohemiancoding.com/sketch -->
    <title>画板</title>
    <desc>Created with Sketch.</desc>
    <g id="画板" stroke="none" stroke-width="1" fill="none" fill-rule="evenodd">
        <g id="del-off" transform="translate(4.500000, 4.000000)" fill="#BABABA">
            <path d="M1,2 L10,2 L10,11 C10,11.5522847 9.55228475,12 9,12 L2,12 C1.44771525,12 1,11.5522847 1,11 L1,2 Z M3.5,4 C3.22385763,4 3,4.22385763 3,4.5 L3,9.5 C3,9.77614237 3.22385763,10 3.5,10 C3.77614237,10 4,9.77614237 4,9.5 L4,4.5 C4,4.22385763 3.77614237,4 3.5,4 Z M7.5,4 C7.22385763,4 7,4.22385763 7,4.5 L7,9.5 C7,9.77614237 7.22385763,10 7.5,10 C7.77614237,10 8,9.77614237 8,9.5 L8,4.5 C8,4.22385763 7.77614237,4 7.5,4 Z M5.5,4 C5.22385763,4 5,4.22385763 5,4.5 L5,9.5 C5,9.77614237 5.22385763,10 5.5,10 C5.77614237,10 6,9.77614237 6,9.5 L6,4.5 C6,4.22385763 5.77614237,4 5.5,4 Z" id="合并形状" fill-rule="nonzero"></path>
            <rect id="矩形" x="0" y="1" width="11" height="2" rx="0.5"></rect>
            <rect id="矩形" x="3" y="0" width="5" height="2" rx="0.5"></rect>
        </g>
    </g>
</svg>