<?xml version="1.0" encoding="utf-8"?>
<!-- Generator: Adobe Illustrator 21.1.0, SVG Export Plug-In . SVG Version: 6.00 Build 0)  -->
<svg version="1.1" id="圖層_1" xmlns="http://www.w3.org/2000/svg" xmlns:xlink="http://www.w3.org/1999/xlink" x="0px" y="0px"
	 viewBox="0 0 30 30" style="enable-background:new 0 0 30 30;" xml:space="preserve">
<style type="text/css">
	.st0{fill:none;}
	.st1{fill:#868686;}
</style>
<path class="st0" d="M1,1h28v28H1V1z"/>
<path class="st1" d="M22.6,25H8.5C4.3,25,1,21.5,1,17.3c0-3.8,2.6-7,6.2-7.6C8.8,6.8,11.8,5,15,5c4.1,0,7.7,2.9,8.8,6.9
	c3,0.6,5.2,3.3,5.2,6.5C29,22,26.1,25,22.6,25z M15,6.9c-2.7,0-5.2,1.5-6.4,4l-0.2,0.5l-0.5,0.1c-2.8,0.3-5,2.8-5,5.8
	c0,3.2,2.5,5.8,5.6,5.8h14.2c2.5,0,4.5-2.1,4.5-4.7c0-2.4-1.8-4.5-4.2-4.6l-0.7-0.1L22.1,13C21.4,9.5,18.4,6.9,15,6.9z"/>
<polygon class="st1" points="20.8,16.2 15,22 9.2,16.2 12.7,16.2 12.7,11.5 17.3,11.5 17.3,16.2 "/>
</svg>
