<?xml version="1.0" encoding="UTF-8"?>
<svg width="14px" height="17px" viewBox="0 0 14 17" version="1.1" xmlns="http://www.w3.org/2000/svg" xmlns:xlink="http://www.w3.org/1999/xlink">
    <!-- Generator: Sketch 52.6 (67491) - http://www.bohemiancoding.com/sketch -->
    <title>Icon</title>
    <desc>Created with Sketch.</desc>
    <defs>
        <path d="M12.5173913,3.10869565 L15.473913,3.10869565 L15.473913,14.8478261 C15.473913,15.1586957 15.2195652,15.4130435 14.9086957,15.4130435 L3.03913043,15.4130435 C2.72826087,15.4130435 2.47391304,15.1586957 2.47391304,14.8478261 L2.47391304,0.152173913 C2.47391304,-0.158695652 2.72826087,-0.413043478 3.03913043,-0.413043478 L11.9521739,-0.413043478 L11.9521739,2.54347826 C11.9521739,2.85434783 12.2065217,3.10869565 12.5173913,3.10869565 Z M6.47391304,5.32501452 L6.47391304,6.27724649 C6.47391304,6.40872212 6.58049542,6.51530449 6.71197104,6.51530449 L8.378377,6.51530449 L8.378377,11.0384064 C8.378377,11.169882 8.48495937,11.2764644 8.616435,11.2764644 L9.56866697,11.2764644 C9.7001426,11.2764644 9.80672497,11.169882 9.80672497,11.0384064 L9.80672497,6.51530449 L11.4731309,6.51530449 C11.6046066,6.51530449 11.7111889,6.40872212 11.7111889,6.27724649 L11.7111889,5.32501452 C11.7111889,5.19353889 11.6046066,5.08695652 11.4731309,5.08695652 L6.71197104,5.08695652 C6.58049542,5.08695652 6.47391304,5.19353889 6.47391304,5.32501452 Z M15.526087,2.63913043 L12.473913,2.63913043 L12.473913,-0.413043478 L15.526087,2.63913043 Z" id="path-1"></path>
    </defs>
    <g id="测试" stroke="none" stroke-width="1" fill="none" fill-rule="evenodd">
        <g id="1_4测试工具-测试完成" transform="translate(-1002.000000, -95.000000)">
            <g id="分组-11" transform="translate(70.000000, 70.000000)">
                <g id="Group" transform="translate(20.000000, 17.000000)">
                    <g id="分组-3" transform="translate(900.000000, 0.000000)">
                        <g id="00-Button/4-Icon-Copy-6">
                            <g id="03-Icon/07-Graphic/text-icon" transform="translate(10.000000, 9.071429)">
                                <mask id="mask-2" fill="white">
                                    <use xlink:href="#path-1"></use>
                                </mask>
                                <use id="text-icon" fill="#4A4A4A" fill-rule="nonzero" xlink:href="#path-1"></use>
                                <g id="13-Palette/Icon/Normal" mask="url(#mask-2)" fill="#65748D" fill-rule="evenodd">
                                    <rect id="Fill/Button-Background" x="0" y="0" width="15" height="15" rx="4"></rect>
                                </g>
                            </g>
                        </g>
                    </g>
                </g>
            </g>
        </g>
    </g>
</svg>