<?xml version="1.0" encoding="utf-8"?>
<!-- Generator: Adobe Illustrator 21.1.0, SVG Export Plug-In . SVG Version: 6.00 Build 0)  -->
<svg version="1.1" id="圖層_1" xmlns="http://www.w3.org/2000/svg" xmlns:xlink="http://www.w3.org/1999/xlink" x="0px" y="0px"
	 viewBox="0 0 10 6" style="enable-background:new 0 0 10 6;" xml:space="preserve">
<style type="text/css">
	.st0{fill:#999999;}
</style>
<path class="st0" d="M1,1.2l3.7,4.1C4.7,5.4,4.9,5.5,5,5.5c0.1,0,0.3-0.1,0.4-0.2L9,1.2C9.2,1,9.2,0.8,9,0.6c0,0,0,0,0,0
	C8.8,0.5,8.5,0.5,8.3,0.7L5,4.4L1.7,0.7C1.5,0.5,1.2,0.4,1,0.6C0.9,0.7,0.9,0.8,0.9,0.9C0.9,1,0.9,1.1,1,1.2z"/>
</svg>
