<?xml version="1.0" encoding="utf-8"?>
<!-- Generator: Adobe Illustrator 21.1.0, SVG Export Plug-In . SVG Version: 6.00 Build 0)  -->
<svg version="1.1" xmlns="http://www.w3.org/2000/svg" xmlns:xlink="http://www.w3.org/1999/xlink" x="0px" y="0px"
	 viewBox="0 0 30 30" style="enable-background:new 0 0 30 30;" xml:space="preserve">
<style type="text/css">
	.st0{fill:#868686;}
</style>
<g id="圖層_1">
	<g id="标准问题">
		<g id="管理标准问题1_编辑标准问" transform="translate(-506.000000, -267.000000)">
			<g id="main" transform="translate(280.000000, 188.000000)">
				<g id="Group-22" transform="translate(40.000000, 40.000000)">
					<path id="edit" class="st0" d="M198.1,44.2h-6.4c-0.9,0-1.6,0.7-1.6,1.6v17.5c0,0.9,0.7,1.6,1.6,1.6h17.5
						c0.9,0,1.6-0.7,1.6-1.6v-6.4c0-0.9,0.7-1.6,1.6-1.6c0.9,0,1.6,0.7,1.6,1.6v7.9c0,1.8-1.4,3.2-3.2,3.2h-20.6
						c-1.8,0-3.2-1.4-3.2-3.2V44.2c0-1.8,1.4-3.2,3.2-3.2h7.9c0.9,0,1.6,0.7,1.6,1.6C199.7,43.5,199,44.2,198.1,44.2z"/>
				</g>
			</g>
		</g>
	</g>
</g>
<g id="圖層_2">
	<path class="st0" d="M28.1,8.8L18.9,18l-2.3,2.3l-8,1.2l1.1-8l2.3-2.3l9.2-9.2c1.3-1.3,3.3-1.3,4.6,0l2.3,2.3
		C29.3,5.5,29.3,7.5,28.1,8.8z M24.6,5.4c-0.6-0.6-1.7-0.6-2.3,0l-9.1,9l-0.5,3.1l3.2-1l8.8-8.8C25.3,7,25.3,6,24.6,5.4L24.6,5.4z"
		/>
</g>
</svg>
