<?xml version="1.0" encoding="UTF-8"?>
<svg width="20px" height="20px" viewBox="0 0 20 20" version="1.1" xmlns="http://www.w3.org/2000/svg" xmlns:xlink="http://www.w3.org/1999/xlink">
    <!-- Generator: Sketch 52.1 (67048) - http://www.bohemiancoding.com/sketch -->
    <title>画板</title>
    <desc>Created with Sketch.</desc>
    <g id="画板" stroke="none" stroke-width="1" fill="none" fill-rule="evenodd">
        <g id="编辑任务off" transform="translate(1.000000, 3.000000)" fill="#3D80FF" fill-rule="nonzero">
            <path d="M11.0110838,2.65674566 L5.01108375,2.65674566 L5.01108375,0.778160653 C5.01108375,0.225875903 5.458799,-0.221839347 6.01108375,-0.221839347 L10.0110838,-0.221839347 C10.5633685,-0.221839347 11.0110838,0.225875903 11.0110838,0.778160653 L11.0110838,2.65674566 Z M11.0110838,3.61627399 L11.0110838,11.9075804 C11.0110838,12.130778 10.9364135,12.34756 10.7989613,12.5234124 L8.40502253,15.5861485 C8.23496524,15.8037149 7.92073417,15.8422286 7.70316779,15.6721713 C7.67109904,15.6471053 7.64221099,15.6182172 7.61714497,15.5861485 L5.22320619,12.5234124 C5.08575398,12.34756 5.01108375,12.130778 5.01108375,11.9075804 L5.01108375,3.61627399 L11.0110838,3.61627399 Z" transform="translate(8.011084, 7.778208) rotate(45.000000) translate(-8.011084, -7.778208) "></path>
        </g>
    </g>
</svg>