<?xml version="1.0" encoding="utf-8"?>
<!-- Generator: Adobe Illustrator 21.1.0, SVG Export Plug-In . SVG Version: 6.00 Build 0)  -->
<svg version="1.1" id="圖層_1" xmlns="http://www.w3.org/2000/svg" xmlns:xlink="http://www.w3.org/1999/xlink" x="0px" y="0px"
	 viewBox="0 0 10 6" style="enable-background:new 0 0 10 6;" xml:space="preserve">
<style type="text/css">
	.st0{fill:#999999;}
</style>
<title>展开</title>
<desc>Created with Sketch.</desc>
<g id="用戶管理">
	<g id="用戶管理--編輯" transform="translate(-130.000000, -67.000000)">
		<g id="sideBar" transform="translate(0.000000, 50.000000)">
			<g id="Group">
				<g id="menu_l1">
					<g id="展开" transform="translate(129.000000, 14.000000)">
						<g id="Path" transform="translate(6.000000, 6.000000) scale(-1, -1) rotate(-270.000000) translate(-6.000000, -6.000000) ">
							<path class="st0" d="M4.2,10l4.1-3.7C8.4,6.3,8.5,6.1,8.5,6c0-0.1-0.1-0.3-0.2-0.4L4.2,2C4,1.8,3.8,1.8,3.6,2
								C3.5,2.2,3.5,2.5,3.7,2.7L7.4,6L3.7,9.3C3.5,9.5,3.4,9.8,3.6,10c0.1,0.1,0.2,0.2,0.3,0.2C4,10.1,4.1,10.1,4.2,10z"/>
						</g>
					</g>
				</g>
			</g>
		</g>
	</g>
</g>
</svg>
