<svg xmlns="http://www.w3.org/2000/svg" width="64" height="28" viewBox="0 0 64 28">
    <g fill="none" fill-rule="evenodd">
        <rect width="64" height="28" fill="#EEE" rx="14"/>
        <g fill="#6F7378" fill-rule="nonzero">
            <path d="M38 19v-3a1 1 0 0 1 2 0v4a1 1 0 0 1-1 1H25a1 1 0 0 1-1-1v-4a1 1 0 1 1 2 0v3h12z"/>
            <path d="M33.007 9.705l-1.755-2.052h1.515l-2.993 3.5c-.866 1.012-2.381-.29-1.516-1.302l2.994-3.5a.995.995 0 0 1 1.515 0l.055.065a.987.987 0 0 1 .185.586v2.703zm2.753.146c.358.42.31 1.05-.108 1.41a.996.996 0 0 1-1.407-.108l-1.238-1.448v6.297a.999.999 0 1 1-1.996 0v-9l1.756.65-2.993 3.5-1.516-1.3 2.994-3.5.016-.02a.975.975 0 0 1 .982-.3.997.997 0 0 1 .572.385L35.76 9.85z"/>
        </g>
    </g>
</svg>
