<?xml version="1.0" encoding="UTF-8"?>
<svg width="18px" height="18px" viewBox="0 0 18 18" version="1.1" xmlns="http://www.w3.org/2000/svg" xmlns:xlink="http://www.w3.org/1999/xlink">
    <!-- Generator: Sketch 50.2 (55047) - http://www.bohemiancoding.com/sketch -->
    <title>export</title>
    <desc>Created with Sketch.</desc>
    <defs></defs>
    <g id="Page-1" stroke="none" stroke-width="1" fill="none" fill-rule="evenodd">
        <path d="M13.9689549,9.5105089 L13.9703059,9.5105089 L13.9703059,8.5785767 L13.9689549,9.5105089 Z M9.31534791,1.6405707 L10.8747429,3.27399661 C11.3127479,3.72467343 10.6557409,4.40084805 10.2175809,3.95017122 L9.68247391,3.39748821 C9.56313691,3.27423235 9.46471291,3.31074418 9.46471291,3.4811842 L9.46471291,5.6944739 C9.46471291,5.9513173 9.25668491,6.1614922 9.00006891,6.1614922 C8.74166391,6.1614922 8.53542391,5.952401 8.53542391,5.6944739 L8.53542391,3.4811842 C8.53542391,3.30876954 8.43790991,3.27327221 8.31761891,3.39748821 L7.78240191,3.95017122 C7.34439691,4.40084805 6.68723491,3.72467343 7.12523991,3.27399661 L8.67078591,1.6405707 C8.84827591,1.45298817 9.13656291,1.4532981 9.31534791,1.6405707 Z M3.87428691,5.9381023 L6.15507891,5.938114 C6.43833991,5.9381155 6.79133191,6.0698462 7.00476091,6.2558977 L7.50116091,6.6886209 C7.54563491,6.7273896 7.67852091,6.776961 7.73810791,6.776961 L14.1262929,6.776961 C14.5549879,6.776961 14.9025319,7.1268861 14.9022359,7.5561288 L14.8966009,15.7214753 C14.8963029,16.1534681 14.5473109,16.5 14.1169199,16.5 L3.87722991,16.5 C3.44545691,16.5 3.09776391,16.1544879 3.09776391,15.7245345 L3.09776391,6.7135662 C3.09776391,6.2827653 3.44549591,5.9381001 3.87428691,5.9381023 Z M13.9689549,9.5105089 L4.02969591,9.5105089 L4.02969591,8.5785767 L13.9695979,8.5785767 L13.9701979,7.7088931 L7.73810791,7.7088931 C7.45385591,7.7088931 7.10332791,7.5781332 6.88878491,7.3911111 L6.39238491,6.9583878 C6.34899191,6.9205611 6.21362991,6.8700465 6.15507391,6.8700462 L4.02969591,6.8700353 L4.02969591,15.5680678 L13.9647749,15.5680678 L13.9689549,9.5105089 Z" id="export" fill="#888888" fill-rule="nonzero"></path>
    </g>
</svg>