<?xml version="1.0" encoding="utf-8"?>
<!-- Generator: Adobe Illustrator 21.1.0, SVG Export Plug-In . SVG Version: 6.00 Build 0)  -->
<svg version="1.1" id="圖層_1" xmlns="http://www.w3.org/2000/svg" xmlns:xlink="http://www.w3.org/1999/xlink" x="0px" y="0px"
	 viewBox="0 0 30 30" style="enable-background:new 0 0 30 30;" xml:space="preserve">
<style type="text/css">
	.st0{fill:#868686;}
</style>
<g>
	<path class="st0" d="M27.2,1.3l1.5,1.5c1,1,1,2.6,0,3.5L6.3,28.7c-1,1-2.6,1-3.5,0l-1.5-1.5c-1-1-1-2.6,0-3.5L23.7,1.3
		C24.7,0.3,26.3,0.3,27.2,1.3z"/>
</g>
<g>
	<path class="st0" d="M28.7,27.2l-1.5,1.5c-1,1-2.6,1-3.5,0L1.3,6.3c-1-1-1-2.6,0-3.5l1.5-1.5c1-1,2.6-1,3.5,0l22.4,22.4
		C29.7,24.7,29.7,26.3,28.7,27.2z"/>
</g>
</svg>
