<?xml version="1.0" encoding="utf-8"?>
<!-- Generator: Adobe Illustrator 21.1.0, SVG Export Plug-In . SVG Version: 6.00 Build 0)  -->
<svg version="1.1" xmlns="http://www.w3.org/2000/svg" xmlns:xlink="http://www.w3.org/1999/xlink" x="0px" y="0px"
	 viewBox="0 0 30 30" style="enable-background:new 0 0 30 30;" xml:space="preserve">
<style type="text/css">
	.st0{display:none;}
	.st1{display:inline;}
	.st2{fill:#868686;}
	.st3{display:inline;fill:#868686;}
	.st4{display:inline;fill:#FFFFFF;}
</style>
<g id="圖層_1" class="st0">
	<g class="st1">
		<rect x="1" y="9" class="st2" width="16" height="11.1"/>
	</g>
	<g class="st1">
		<polygon class="st2" points="14,9 1,9 2,4 13,4 		"/>
	</g>
	<path class="st3" d="M3,26h24c1.1,0,2-0.9,2-2V11c0-1.1-0.9-2-2-2H3c-1.1,0-2,0.9-2,2v13C1,25.1,1.9,26,3,26z"/>
	<circle class="st4" cx="23" cy="21" r="7.5"/>
	<circle class="st3" cx="23" cy="21" r="6"/>
	<path class="st4" d="M27,22h-8c-0.5,0-1-0.4-1-1v0c0-0.5,0.4-1,1-1h8c0.5,0,1,0.4,1,1v0C28,21.6,27.6,22,27,22z"/>
	<path class="st4" d="M24,17v8c0,0.5-0.4,1-1,1h0c-0.5,0-1-0.4-1-1v-8c0-0.5,0.4-1,1-1h0C23.6,16,24,16.4,24,17z"/>
</g>
<g id="圖層_2">
	<g>
		<path class="st2" d="M27,9H17h-3l-1-5H2L1,9v2v9.1V24c0,1.1,0.9,2,2,2h14.4c-1.2-1.3-1.9-3.1-1.9-5c0-4.1,3.4-7.5,7.5-7.5
			c2.5,0,4.6,1.2,6,3V11C29,9.9,28.1,9,27,9z"/>
		<path class="st2" d="M23,15c-3.3,0-6,2.7-6,6s2.7,6,6,6s6-2.7,6-6S26.3,15,23,15z M28,21c0,0.5-0.5,1-1,1h-3v3c0,0.5-0.5,1-1,1
			s-1-0.5-1-1v-3h-3c-0.5,0-1-0.5-1-1s0.5-1,1-1h3v-3c0-0.5,0.5-1,1-1s1,0.5,1,1v3h3C27.5,20,28,20.5,28,21z"/>
	</g>
</g>
</svg>
