<?xml version="1.0" encoding="utf-8"?>
<!-- Generator: Adobe Illustrator 21.1.0, SVG Export Plug-In . SVG Version: 6.00 Build 0)  -->
<svg version="1.1" xmlns="http://www.w3.org/2000/svg" xmlns:xlink="http://www.w3.org/1999/xlink" x="0px" y="0px"
	 viewBox="0 0 30 30" style="enable-background:new 0 0 30 30;" xml:space="preserve">
<style type="text/css">
	.st0{display:none;}
	.st1{display:inline;}
	.st2{fill:#868686;}
	.st3{display:inline;fill:#868686;}
</style>
<g id="圖層_1" class="st0">
	<g class="st1">
		<rect x="1" y="9" class="st2" width="16" height="11.1"/>
	</g>
	<g class="st1">
		<polygon class="st2" points="14,9 1,9 2,4 13,4 		"/>
	</g>
	<path class="st3" d="M3,26h24c1.1,0,2-0.9,2-2V11c0-1.1-0.9-2-2-2H3c-1.1,0-2,0.9-2,2v13C1,25.1,1.9,26,3,26z"/>
</g>
<g id="圖層_2">
	<path class="st2" d="M27,9H17h-3l-1-5H2L1,9v2v9.1V24c0,1.1,0.9,2,2,2h24c1.1,0,2-0.9,2-2V11C29,9.9,28.1,9,27,9z"/>
</g>
</svg>
