<svg xmlns="http://www.w3.org/2000/svg" width="18" height="18" viewBox="0 0 18 18">
    <path fill="#FFF" fill-rule="nonzero" d="M3.969 5.5h9.408c.576 0 1.088.21 1.472.57.384.36.608.84.608 1.38v5.88c0 .54-.224 1.02-.608 1.38-.384.36-.896.57-1.472.57h-4.48l-1.952 1.83c-.192.18-.512.18-.736 0-.096-.09-.128-.24-.128-.36v-1.47H3.969c-.576 0-1.088-.21-1.472-.57a1.867 1.867 0 0 1-.608-1.38V7.45c0-.54.224-1.02.608-1.38.384-.36.896-.57 1.472-.57zm9.408.99H3.969c-.288 0-.544.09-.736.27a.92.92 0 0 0-.288.69v5.88c0 .27.096.51.288.69.192.18.448.3.736.3h2.624c.288 0 .512.21.512.48v.78l1.184-1.11a.548.548 0 0 1 .384-.15h4.704c.288 0 .544-.12.736-.3a.95.95 0 0 0 .32-.69V7.45a.95.95 0 0 0-.32-.69 1.051 1.051 0 0 0-.736-.27zm-2.08 3.18c.416 0 .768.33.768.72a.76.76 0 0 1-.768.75c-.448 0-.8-.33-.8-.75 0-.39.352-.72.8-.72zm-2.624 0c.448 0 .8.33.8.72 0 .42-.352.75-.8.75a.76.76 0 0 1-.768-.75c0-.39.352-.72.768-.72zm-2.592 0c.416 0 .768.33.768.72a.76.76 0 0 1-.768.75c-.448 0-.8-.33-.8-.75 0-.39.352-.72.8-.72z"/>
</svg>
