<?xml version="1.0" encoding="utf-8"?>
<!-- Generator: Adobe Illustrator 21.1.0, SVG Export Plug-In . SVG Version: 6.00 Build 0)  -->
<svg version="1.1" id="圖層_1" xmlns="http://www.w3.org/2000/svg" xmlns:xlink="http://www.w3.org/1999/xlink" x="0px" y="0px"
	 viewBox="0 0 24 24" style="enable-background:new 0 0 24 24;" xml:space="preserve">
<style type="text/css">
	.st0{fill:none;}
	.st1{fill:#BABABA;}
</style>
<path class="st0" d="M0,0h24v24H0V0z"/>
<path class="st1" d="M10.8,19.2h2.4v-2.4h-2.4V19.2z M12,0C5.4,0,0,5.4,0,12s5.4,12,12,12s12-5.4,12-12S18.6,0,12,0z M12,21.6
	c-5.3,0-9.6-4.3-9.6-9.6S6.7,2.4,12,2.4s9.6,4.3,9.6,9.6S17.3,21.6,12,21.6z M12,4.8c-2.7,0-4.8,2.1-4.8,4.8h2.4
	c0-1.3,1.1-2.4,2.4-2.4s2.4,1.1,2.4,2.4c0,2.4-3.6,2.1-3.6,6h2.4c0-2.7,3.6-3,3.6-6C16.8,6.9,14.7,4.8,12,4.8z"/>
</svg>
