<svg xmlns="http://www.w3.org/2000/svg" width="18" height="18" viewBox="0 0 18 18">
    <g fill="none" fill-rule="evenodd">
        <path d="M0 0h18v18H0z"/>
        <circle cx="9" cy="9" r="6.5" fill="#3D80FF"/>
        <path fill="#FFF" d="M8.997 5.1c.266 0 .492.093.677.278a.89.89 0 0 1 .276.66.88.88 0 0 1-.283.659.92.92 0 0 1-.67.272.921.921 0 0 1-.67-.272.89.89 0 0 1-.277-.66.89.89 0 0 1 .276-.659.91.91 0 0 1 .67-.278zM7.7 7.7h2.1v4.475c.003.502.36.668.7.689v.344H7.7v-.344c.482-.015.694-.358.7-.689V8.733c0-.344-.517-.678-.7-.689V7.7z"/>
    </g>
</svg>
