<svg xmlns="http://www.w3.org/2000/svg" xmlns:xlink="http://www.w3.org/1999/xlink" width="18" height="18" viewBox="0 0 18 18">
    <defs>
        <path id="a" d="M9 15.5a6.5 6.5 0 1 1 0-13 6.5 6.5 0 0 1 0 13zm.05-10.38c-.415 0-.75.362-.75.811v3.785c0 .449.335.81.75.81.416 0 .75-.361.75-.81V5.93c0-.45-.334-.811-.75-.811zm0 6.308a.75.75 0 1 0 0 1.5.75.75 0 0 0 0-1.5z"/>
    </defs>
    <g fill="none" fill-rule="evenodd">
        <mask id="b" fill="#fff">
            <use xlink:href="#a"/>
        </mask>
        <g fill="#CCC" mask="url(#b)">
            <rect width="18" height="18" rx="4"/>
        </g>
    </g>
</svg>
