<svg xmlns="http://www.w3.org/2000/svg" xmlns:xlink="http://www.w3.org/1999/xlink" width="18" height="18" viewBox="0 0 18 18">
    <defs>
        <path id="a" d="M10.953 15C9.834 16.333 9.183 17 9 17c-.183 0-.862-.667-2.036-2H2.127C1.505 15 1 14.516 1 13.92V3.08C1 2.484 1.505 2 2.127 2H15.79c.622 0 1.127.484 1.127 1.08L17 13.92c0 .596-.505 1.08-1.127 1.08h-4.92zm-.089-2.886l.73.518a.743.743 0 0 0 1.017-.154.542.542 0 0 0-.131-.754l-.782-.55c.136-.2.233-.48.292-.839.045-.359.068-.992.068-1.898 0-1.014-.03-1.692-.089-2.036-.063-.343-.178-.62-.345-.832-.23-.403-.606-.763-1.126-1.078-.524-.32-1.18-.483-1.966-.491-.777.008-1.426.172-1.946.491-.528.315-.913.675-1.152 1.078-.15.211-.26.489-.332.832C5.034 6.745 5 7.423 5 8.437c0 .998.034 1.673.102 2.024.036.188.081.343.135.467.059.12.125.246.197.377.24.404.624.759 1.152 1.066.52.32 1.169.487 1.946.503.972-.016 1.75-.27 2.332-.76zm-1.227-.868c-.275.203-.644.305-1.105.305-.352 0-.655-.066-.908-.198A1.735 1.735 0 0 1 7 10.916a1.388 1.388 0 0 1-.386-.736c-.073-.304-.109-.885-.109-1.743 0-.858.036-1.443.109-1.754.063-.296.192-.537.386-.725.158-.18.366-.33.624-.449.253-.116.556-.178.908-.186.357.008.667.07.929.186.249.12.447.27.597.45.194.187.327.428.4.724.067.311.101.896.101 1.754 0 .922-.047 1.531-.142 1.826l-.634-.444a.748.748 0 0 0-1.019.156.538.538 0 0 0 .13.749l.743.522z"/>
    </defs>
    <g fill="none" fill-rule="evenodd">
        <g>
            <mask id="b" fill="#fff">
                <use xlink:href="#a"/>
            </mask>
            <use fill="#BABABA" xlink:href="#a"/>
            <g fill="#CCC" mask="url(#b)">
                <rect width="18" height="18" rx="4"/>
            </g>
        </g>
    </g>
</svg>
