<svg xmlns="http://www.w3.org/2000/svg" xmlns:xlink="http://www.w3.org/1999/xlink" width="18" height="18" viewBox="0 0 18 18">
    <defs>
        <path id="a" d="M1.5 1.5H13a1 1 0 0 1 1 1v9a.5.5 0 0 1-.5.5H4.328a2 2 0 0 0-1.414.586l-1.56 1.56a.5.5 0 0 1-.854-.353V2.5a1 1 0 0 1 1-1zm15 4a1 1 0 0 1 1 1v8a1 1 0 0 1-1 1h-12a1 1 0 0 1 0-2h10a1 1 0 0 0 1-1v-6a1 1 0 0 1 1-1z"/>
    </defs>
    <g fill="none" fill-rule="evenodd">
        <g>
            <mask id="b" fill="#fff">
                <use xlink:href="#a"/>
            </mask>
            <use fill="#BABABA" xlink:href="#a"/>
            <g fill="#CCC" mask="url(#b)">
                <rect width="18" height="18" rx="4"/>
            </g>
        </g>
    </g>
</svg>
