<svg xmlns="http://www.w3.org/2000/svg" xmlns:xlink="http://www.w3.org/1999/xlink" width="18" height="18" viewBox="0 0 18 18">
    <defs>
        <path id="a" d="M9.493 1.13l6.5 3.683a1 1 0 0 1 .507.87v7.335a1 1 0 0 1-.507.87l-6.5 3.683a1 1 0 0 1-.986 0l-6.5-3.683a1 1 0 0 1-.507-.87V5.683a1 1 0 0 1 .507-.87l6.5-3.683a1 1 0 0 1 .986 0zM9 11.701a2.5 2.5 0 1 0 0-5 2.5 2.5 0 0 0 0 5z"/>
    </defs>
    <g fill="none" fill-rule="evenodd">
        <g>
            <mask id="b" fill="#fff">
                <use xlink:href="#a"/>
            </mask>
            <use fill="#BABABA" xlink:href="#a"/>
            <g fill="#CCC" mask="url(#b)">
                <rect width="18" height="18" rx="4"/>
            </g>
        </g>
    </g>
</svg>
