<svg xmlns="http://www.w3.org/2000/svg" xmlns:xlink="http://www.w3.org/1999/xlink" width="18" height="18" viewBox="0 0 18 18">
    <defs>
        <path id="a" d="M5 1.5v15H2a1 1 0 0 1-1-1v-13a1 1 0 0 1 1-1h3zm2 0h9a1 1 0 0 1 1 1v13a1 1 0 0 1-1 1H7v-15zm2 2a1 1 0 1 0 0 2h5a1 1 0 0 0 0-2H9zm0 3a1 1 0 1 0 0 2h5a1 1 0 0 0 0-2H9zm0 3a1 1 0 1 0 0 2h5a1 1 0 0 0 0-2H9z"/>
    </defs>
    <g fill="none" fill-rule="evenodd">
        <g>
            <mask id="b" fill="#fff">
                <use xlink:href="#a"/>
            </mask>
            <use fill="#BABABA" xlink:href="#a"/>
            <g fill="#CCC" mask="url(#b)">
                <rect width="18" height="18" rx="4"/>
            </g>
        </g>
    </g>
</svg>
