<svg xmlns="http://www.w3.org/2000/svg" xmlns:xlink="http://www.w3.org/1999/xlink" width="16" height="15" viewBox="0 0 16 15">
    <defs>
        <path id="a" d="M10.5 17v-4.5a1.5 1.5 0 0 0-3 0V17H2.437a.944.944 0 0 1-.937-.951v-8.35c0-.307.146-.595.393-.774l6.563-4.748a.927.927 0 0 1 1.088 0l6.563 4.748a.955.955 0 0 1 .393.774v8.35c0 .525-.42.951-.938.951H10.5zM9 10a1.5 1.5 0 1 0 0-3 1.5 1.5 0 0 0 0 3z"/>
    </defs>
    <use fill="#BABABA" fill-rule="evenodd" transform="translate(-1 -2)" xlink:href="#a"/>
</svg>
