<?xml version="1.0" encoding="UTF-8"?>
<svg width="20px" height="20px" viewBox="0 0 20 20" version="1.1" xmlns="http://www.w3.org/2000/svg" xmlns:xlink="http://www.w3.org/1999/xlink">
    <!-- Generator: Sketch 52.1 (67048) - http://www.bohemiancoding.com/sketch -->
    <title>画板</title>
    <desc>Created with Sketch.</desc>
    <g id="画板" stroke="none" stroke-width="1" fill="none" fill-rule="evenodd">
        <g id="监控_1" transform="translate(1.000000, 4.000000)" fill="#3D80FF">
            <path d="M9,12 C5.89689906,12 3.15345879,10.134601 0.769679175,6.40380312 C0.612345224,6.15756342 0.612345649,5.84236488 0.769680264,5.59612561 L0.76971183,5.59614577 C3.15348384,1.86538192 5.89691323,2.80830405e-16 9,0 C12.1031009,0 14.8465412,1.86539896 17.2303208,5.59619688 C17.3876548,5.84243658 17.3876544,6.15763512 17.2303197,6.40387439 L17.2302882,6.40385423 C14.8465162,10.1346181 12.1030868,12 9,12 Z M9,9 C10.6568542,9 12,7.65685425 12,6 C12,4.34314575 10.6568542,3 9,3 C7.34314575,3 6,4.34314575 6,6 C6,7.65685425 7.34314575,9 9,9 Z M9,7 C8.44771525,7 8,6.55228475 8,6 C8,5.44771525 8.44771525,5 9,5 C9.55228475,5 10,5.44771525 10,6 C10,6.55228475 9.55228475,7 9,7 Z" id="合并形状"></path>
        </g>
    </g>
</svg>