<?xml version="1.0" encoding="UTF-8"?>
<svg width="18px" height="18px" viewBox="0 0 18 18" version="1.1" xmlns="http://www.w3.org/2000/svg" xmlns:xlink="http://www.w3.org/1999/xlink">
    <!-- Generator: sketchtool 50.2 (55047) - http://www.bohemiancoding.com/sketch -->
    <title>A2BB7025-9BB4-458D-BA70-6824B0C85094</title>
    <desc>Created with sketchtool.</desc>
    <defs>
        <path d="M6.86322274,14.1711364 C6.76491114,14.2570456 6.64717998,14.3000002 6.53066254,14.3000002 C6.37530595,14.3000002 6.2223768,14.2248296 6.11678287,14.0812002 C5.93351064,13.828842 5.96992234,13.4597009 6.19810233,13.2570089 L10.828457,9.13739473 L6.22116308,5.04328483 C5.99298309,4.84059283 5.95657139,4.47145177 6.13984361,4.21909352 C6.32311584,3.96673527 6.65688977,3.92646534 6.88506976,4.12915734 L12.0069823,8.68100215 C12.1319958,8.7910733 12.2048192,8.96020702 12.2048192,9.13739473 C12.2048192,9.31592476 12.1319958,9.48371615 12.0069823,9.59512964 L6.86322274,14.1711364 Z" id="path-1"></path>
    </defs>
    <g id="components" stroke="none" stroke-width="1" fill="none" fill-rule="evenodd">
        <g id="ICON-2" transform="translate(-738.000000, -144.000000)">
            <g id="03-Icon/08-Sign/canlander/month-right" transform="translate(738.000000, 144.000000)">
                <mask id="mask-2" fill="white">
                    <use xlink:href="#path-1"></use>
                </mask>
                <use id="right" fill="#FFFFFF" fill-rule="evenodd" xlink:href="#path-1"></use>
                <g id="13-Palette/Icon/Normal" mask="url(#mask-2)" fill="#65748D" fill-rule="evenodd">
                    <rect id="Fill/Button-Background" x="0" y="0" width="18" height="18" rx="4"></rect>
                </g>
            </g>
            <g id="Group" transform="translate(50.000000, 15.000000)"></g>
        </g>
    </g>
</svg>