<?xml version="1.0" encoding="UTF-8"?>
<svg width="18px" height="18px" viewBox="0 0 18 18" version="1.1" xmlns="http://www.w3.org/2000/svg" xmlns:xlink="http://www.w3.org/1999/xlink">
    <!-- Generator: sketchtool 50.2 (55047) - http://www.bohemiancoding.com/sketch -->
    <title>DE3421D2-450D-4CDB-92DA-E35C7B43BDA6</title>
    <desc>Created with sketchtool.</desc>
    <defs>
        <path d="M11.3415965,4.12886379 L6.19783691,8.70487056 C6.0728234,8.81628404 6,8.98407543 6,9.16260547 C6,9.33979317 6.0728234,9.50892689 6.19783691,9.61899804 L11.3197495,14.1708429 C11.5479295,14.3735349 11.8817034,14.3332649 12.0649756,14.0809067 C12.2482479,13.8285484 12.2118362,13.4594074 11.9836562,13.2567154 L7.37636229,9.16260547 L12.0067169,5.04299128 C12.2348969,4.84029928 12.2713086,4.47115822 12.0880364,4.21879997 C11.9824424,4.07517054 11.8295133,4 11.6741567,4 C11.5576393,4 11.4399081,4.0429546 11.3415965,4.12886379 Z" id="path-1"></path>
    </defs>
    <g id="components" stroke="none" stroke-width="1" fill="none" fill-rule="evenodd">
        <g id="ICON-2" transform="translate(-666.000000, -144.000000)">
            <g id="03-Icon/08-Sign/canlander/month-left" transform="translate(666.000000, 144.000000)">
                <mask id="mask-2" fill="white">
                    <use xlink:href="#path-1"></use>
                </mask>
                <use id="left" fill="#65748D" fill-rule="evenodd" transform="translate(9.102410, 9.150000) scale(-1, 1) rotate(-180.000000) translate(-9.102410, -9.150000) " xlink:href="#path-1"></use>
                <g id="13-Palette/Icon/Normal" mask="url(#mask-2)" fill="#65748D" fill-rule="evenodd">
                    <rect id="Fill/Button-Background" x="0" y="0" width="18" height="18" rx="4"></rect>
                </g>
            </g>
            <g id="Group" transform="translate(50.000000, 15.000000)"></g>
        </g>
    </g>
</svg>