<svg xmlns="http://www.w3.org/2000/svg" xmlns:xlink="http://www.w3.org/1999/xlink" width="18" height="18" viewBox="0 0 18 18">
    <defs>
        <path id="a" d="M6.863 14.171a.505.505 0 0 1-.332.129.514.514 0 0 1-.414-.219.63.63 0 0 1 .081-.824l4.63-4.12-4.607-4.094a.63.63 0 0 1-.081-.824.497.497 0 0 1 .745-.09l5.122 4.552a.61.61 0 0 1 .198.456.613.613 0 0 1-.198.458l-5.144 4.576z"/>
    </defs>
    <g fill="none" fill-rule="evenodd">
        <g>
            <mask id="b" fill="#fff">
                <use xlink:href="#a"/>
            </mask>
            <use fill="#FFF" xlink:href="#a"/>
            <g fill="#FFF" mask="url(#b)">
                <rect width="18" height="18" rx="4"/>
            </g>
        </g>
    </g>
</svg>
