<svg xmlns="http://www.w3.org/2000/svg" xmlns:xlink="http://www.w3.org/1999/xlink" width="40" height="60" viewBox="0 0 40 60">
    <defs>
        <linearGradient id="b" x1="50%" x2="50%" y1="0%" y2="100%">
            <stop offset="0%" stop-color="#FFC62C" stop-opacity="0"/>
            <stop offset="100%" stop-color="#FF6663" stop-opacity=".1"/>
        </linearGradient>
        <path id="a" d="M.523 0h8.372l-.523 10.151c-.051 2.332-1.99 4.165-4.317 4.165C1.802 14.316 0 12.534 0 10.28v-.13L.523 0z"/>
        <linearGradient id="c" x1="0%" y1="84.06%" y2="0%">
            <stop offset="0%" stop-opacity=".1"/>
            <stop offset="100%" stop-color="#FF6663" stop-opacity="0"/>
        </linearGradient>
        <path id="e" d="M17.597 16.198c1.17.399 1.976 1.5 1.955 2.71-.024 1.413-.891 2.532-2.043 2.884-.695 3.96-5.372 7.027-7.929 7.027-2.766 0-8.016-3.591-8.016-8.02.26-2.046.391-3.146.391-3.301 0-.155-.13-1.315-.39-3.48 0-4.43 3.588-8.02 8.015-8.02a8.018 8.018 0 0 1 8.017 8.02v2.18z"/>
        <linearGradient id="g" x1="50%" x2="50%" y1="0%" y2="100%">
            <stop offset="0%" stop-color="#1F1845" stop-opacity="0"/>
            <stop offset="100%" stop-opacity=".2"/>
        </linearGradient>
        <path id="f" d="M17.573 23.993l.154-2.998-.13-2.234a4.302 4.302 0 0 1-2.088-4.812 4.238 4.238 0 0 1-4.404-3.766 4.866 4.866 0 0 1-2.176.51A4.866 4.866 0 0 1 5.86 9.609a2.66 2.66 0 0 1-1.233.301 2.66 2.66 0 0 1-1.59-.525 7.98 7.98 0 0 0-1.338 3.159 4.825 4.825 0 0 1 2.66-8.48 4.89 4.89 0 0 1 6.969-2.523 5.932 5.932 0 0 1 9.907 4.017 4.956 4.956 0 0 1 2.614 8.365 4.313 4.313 0 0 1-1.632 4.55c.047.268.072.544.072.826 0 2.557-2.17 4.637-4.716 4.694z"/>
        <linearGradient id="h" x1="64.016%" x2="0%" y1="22.966%" y2="100%">
            <stop offset="0%" stop-opacity=".1"/>
            <stop offset="100%" stop-color="#FF6663" stop-opacity="0"/>
        </linearGradient>
        <linearGradient id="i" x1="54.675%" x2="54.675%" y1="100%" y2="-6.884%">
            <stop offset="0%" stop-color="#C74D75" stop-opacity="0"/>
            <stop offset="100%" stop-color="#AF3B6E" stop-opacity=".2"/>
        </linearGradient>
        <linearGradient id="k" x1="53.525%" x2="50%" y1="0%" y2="100%">
            <stop offset="0%" stop-color="#C74D75" stop-opacity="0"/>
            <stop offset="100%" stop-color="#AF3B6E" stop-opacity=".2"/>
        </linearGradient>
        <path id="j" d="M36.47 29.316H3.53a1.843 1.843 0 1 1 0-1.474h32.94a1.843 1.843 0 1 1 0 1.474z"/>
    </defs>
    <g fill="none" fill-rule="evenodd">
        <path fill="#FFF" fill-opacity=".01" fill-rule="nonzero" d="M0 0h40v60H0z"/>
        <path fill="#393E41" fill-rule="nonzero" d="M29.605 11.579a.79.79 0 1 1 0-1.579h8.027A2.368 2.368 0 0 1 40 12.368v8.027a.79.79 0 1 1-1.579 0v-8.027a.79.79 0 0 0-.79-.79h-8.026zm8.816 28.026a.79.79 0 1 1 1.579 0v8.027A2.368 2.368 0 0 1 37.632 50h-8.027a.79.79 0 1 1 0-1.579h8.027a.79.79 0 0 0 .79-.79v-8.026zm-28.026 8.816a.79.79 0 1 1 0 1.579H2.368A2.368 2.368 0 0 1 0 47.632v-8.027a.79.79 0 1 1 1.579 0v8.027c0 .436.353.79.79.79h8.026zM1.579 20.395a.79.79 0 1 1-1.579 0v-8.027A2.368 2.368 0 0 1 2.368 10h8.027a.79.79 0 1 1 0 1.579H2.368a.79.79 0 0 0-.79.79v8.026z"/>
        <g transform="translate(16.316 33.316)">
            <mask id="d" fill="#fff">
                <use xlink:href="#a"/>
            </mask>
            <use fill="#FFC62C" xlink:href="#a"/>
            <use fill="url(#b)" xlink:href="#a"/>
            <path fill="url(#c)" d="M8.476 5.073c-1.718 2.4-4.72 4.032-6.65 4.032-.49 0-1.139-.142-1.826-.39L.391 0h8.346l-.261 5.073z" mask="url(#d)"/>
        </g>
        <g transform="translate(7.368 12.368)">
            <use fill="#FFC62C" xlink:href="#e"/>
            <use fill="url(#b)" xlink:href="#e"/>
        </g>
        <g transform="translate(7.368 12.368)">
            <use fill="#1F1845" xlink:href="#f"/>
            <use fill="url(#g)" xlink:href="#f"/>
        </g>
        <path fill="url(#h)" d="M15.688 16.558c-.12.002-.323.003-.372.003a4.238 4.238 0 0 1-4.211-3.77 4.866 4.866 0 0 1-2.176.51 4.866 4.866 0 0 1-3.069-1.084 2.66 2.66 0 0 1-1.233.301 2.66 2.66 0 0 1-1.59-.525A7.98 7.98 0 0 0 1.7 15.151l-.136-1.133c0-1.726.545-3.324 1.472-4.633.445.33.995.525 1.591.525a2.66 2.66 0 0 0 1.233-.3 4.866 4.866 0 0 0 3.069 1.083c.782 0 1.52-.184 2.176-.51a4.238 4.238 0 0 0 4.404 3.766c-.084.335-.028.701 0 1.062.129 1.63.216 1.547.179 1.547z" transform="translate(7.368 12.368)"/>
        <path fill="url(#i)" d="M0 28.474h40v20.473H0z"/>
        <g>
            <use fill="#FF6663" xlink:href="#j"/>
            <use fill="url(#k)" xlink:href="#j"/>
        </g>
    </g>
</svg>
