<?xml version="1.0" encoding="UTF-8"?>
<svg width="18px" height="18px" viewBox="0 0 18 18" version="1.1" xmlns="http://www.w3.org/2000/svg" xmlns:xlink="http://www.w3.org/1999/xlink">
    <!-- Generator: sketchtool 49.3 (51167) - http://www.bohemiancoding.com/sketch -->
    <title>6F3A83CC-892A-43B6-A055-FB45DF10252A</title>
    <desc>Created with sketchtool.</desc>
    <defs>
        <path d="M8.47058824,4.19893823 L8.47058824,5.5753782 L7.52941176,5.5753782 L7.52941176,4.19893823 C6.59705938,4.06916527 5.68674798,3.55404039 4.80211994,2.67541139 C4.59537178,2.47006528 4.59537178,2.13713346 4.80211994,1.93178736 C5.00886809,1.72644125 5.34407308,1.72644125 5.55082124,1.93178736 C6.40029464,2.77550012 7.21475501,3.1799687 8,3.1799687 C8.78524499,3.1799687 9.59970536,2.77550012 10.4491788,1.93178736 C10.6559269,1.72644125 10.9911319,1.72644125 11.1978801,1.93178736 C11.4046282,2.13713346 11.4046282,2.47006528 11.1978801,2.67541139 C10.313252,3.55404039 9.40294062,4.06916527 8.47058824,4.19893823 Z M5.08235294,5.80907668 L10.9176471,5.80907668 C12.1651608,5.80907668 13.1764706,6.82038642 13.1764706,8.06790021 L13.1764706,11.9633987 C13.1764706,13.2109125 12.1651608,14.2222222 10.9176471,14.2222222 L5.08235294,14.2222222 C3.83483915,14.2222222 2.82352941,13.2109125 2.82352941,11.9633987 L2.82352941,8.06790021 C2.82352941,6.82038642 3.83483915,5.80907668 5.08235294,5.80907668 Z M5.12353157,6.65039979 C4.29510444,6.65039979 3.62353157,7.32197267 3.62353157,8.15039979 L3.62353157,11.9860805 C3.62353157,12.8145077 4.29510444,13.4860805 5.12353157,13.4860805 L10.947061,13.4860805 C11.7754881,13.4860805 12.447061,12.8145077 12.447061,11.9860805 L12.447061,8.15039979 C12.447061,7.32197267 11.7754881,6.65039979 10.947061,6.65039979 L5.12353157,6.65039979 Z M9.31764706,8.84715702 L9.97647059,8.84715702 C10.1843896,8.84715702 10.3529412,9.01570864 10.3529412,9.2236276 L10.3529412,9.87287735 C10.3529412,10.0807963 10.1843896,10.2493479 9.97647059,10.2493479 L9.31764706,10.2493479 C9.10972809,10.2493479 8.94117647,10.0807963 8.94117647,9.87287735 L8.94117647,9.2236276 C8.94117647,9.01570864 9.10972809,8.84715702 9.31764706,8.84715702 Z M6.02352941,8.84715702 L6.68235294,8.84715702 C6.89027191,8.84715702 7.05882353,9.01570864 7.05882353,9.2236276 L7.05882353,9.87287735 C7.05882353,10.0807963 6.89027191,10.2493479 6.68235294,10.2493479 L6.02352941,10.2493479 C5.81561045,10.2493479 5.64705882,10.0807963 5.64705882,9.87287735 L5.64705882,9.2236276 C5.64705882,9.01570864 5.81561045,8.84715702 6.02352941,8.84715702 Z M14.1176471,7.44496609 C14.3775458,7.44496609 14.5882353,7.65565562 14.5882353,7.91555433 L14.5882353,11.6483476 C14.5882353,11.9082463 14.3775458,12.1189358 14.1176471,12.1189358 C13.8577484,12.1189358 13.6470588,11.9082463 13.6470588,11.6483476 L13.6470588,7.91555433 C13.6470588,7.65565562 13.8577484,7.44496609 14.1176471,7.44496609 Z M1.88235294,7.44496609 C2.14225165,7.44496609 2.35294118,7.65565562 2.35294118,7.91555433 L2.35294118,11.6483476 C2.35294118,11.9082463 2.14225165,12.1189358 1.88235294,12.1189358 C1.62245424,12.1189358 1.41176471,11.9082463 1.41176471,11.6483476 L1.41176471,7.91555433 C1.41176471,7.65565562 1.62245424,7.44496609 1.88235294,7.44496609 Z M15.5294118,8.37976004 C15.7893105,8.37976004 16,8.59044957 16,8.85034828 L16,10.7135537 C16,10.9734524 15.7893105,11.1841419 15.5294118,11.1841419 C15.2695131,11.1841419 15.0588235,10.9734524 15.0588235,10.7135537 L15.0588235,8.85034828 C15.0588235,8.59044957 15.2695131,8.37976004 15.5294118,8.37976004 Z M0.470588235,8.37976004 C0.730486941,8.37976004 0.941176471,8.59044957 0.941176471,8.85034828 L0.941176471,10.7135537 C0.941176471,10.9734524 0.730486941,11.1841419 0.470588235,11.1841419 C0.210689529,11.1841419 1.7526741e-15,10.9734524 1.72084569e-15,10.7135537 L1.66533454e-15,8.85034828 C1.63350613e-15,8.59044957 0.210689529,8.37976004 0.470588235,8.37976004 Z" id="path-1"></path>
    </defs>
    <g id="components" stroke="none" stroke-width="1" fill="none" fill-rule="evenodd">
        <g id="ICON" transform="translate(-72.000000, -522.000000)">
            <g id="03-Icon/boticon" transform="translate(73.000000, 523.000000)">
                <mask id="mask-2" fill="white">
                    <use xlink:href="#path-1"></use>
                </mask>
                <use fill="#FFFFFF" fill-rule="evenodd" xlink:href="#path-1"></use>
                <g id="13-Palette/Icon/Normal" mask="url(#mask-2)" fill="#65748D" fill-rule="evenodd">
                    <rect id="Fill/Button-Background" x="0" y="0" width="16" height="16" rx="4"></rect>
                </g>
            </g>
        </g>
    </g>
</svg>