<?xml version="1.0" encoding="UTF-8"?>
<svg width="18px" height="18px" viewBox="0 0 18 18" version="1.1" xmlns="http://www.w3.org/2000/svg" xmlns:xlink="http://www.w3.org/1999/xlink">
    <!-- Generator: sketchtool 49.3 (51167) - http://www.bohemiancoding.com/sketch -->
    <title>5B356E2A-5BED-4747-AB24-37E4DA831F1A</title>
    <desc>Created with sketchtool.</desc>
    <defs></defs>
    <g id="components" stroke="none" stroke-width="1" fill="none" fill-rule="evenodd">
        <g id="ICON" transform="translate(-36.000000, -522.000000)" fill="#65748D" fill-rule="nonzero">
            <path d="M39.4528302,524 L50.5471698,524 C51.2264151,524 51.8301887,524.264151 52.2830189,524.716981 C52.7358491,525.169811 53,525.773585 53,526.45283 L53,533.849057 C53,534.528302 52.7358491,535.132075 52.2830189,535.584906 C51.8301887,536.037736 51.2264151,536.301887 50.5471698,536.301887 L45.2641509,536.301887 L42.9622642,538.603774 C42.7358491,538.830189 42.3584906,538.830189 42.0943396,538.603774 C41.9811321,538.490566 41.9433962,538.301887 41.9433962,538.150943 L41.9433962,536.301887 L39.4528302,536.301887 C38.7735849,536.301887 38.1698113,536.037736 37.7169811,535.584906 C37.2641509,535.132075 37,534.528302 37,533.849057 L37,526.45283 C37,525.773585 37.2641509,525.169811 37.7169811,524.716981 C38.1698113,524.264151 38.7735849,524 39.4528302,524 Z M45.276231,533.663698 C45.6849034,533.663698 46.0192716,533.32933 46.0192716,532.920658 C46.0192716,532.511985 45.6849034,532.177617 45.276231,532.177617 C44.8675587,532.177617 44.5331904,532.511985 44.5331904,532.920658 C44.5331904,533.32933 44.8675587,533.663698 45.276231,533.663698 Z M45.9821196,530.840144 C46.2607598,530.431472 47.5982329,529.967071 47.5982329,528.796782 C47.5982329,527.533613 46.465096,526.994909 45.313383,526.994909 C44.1988221,526.994909 43.1957173,527.775101 43.1957173,528.66675 C43.1957173,529.03827 43.4743575,529.224031 43.7901498,529.224031 C44.6632225,529.224031 44.2173981,528.035166 45.3691111,528.035166 C45.9263916,528.035166 46.2421838,528.332382 46.2421838,528.815358 C46.2421838,529.688431 44.6632225,529.929919 44.6632225,531.007328 C44.6632225,531.285968 44.8489827,531.60176 45.239079,531.60176 C45.8335115,531.60176 45.7592074,531.155936 45.9821196,530.840144 Z" id="Combined-Shape"></path>
        </g>
    </g>
</svg>