<?xml version="1.0" encoding="UTF-8"?>
<svg width="19px" height="18px" viewBox="0 0 19 18" version="1.1" xmlns="http://www.w3.org/2000/svg" xmlns:xlink="http://www.w3.org/1999/xlink">
    <!-- Generator: Sketch 50.2 (55047) - http://www.bohemiancoding.com/sketch -->
    <title>release</title>
    <desc>Created with Sketch.</desc>
    <defs></defs>
    <g id="Page-1" stroke="none" stroke-width="1" fill="none" fill-rule="evenodd">
        <path d="M11.1133159,4.45521416 L10.0561859,3.58371029 L10.0561859,6.207597 C10.0561859,6.4838482 9.83230989,6.7077242 9.55605889,6.7077242 C9.27980789,6.7077242 9.05593189,6.4838482 9.05593189,6.207597 L9.05593189,3.58358529 L7.99880219,4.45508916 C7.90567679,4.5319645 7.79292629,4.56933967 7.68080079,4.56933967 C7.53655019,4.56933967 7.39367449,4.50733939 7.29467409,4.38746386 C7.11892329,4.17433791 7.14929849,3.85908651 7.36229939,3.68346073 L9.23780769,2.13720386 C9.24455779,2.13157883 9.25218279,2.12770381 9.25930779,2.12245379 C9.27030789,2.11432875 9.28130789,2.10657872 9.29293299,2.09932869 C9.30805809,2.08995365 9.32355809,2.08170361 9.33943319,2.07407857 C9.35118319,2.06845355 9.36268329,2.06270352 9.37493339,2.0579535 C9.39318339,2.05082847 9.41168349,2.04557845 9.43043359,2.04070343 C9.44143359,2.03782841 9.45193369,2.0343284 9.46318369,2.03220339 C9.52468399,2.02057834 9.58755889,2.02057834 9.64893489,2.03220339 C9.66018489,2.0343284 9.67080989,2.03782841 9.68168489,2.04070343 C9.70043489,2.04557845 9.71893489,2.05082847 9.73705989,2.0579535 C9.74930989,2.06270352 9.76080989,2.06845355 9.77255989,2.07407857 C9.78843489,2.08170361 9.80380989,2.08982864 9.81893489,2.09932869 C9.83055989,2.10657872 9.84168589,2.11432875 9.85256089,2.12245379 C9.85956089,2.12770381 9.86718589,2.13157883 9.87406089,2.13720386 L11.7495689,3.68346073 C11.9626949,3.85921151 11.9929449,4.17433791 11.8171939,4.38746386 C11.6415689,4.60046481 11.3261919,4.63096494 11.1133159,4.45521416 Z M1.55639859,8.7322332 C1.55577359,8.7189831 1.55602359,8.7059831 1.55639859,8.692858 C1.55714859,8.6703579 1.55939859,8.6481078 1.56302359,8.6258577 C1.56514859,8.6131077 1.56714859,8.6006076 1.57027369,8.5881075 C1.57602369,8.5648574 1.58402369,8.5423573 1.59314879,8.5199822 C1.59739879,8.5096072 1.60077379,8.4991071 1.60564879,8.4889821 C1.61864889,8.462357 1.63452389,8.4372319 1.65227399,8.4129818 C1.65539899,8.4087317 1.65714899,8.4038567 1.66039909,8.3997317 C1.66089909,8.3991067 1.66152409,8.3987317 1.66202409,8.3981067 C1.68364919,8.3708566 1.70789929,8.3453565 1.73577439,8.3223564 L4.76878789,5.8217202 C4.98191379,5.6454695 5.29716519,5.6765946 5.47266599,5.8893455 C5.64841679,6.1024715 5.61804159,6.4177229 5.40504069,6.5933487 L3.44703199,8.2081058 L6.68317139,8.2081058 C6.95942259,8.2081058 7.18329859,8.4319818 7.18329859,8.7082331 C7.18329859,8.9844843 6.95942259,9.2083603 6.68317139,9.2083603 L2.69265359,9.2083603 L4.11315999,14.9761359 L14.9988329,14.9761359 L16.4195899,9.2083603 L12.8928239,9.2083603 C12.6528229,10.8526176 11.2479419,12.1186232 9.55593419,12.1186232 C9.27968289,12.1186232 9.05580689,11.8947472 9.05580689,11.618496 C9.05580689,11.3422448 9.27968289,11.1183688 9.55593419,11.1183688 C10.8641899,11.1183688 11.9286949,10.037114 11.9286949,8.7082331 C11.9286949,8.4319818 12.1525709,8.2081058 12.4288219,8.2081058 L15.6649609,8.2081058 L13.7065779,6.5934737 C13.4934519,6.4177229 13.4632019,6.1025965 13.6389519,5.8894705 C13.8147029,5.6763446 14.1299549,5.6463445 14.3429559,5.8218452 L17.3759689,8.3224814 C17.4038439,8.3454815 17.4280939,8.3709816 17.4497189,8.3981067 C17.4502189,8.3987317 17.4509689,8.3992317 17.4514689,8.3998567 C17.4549689,8.4043567 17.4569689,8.4096067 17.4602189,8.4141068 C17.4777189,8.4379819 17.4933449,8.462607 17.5060949,8.4887321 C17.5113449,8.4994821 17.5149699,8.5106072 17.5193449,8.5216072 C17.5280949,8.5432323 17.5358449,8.5648574 17.5414699,8.5873575 C17.5447199,8.6004826 17.5469699,8.6136077 17.5490949,8.6269827 C17.5527199,8.6486078 17.5548449,8.6702329 17.5555949,8.692233 C17.5560949,8.7057331 17.5562199,8.7189831 17.5555949,8.7326082 C17.5544699,8.7561083 17.5510949,8.7791084 17.5465949,8.8023585 C17.5449699,8.8108585 17.5453449,8.8194836 17.5433449,8.8279836 L15.8763369,15.5960137 C15.8212119,15.8195147 15.6209609,15.9765154 15.3907099,15.9765154 L3.72128319,15.9765154 C3.49128219,15.9765154 3.29078129,15.8195147 3.23553109,15.5960137 L1.56864859,8.8278586 C1.56652359,8.8192336 1.56702359,8.8104835 1.56539859,8.8018585 C1.56089859,8.7787334 1.55752359,8.7556083 1.55639859,8.7322332 Z" id="release" fill="#888888" fill-rule="nonzero"></path>
    </g>
</svg>