<svg xmlns="http://www.w3.org/2000/svg" width="26" height="26" viewBox="0 0 26 26">
    <g fill="#6F7378" fill-rule="nonzero">
        <path d="M1.926 1.926v5.278a.5.5 0 0 1-.5.5H.5a.5.5 0 0 1-.5-.5V.5A.5.5 0 0 1 .5 0h6.704a.5.5 0 0 1 .5.5v.926a.5.5 0 0 1-.5.5H1.926zM24.074 24.074v-5.278a.5.5 0 0 1 .5-.5h.926a.5.5 0 0 1 .5.5V25.5a.5.5 0 0 1-.5.5h-6.704a.5.5 0 0 1-.5-.5v-.926a.5.5 0 0 1 .5-.5h5.278zM1.926 24.074H9.13a.5.5 0 0 1 .5.5v.926a.5.5 0 0 1-.5.5H.5a.5.5 0 0 1-.5-.5v-8.63a.5.5 0 0 1 .5-.5h.926a.5.5 0 0 1 .5.5v7.204zM24.074 1.926h-6.74a.963.963 0 0 1 0-1.926h7.703c.532 0 .963.431.963.963v7.704a.963.963 0 1 1-1.926 0V1.926z"/>
        <path d="M1.926 25.436L.564 24.074l8.712-8.712a.5.5 0 0 1 .707 0l.655.655a.5.5 0 0 1 0 .707l-8.712 8.712zM16.017 10.638l-.655-.655a.5.5 0 0 1 0-.707L24.074.564l1.362 1.362-8.712 8.712a.5.5 0 0 1-.707 0z"/>
    </g>
</svg>
