<?xml version="1.0" encoding="utf-8"?>
<!-- Generator: Adobe Illustrator 21.1.0, SVG Export Plug-In . SVG Version: 6.00 Build 0)  -->
<svg version="1.1" xmlns="http://www.w3.org/2000/svg" xmlns:xlink="http://www.w3.org/1999/xlink" x="0px" y="0px"
	 viewBox="0 0 30 30" style="enable-background:new 0 0 30 30;" xml:space="preserve">
<style type="text/css">
	.st0{display:none;}
	.st1{display:inline;}
	.st2{fill:#868686;}
	.st3{fill:#FFFFFF;}
	.st4{display:inline;fill:#FFFFFF;}
	.st5{display:inline;fill:#868686;}
</style>
<g id="圖層_1" class="st0">
	<g class="st1">
		<circle class="st2" cx="15" cy="15" r="14"/>
	</g>
	<g class="st1">
		<ellipse class="st3" cx="15" cy="15" rx="9.2" ry="8.5"/>
	</g>
	<polygon class="st4" points="15,15 30,20 30,10 	"/>
	<polygon class="st5" points="29,0.5 16,13.5 29,13.5 	"/>
</g>
<g id="圖層_2" class="st0">
	<path class="st5" d="M29,14V3.8l-2.8,2.8C23.7,3.2,19.6,1,15,1C7.3,1,1,7.3,1,15s6.3,14,14,14c6.2,0,11.4-4,13.3-9.6l-4.7-1.6
		c-1.3,3.3-4.6,5.6-8.6,5.6c-5.1,0-9.2-3.8-9.2-8.5c0-4.7,4.1-8.5,9.2-8.5c3.2,0,6,1.5,7.6,3.8L19,14H29z"/>
</g>
<g id="圖層_3">
	<path class="st2" d="M29,13.8v-13l-4.4,4.4c-2.5-2.4-5.9-3.9-9.6-3.9c-7.7,0-14,6.3-14,14s6.3,14,14,14c6.2,0,11.4-4,13.3-9.6
		l-4.7-1.6c-1.3,3.3-4.6,5.6-8.6,5.6c-5.1,0-9.2-3.8-9.2-8.5c0-4.7,4.1-8.5,9.2-8.5c2.3,0,4.3,0.8,5.9,2.1L16,13.8H29z"/>
</g>
</svg>
