<svg xmlns="http://www.w3.org/2000/svg" xmlns:xlink="http://www.w3.org/1999/xlink" width="40" height="60" viewBox="0 0 40 60">
    <defs>
        <linearGradient id="b" x1="50%" x2="50%" y1="0%" y2="100%">
            <stop offset="0%" stop-color="#4E565C" stop-opacity="0"/>
            <stop offset="100%" stop-opacity=".1"/>
        </linearGradient>
        <path id="a" d="M.5 0h35a.5.5 0 0 1 .5.5v25a.5.5 0 0 1-.5.5H.5a.5.5 0 0 1-.5-.5V.5A.5.5 0 0 1 .5 0z"/>
        <linearGradient id="d" x1="50%" x2="50%" y1="0%" y2="100%">
            <stop offset="0%" stop-opacity=".2"/>
            <stop offset="100%" stop-opacity="0"/>
        </linearGradient>
        <linearGradient id="f" x1="50%" x2="50%" y1="0%" y2="100%">
            <stop offset="0%" stop-color="#FF6663" stop-opacity="0"/>
            <stop offset="100%" stop-opacity=".04"/>
        </linearGradient>
        <path id="e" d="M2.293 35.344a1.183 1.183 0 0 1-1.118 1.544A1.177 1.177 0 0 1 0 35.708a1.177 1.177 0 0 1 1.609-1.096l3.794-3.342a1.177 1.177 0 0 1 1.172-1.259 1.177 1.177 0 0 1 1.16 1.368l3.699 3.258a1.167 1.167 0 0 1 .666-.095l4.054-5.356a1.177 1.177 0 0 1 1.17-1.283 1.177 1.177 0 0 1 1.174 1.256l3.631 3.573a1.167 1.167 0 0 1 .68-.096l4.142-6.17a1.177 1.177 0 0 1 1.124-1.523c.51 0 .945.326 1.107.782l3.23.908a1.171 1.171 0 0 1 1.131-.416l4.153-5.641a1.177 1.177 0 0 1 1.13-1.506c.648 0 1.174.528 1.174 1.179a1.177 1.177 0 0 1-1.623 1.09l-4.024 5.466a1.177 1.177 0 0 1-1.028 1.75c-.57.001-1.045-.406-1.152-.947l-3.096-.87a1.173 1.173 0 0 1-1.428.483L23.636 33.2a1.177 1.177 0 0 1-1.01 1.781 1.177 1.177 0 0 1-1.139-1.475l-3.503-3.447a1.166 1.166 0 0 1-1.262.037l-3.79 5.006a1.177 1.177 0 0 1-1.008 1.786 1.177 1.177 0 0 1-1.135-1.484l-3.625-3.192a1.166 1.166 0 0 1-1.257-.05l-3.614 3.182z"/>
    </defs>
    <g fill="none" fill-rule="evenodd">
        <path fill="#FFF" fill-opacity=".01" fill-rule="nonzero" d="M0 0h40v60H0z"/>
        <g transform="translate(1.9 14)">
            <mask id="c" fill="#fff">
                <use xlink:href="#a"/>
            </mask>
            <g opacity=".99">
                <use fill="#4E565C" xlink:href="#a"/>
                <use fill="url(#b)" xlink:href="#a"/>
            </g>
            <path fill="#6F7981" d="M3 10.189h3.35v14.305H3zM8.35 6.274h3.35v18.27H8.35zM13.7 8.081h3.35v16.413H13.7zM19.05 13.903h3.35v10.591h-3.35zM24.4 5.069h3.35v19.425H24.4zM29.75 7.429h3.35v17.066h-3.35z" mask="url(#c)"/>
            <path fill="url(#d)" fill-rule="nonzero" d="M.393 22.348a1.183 1.183 0 0 1-1.118 1.544 1.177 1.177 0 0 1-1.175-1.18 1.177 1.177 0 0 1 1.609-1.096l3.794-3.342a1.177 1.177 0 0 1 1.172-1.259 1.177 1.177 0 0 1 1.16 1.368l3.699 3.257a1.167 1.167 0 0 1 .666-.094l4.054-5.356a1.177 1.177 0 0 1 1.17-1.283 1.177 1.177 0 0 1 1.174 1.256l3.631 3.572a1.167 1.167 0 0 1 .68-.095l4.142-6.171a1.177 1.177 0 0 1 1.124-1.523c.51 0 .945.326 1.107.783l3.23.908a1.171 1.171 0 0 1 1.131-.416l4.153-5.642a1.177 1.177 0 0 1 1.13-1.506c.648 0 1.174.528 1.174 1.18a1.177 1.177 0 0 1-1.623 1.09l-4.024 5.466a1.177 1.177 0 0 1-1.028 1.75c-.57 0-1.045-.407-1.152-.947l-3.096-.87a1.173 1.173 0 0 1-1.428.483l-4.013 5.978a1.177 1.177 0 0 1-1.01 1.781 1.177 1.177 0 0 1-1.139-1.475l-3.503-3.446a1.166 1.166 0 0 1-1.262.036l-3.79 5.006a1.177 1.177 0 0 1-1.008 1.786 1.177 1.177 0 0 1-1.135-1.483l-3.625-3.192a1.166 1.166 0 0 1-1.257-.05L.393 22.347z" mask="url(#c)"/>
        </g>
        <g fill-rule="nonzero">
            <use fill="#FF6663" xlink:href="#e"/>
            <use fill="url(#f)" xlink:href="#e"/>
        </g>
        <rect width="40" height="3.333" y="42.667" fill="#4F565C" fill-rule="nonzero" rx=".333"/>
    </g>
</svg>
