<svg xmlns="http://www.w3.org/2000/svg" width="18" height="18" viewBox="0 0 18 18">
    <g fill="none" fill-rule="evenodd">
        <path fill="#CCC" d="M2.502 1C1.672 1 1 1.672 1 2.502v12.996C1 16.328 1.672 17 2.502 17h12.996c.83 0 1.502-.672 1.502-1.502v-9.39L11.89 1H2.501zm7.225 1.455v4.333c0 .419-.323.757-.724.757H6.088c-.4 0-.724-.338-.724-.757V2.455h4.363zm-7.272 13.09V2.455H3.65V6.78a2.27 2.27 0 0 0 2.27 2.27h3.046a2.27 2.27 0 0 0 2.27-2.27V2.455h.048l4.26 4.259v8.831H2.453zM9 4.781v-.87a.727.727 0 1 0-1.455 0v.87A.727.727 0 1 0 9 4.78z"/>
    </g>
</svg>
