<svg xmlns="http://www.w3.org/2000/svg" width="18" height="18" viewBox="0 0 18 18">
    <path fill="#888" fill-rule="evenodd" d="M16.423 14.57l-3.098-3.095A5.81 5.81 0 0 0 8.815 2 5.81 5.81 0 0 0 3 7.81a5.81 5.81 0 0 0 5.814 5.81 5.786 5.786 0 0 0 3.655-1.293l3.098 3.096a.602.602 0 0 0 .856 0 .603.603 0 0 0 0-.853zm-5.75-2.42a4.7 4.7 0 0 1-1.844.37 4.728 4.728 0 0 1-4.366-2.893 4.7 4.7 0 0 1-.371-1.844 4.728 4.728 0 0 1 2.894-4.366 4.7 4.7 0 0 1 1.843-.371 4.728 4.728 0 0 1 4.366 2.894 4.7 4.7 0 0 1 .372 1.843 4.728 4.728 0 0 1-2.894 4.366z"/>
</svg>
