<svg xmlns="http://www.w3.org/2000/svg" xmlns:xlink="http://www.w3.org/1999/xlink" width="18" height="18" viewBox="0 0 18 18">
    <defs>
        <path id="a" d="M16.242 7.316H15.4a.76.76 0 0 1-.707-.505c-.034-.102-.085-.203-.118-.287a.744.744 0 0 1 .151-.859l.607-.606a.752.752 0 0 0 0-1.078l-1.314-1.314a.752.752 0 0 0-1.078 0l-.606.607a.772.772 0 0 1-.86.151c-.1-.033-.184-.084-.286-.118a.76.76 0 0 1-.505-.707v-.842A.755.755 0 0 0 9.926 1H8.074a.755.755 0 0 0-.758.758v.859c0 .32-.202.606-.505.707a2.055 2.055 0 0 0-.287.118.777.777 0 0 1-.859-.151l-.606-.607a.752.752 0 0 0-1.078 0L2.667 3.998a.752.752 0 0 0 0 1.078l.607.606a.772.772 0 0 1 .151.86c-.05.1-.084.184-.118.285a.76.76 0 0 1-.707.506h-.842A.755.755 0 0 0 1 8.09v1.852c0 .404.337.741.758.741h.825c.32 0 .606.202.708.505.033.102.084.203.117.304a.777.777 0 0 1-.151.859l-.59.59a.752.752 0 0 0 0 1.077l1.314 1.314a.752.752 0 0 0 1.078 0l.573-.573a.745.745 0 0 1 .842-.152c.118.05.235.101.337.152a.769.769 0 0 1 .488.707v.775c0 .421.337.758.758.758h1.852a.755.755 0 0 0 .758-.758v-.825a.76.76 0 0 1 .489-.708c.118-.05.236-.084.337-.151a.745.745 0 0 1 .842.151l.572.573a.752.752 0 0 0 1.078 0l1.314-1.314a.752.752 0 0 0 0-1.077l-.573-.556a.767.767 0 0 1-.151-.86 2.25 2.25 0 0 0 .118-.302.76.76 0 0 1 .707-.506h.842A.755.755 0 0 0 17 9.91V8.057a.751.751 0 0 0-.758-.741zM9 11.947A2.94 2.94 0 0 1 6.053 9 2.94 2.94 0 0 1 9 6.053 2.94 2.94 0 0 1 11.947 9 2.94 2.94 0 0 1 9 11.947z"/>
    </defs>
    <g fill="none" fill-rule="evenodd">
        <g>
            <mask id="b" fill="#fff">
                <use xlink:href="#a"/>
            </mask>
            <use fill="#000" fill-rule="nonzero" xlink:href="#a"/>
            <g fill="#65748D" mask="url(#b)">
                <rect width="18" height="18" rx="4"/>
            </g>
        </g>
    </g>
</svg>
