<?xml version="1.0" encoding="utf-8"?>
<!-- Generator: Adobe Illustrator 21.1.0, SVG Export Plug-In . SVG Version: 6.00 Build 0)  -->
<svg version="1.1" id="圖層_1" xmlns="http://www.w3.org/2000/svg" xmlns:xlink="http://www.w3.org/1999/xlink" x="0px" y="0px"
	 viewBox="0 0 30 30" style="enable-background:new 0 0 30 30;" xml:space="preserve">
<style type="text/css">
	.st0{fill:#868686;}
</style>
<path class="st0" d="M25.4,10.1L21,9l0-4.5l3.5-2.7c-2.6-1.3-5.9-1.1-8.4,0.8c-3.5,2.7-4.2,7.7-1.5,11.2s7.7,4.2,11.2,1.5
	c2.5-1.9,3.5-5,3-7.9L25.4,10.1z"/>
<g>
	<path class="st0" d="M12.6,12.3L1.9,23.1c-1.2,1.2-1.2,3,0,4.2l0.9,0.9c1.2,1.2,3,1.2,4.2,0l10.8-10.8
		C15.4,16.5,13.5,14.6,12.6,12.3z M4.5,27C3.7,27,3,26.3,3,25.5S3.7,24,4.5,24S6,24.7,6,25.5S5.3,27,4.5,27z"/>
</g>
</svg>
