<svg xmlns="http://www.w3.org/2000/svg" xmlns:xlink="http://www.w3.org/1999/xlink" width="18" height="18" viewBox="0 0 18 18">
    <defs>
        <path id="a" d="M9.138 12.345l-1.992-1.992a.5.5 0 1 1 .708-.707L9 10.793V7a.5.5 0 0 1 1 0v3.793l1.146-1.146a.5.5 0 1 1 .707.707l-1.991 1.991a.499.499 0 0 1-.724 0zM12.5 14.5h-6a.5.5 0 1 1 0-1h6a.5.5 0 1 1 0 1zm2.217 2.5H4.284C3.576 17 3 16.439 3 15.748V5.477c0-.434.176-.86.483-1.168L6.31 1.484A1.64 1.64 0 0 1 7.477 1h7.24C15.424 1 16 1.561 16 2.25v13.5c0 .689-.575 1.25-1.283 1.25zM7.477 2a.647.647 0 0 0-.46.19L4.19 5.017a.656.656 0 0 0-.19.461v10.271c0 .139.128.252.284.252h10.433c.156 0 .283-.113.283-.25V2.25c0-.138-.127-.25-.283-.25h-7.24zM6.75 6H5a.5.5 0 0 1 0-1h1.75A.25.25 0 0 0 7 4.75V3a.5.5 0 0 1 1 0v1.75C8 5.439 7.439 6 6.75 6z"/>
    </defs>
    <g fill="none" fill-rule="evenodd">
        <mask id="b" fill="#fff">
            <use xlink:href="#a"/>
        </mask>
        <g fill="#1875F0" mask="url(#b)">
            <rect width="18" height="18" rx="4"/>
        </g>
    </g>
</svg>
