<?xml version="1.0" encoding="utf-8"?>
<!-- Generator: Adobe Illustrator 21.1.0, SVG Export Plug-In . SVG Version: 6.00 Build 0)  -->
<svg version="1.1" xmlns="http://www.w3.org/2000/svg" xmlns:xlink="http://www.w3.org/1999/xlink" x="0px" y="0px"
	 viewBox="0 0 30 30" style="enable-background:new 0 0 30 30;" xml:space="preserve">
<style type="text/css">
	.st0{display:none;}
	.st1{display:inline;}
	.st2{clip-path:url(#SVGID_2_);}
	.st3{clip-path:url(#SVGID_4_);fill:#868686;}
	.st4{clip-path:url(#SVGID_6_);}
	.st5{clip-path:url(#SVGID_8_);fill:#868686;}
	.st6{clip-path:url(#SVGID_10_);}
	.st7{clip-path:url(#SVGID_12_);fill:#868686;}
	.st8{clip-path:url(#SVGID_14_);}
	.st9{clip-path:url(#SVGID_16_);fill:#868686;}
	.st10{display:inline;fill:#868686;}
	.st11{clip-path:url(#SVGID_20_);}
	.st12{clip-path:url(#SVGID_22_);fill:#868686;}
	.st13{clip-path:url(#SVGID_24_);}
	.st14{clip-path:url(#SVGID_26_);fill:#868686;}
	.st15{clip-path:url(#SVGID_28_);}
	.st16{clip-path:url(#SVGID_30_);fill:#868686;}
	.st17{fill:#868686;}
</style>
<g id="圖層_1" class="st0">
	<g class="st1">
		<defs>
			<path id="SVGID_1_" d="M4.2,4.2L4.2,4.2c0.4-0.4,1-0.4,1.4,0l2.1,2.1c0.4,0.4,0.4,1,0,1.4c-0.4,0.4-1,0.4-1.4,0L4.2,5.6
				C3.8,5.3,3.8,4.6,4.2,4.2z"/>
		</defs>
		<use xlink:href="#SVGID_1_"  style="overflow:visible;fill:#868686;"/>
		<clipPath id="SVGID_2_">
			<use xlink:href="#SVGID_1_"  style="overflow:visible;"/>
		</clipPath>
		<g class="st2">
			<defs>
				<rect id="SVGID_3_" x="0.4" y="0.3" width="15" height="15"/>
			</defs>
			<use xlink:href="#SVGID_3_"  style="overflow:visible;fill:#868686;"/>
			<clipPath id="SVGID_4_">
				<use xlink:href="#SVGID_3_"  style="overflow:visible;"/>
			</clipPath>
			<rect x="0" y="-1.5" transform="matrix(0.7071 -0.7071 0.7071 0.7071 -2.4853 6)" class="st3" width="12" height="15"/>
		</g>
	</g>
	<g class="st1">
		<defs>
			<path id="SVGID_5_" d="M13,1L13,1c0.6,0,1,0.4,1,1v2.4c0,0.6-0.4,1-1,1c-0.6,0-1-0.4-1-1V2C12,1.4,12.4,1,13,1z"/>
		</defs>
		<use xlink:href="#SVGID_5_"  style="overflow:visible;fill:#868686;"/>
		<clipPath id="SVGID_6_">
			<use xlink:href="#SVGID_5_"  style="overflow:visible;"/>
		</clipPath>
		<g class="st4">
			<defs>
				<rect id="SVGID_7_" x="-0.2" y="1" width="15" height="15"/>
			</defs>
			<use xlink:href="#SVGID_7_"  style="overflow:visible;fill:#868686;"/>
			<clipPath id="SVGID_8_">
				<use xlink:href="#SVGID_7_"  style="overflow:visible;"/>
			</clipPath>
			<rect x="7" y="-4" class="st5" width="12" height="14.4"/>
		</g>
	</g>
	<g class="st1">
		<defs>
			<path id="SVGID_9_" d="M1,13L1,13c0-0.6,0.4-1,1-1h2.3c0.6,0,1,0.4,1,1c0,0.6-0.4,1-1,1H2C1.4,14,1,13.6,1,13z"/>
		</defs>
		<use xlink:href="#SVGID_9_"  style="overflow:visible;fill:#868686;"/>
		<clipPath id="SVGID_10_">
			<use xlink:href="#SVGID_9_"  style="overflow:visible;"/>
		</clipPath>
		<g class="st6">
			<defs>
				<rect id="SVGID_11_" x="1" y="-0.3" width="15" height="15"/>
			</defs>
			<use xlink:href="#SVGID_11_"  style="overflow:visible;fill:#868686;"/>
			<clipPath id="SVGID_12_">
				<use xlink:href="#SVGID_11_"  style="overflow:visible;"/>
			</clipPath>
			<rect x="-4" y="7" class="st7" width="14.3" height="12"/>
		</g>
	</g>
	<g class="st1">
		<defs>
			<path id="SVGID_13_" d="M22.3,22.9c0.4-0.4,0.9-0.4,1.3,0c0.4,0.3,0.4,1,0,1.3c-0.4,0.4-0.9,0.4-1.3,0
				C21.9,23.9,22,23.3,22.3,22.9z M14.2,12.2c1.2-0.5,2.7-0.6,3.9,0.1c1.2,0.6,2.2,2,2.4,3.3c0.2,1.2-0.2,2.5-0.8,3.4
				c0.6,0.6,1,1,1.6,1.6c0.3,0.3,0.3,0.8-0.1,1.2c-0.4,0.4-0.8,0.4-1.1,0.1c-0.1-0.1-0.2-0.2-0.3-0.3c-0.7-0.6-1.3-1.3-2-1.9
				c-0.3-0.3-0.4-0.8-0.1-1.2c0.3-0.4,0.5-0.7,0.6-1.1c0.3-0.6,0.3-1.2,0.2-1.7c-0.2-0.6-0.4-1-0.8-1.4c-0.5-0.4-0.8-0.6-1.6-0.7
				c-1,0-1.5,0.4-2.1,1c-0.5,0.6-0.6,1.1-0.7,1.5c0,0.5,0,0.7,0.2,1.2c0.3,0.6,0.4,0.8,0.7,1.1c0.4,0.4,0.2,0.9-0.1,1.2
				c-0.2,0.3-0.8,0.5-1.2,0.1c-1.3-1.2-1.7-2.7-1.4-4.2C11.8,14.1,13,12.7,14.2,12.2z"/>
		</defs>
		<use xlink:href="#SVGID_13_"  style="overflow:visible;fill:#868686;"/>
		<clipPath id="SVGID_14_">
			<use xlink:href="#SVGID_13_"  style="overflow:visible;"/>
		</clipPath>
		<g class="st8">
			<defs>
				<rect id="SVGID_15_" x="8.9" y="11.7" width="13.7" height="14.2"/>
			</defs>
			<use xlink:href="#SVGID_15_"  style="overflow:visible;fill:#868686;"/>
			<clipPath id="SVGID_16_">
				<use xlink:href="#SVGID_15_"  style="overflow:visible;"/>
			</clipPath>
			<polygon class="st9" points="30.2,10.7 26.1,31.1 2.2,26.6 6.3,6.1 			"/>
		</g>
	</g>
	<g class="st1">
		<defs>
			<rect id="SVGID_17_" x="5" y="5" width="24" height="24"/>
		</defs>
		<clipPath id="SVGID_18_">
			<use xlink:href="#SVGID_17_"  style="overflow:visible;"/>
		</clipPath>
	</g>
	<path class="st10" d="M28,23.4c-0.1-0.3-0.7-1.1-0.8-1.4c-0.7-1.2-0.8-1.6-0.7-2c1-3.7-0.1-7.7-2.8-10.3c-2-1.9-4.5-2.9-7.2-2.8
		c-2.7,0.1-5.1,1.3-7,3.3c-3.8,4.1-3.5,10.7,0.5,14.5c2.8,2.7,6.7,3.5,10.2,2.1c0.3-0.1,0.7-0.1,1.9,0.5c0.3,0.2,0.7,0.4,1.4,0.7
		c0.9,0.4,1.8,0.8,2.6,0.8c0.7,0,1.4-0.2,1.9-0.9C29.6,26.7,28.9,24.9,28,23.4z M27,26.9c-0.2,0.2-0.6,0.6-2.5-0.3
		c-0.3-0.1-1.2-0.6-1.3-0.7l-0.3,0.6l0.3-0.6c-0.1,0-0.1-0.1-0.2-0.1l-0.3-0.1l0,0c-1-0.5-1.9-0.8-2.9-0.4c-2.9,1.1-6.1,0.4-8.4-1.8
		c-3.3-3.2-3.5-8.5-0.4-11.9c3.1-3.4,8.3-3.6,11.6-0.4c2.3,2.2,3.1,5.4,2.3,8.4c-0.3,0.9,0,1.8,0.4,2.6l0,0l0.5,0.8
		c0.1,0.2,0.6,1,0.7,1.3C27.5,26.2,27.2,26.6,27,26.9z"/>
</g>
<g id="圖層_2">
	<g>
		<defs>
			<path id="SVGID_19_" d="M4.2,4.2L4.2,4.2c0.4-0.4,1-0.4,1.4,0l2.1,2.1c0.4,0.4,0.4,1,0,1.4c-0.4,0.4-1,0.4-1.4,0L4.2,5.6
				C3.8,5.3,3.8,4.6,4.2,4.2z"/>
		</defs>
		<use xlink:href="#SVGID_19_"  style="overflow:visible;fill:#868686;"/>
		<clipPath id="SVGID_20_">
			<use xlink:href="#SVGID_19_"  style="overflow:visible;"/>
		</clipPath>
		<g class="st11">
			<defs>
				<rect id="SVGID_21_" x="0.4" y="0.3" width="15" height="15"/>
			</defs>
			<use xlink:href="#SVGID_21_"  style="overflow:visible;fill:#868686;"/>
			<clipPath id="SVGID_22_">
				<use xlink:href="#SVGID_21_"  style="overflow:visible;"/>
			</clipPath>
			<rect x="0" y="-1.5" transform="matrix(0.7071 -0.7071 0.7071 0.7071 -2.4853 6)" class="st12" width="12" height="15"/>
		</g>
	</g>
	<g>
		<defs>
			<path id="SVGID_23_" d="M13,1L13,1c0.6,0,1,0.4,1,1v2.4c0,0.6-0.4,1-1,1c-0.6,0-1-0.4-1-1V2C12,1.4,12.4,1,13,1z"/>
		</defs>
		<use xlink:href="#SVGID_23_"  style="overflow:visible;fill:#868686;"/>
		<clipPath id="SVGID_24_">
			<use xlink:href="#SVGID_23_"  style="overflow:visible;"/>
		</clipPath>
		<g class="st13">
			<defs>
				<rect id="SVGID_25_" x="-0.2" y="1" width="15" height="15"/>
			</defs>
			<use xlink:href="#SVGID_25_"  style="overflow:visible;fill:#868686;"/>
			<clipPath id="SVGID_26_">
				<use xlink:href="#SVGID_25_"  style="overflow:visible;"/>
			</clipPath>
			<rect x="7" y="-4" class="st14" width="12" height="14.4"/>
		</g>
	</g>
	<g>
		<defs>
			<path id="SVGID_27_" d="M1,13L1,13c0-0.6,0.4-1,1-1h2.3c0.6,0,1,0.4,1,1c0,0.6-0.4,1-1,1H2C1.4,14,1,13.6,1,13z"/>
		</defs>
		<use xlink:href="#SVGID_27_"  style="overflow:visible;fill:#868686;"/>
		<clipPath id="SVGID_28_">
			<use xlink:href="#SVGID_27_"  style="overflow:visible;"/>
		</clipPath>
		<g class="st15">
			<defs>
				<rect id="SVGID_29_" x="1" y="-0.3" width="15" height="15"/>
			</defs>
			<use xlink:href="#SVGID_29_"  style="overflow:visible;fill:#868686;"/>
			<clipPath id="SVGID_30_">
				<use xlink:href="#SVGID_29_"  style="overflow:visible;"/>
			</clipPath>
			<rect x="-4" y="7" class="st16" width="14.3" height="12"/>
		</g>
	</g>
	<g>
		<defs>
			<rect id="SVGID_31_" x="5" y="5" width="24" height="24"/>
		</defs>
		<clipPath id="SVGID_32_">
			<use xlink:href="#SVGID_31_"  style="overflow:visible;"/>
		</clipPath>
	</g>
	<path class="st17" d="M28,23.4c-0.1-0.3-0.7-1.1-0.8-1.4c-0.7-1.2-0.8-1.6-0.7-2c1-3.7-0.1-7.7-2.8-10.3c-2-1.9-4.5-2.9-7.2-2.8
		c-2.7,0.1-5.1,1.3-7,3.3c-3.8,4.1-3.5,10.7,0.5,14.5c2.8,2.7,6.7,3.5,10.2,2.1c0.3-0.1,0.7-0.1,1.9,0.5c0.3,0.2,0.7,0.4,1.4,0.7
		c0.9,0.4,1.8,0.8,2.6,0.8c0.7,0,1.4-0.2,1.9-0.9C29.6,26.7,28.9,24.9,28,23.4z M21.2,21.8c-0.4,0.4-0.8,0.4-1.1,0.1
		c-0.1-0.1-0.2-0.2-0.3-0.3c-0.7-0.6-1.3-1.3-2-1.9c-0.3-0.3-0.4-0.8-0.1-1.2c0.3-0.4,0.5-0.7,0.6-1.1c0.3-0.6,0.3-1.2,0.2-1.7
		c-0.2-0.6-0.4-1-0.8-1.4c-0.5-0.4-0.8-0.6-1.6-0.7c-1,0-1.5,0.4-2.1,1c-0.5,0.6-0.6,1.1-0.7,1.5c0,0.5,0,0.7,0.2,1.2
		c0.3,0.6,0.4,0.8,0.7,1.1c0.4,0.4,0.2,0.9-0.1,1.2c-0.2,0.3-0.8,0.5-1.2,0.1c-1.3-1.2-1.7-2.7-1.4-4.2c0.3-1.4,1.5-2.8,2.7-3.4
		c1.2-0.5,2.7-0.6,3.9,0.1c1.2,0.6,2.2,2,2.4,3.3c0.2,1.2-0.2,2.5-0.8,3.4c0.6,0.6,1,1,1.6,1.6C21.6,20.9,21.6,21.4,21.2,21.8z
		 M23.6,24.2c-0.4,0.4-0.9,0.4-1.3,0c-0.4-0.3-0.4-1,0-1.3c0.4-0.4,0.9-0.4,1.3,0C24,23.2,23.9,23.8,23.6,24.2z"/>
</g>
</svg>
