<?xml version="1.0" encoding="utf-8"?>
<!-- Generator: Adobe Illustrator 21.1.0, SVG Export Plug-In . SVG Version: 6.00 Build 0)  -->
<svg version="1.1" id="圖層_1" xmlns="http://www.w3.org/2000/svg" xmlns:xlink="http://www.w3.org/1999/xlink" x="0px" y="0px"
	 viewBox="0 0 30 30" style="enable-background:new 0 0 30 30;" xml:space="preserve">
<style type="text/css">
	.st0{fill:#868686;}
</style>
<g id="Symbols">
	<g id="标准问题1">
		<g id="标准问题off">
			<path id="Combined-Shape" class="st0" d="M18.4,25.3c-2,2.5-3.1,3.7-3.4,3.7s-1.5-1.2-3.6-3.7H3c-1.1,0-2-0.9-2-2V3
				c0-1.1,0.9-2,2-2h23.9c1.1,0,2,0.9,2,2L29,23.3c0,1.1-0.9,2-2,2H18.4z M18.3,19.9l1.3,1c0.5,0.4,1.2,0.3,1.7-0.2
				c0,0,0.1-0.1,0.1-0.1c0.3-0.5,0.2-1.1-0.2-1.4l-1.4-1c0.2-0.4,0.4-0.9,0.5-1.6c0.1-0.7,0.1-1.9,0.1-3.5c0-1.9-0.1-3.2-0.2-3.8
				c-0.1-0.6-0.3-1.2-0.6-1.6c-0.4-0.8-1.1-1.4-2-2c-0.9-0.6-2.1-0.9-3.4-0.9c-1.4,0-2.5,0.3-3.4,0.9c-0.9,0.6-1.6,1.3-2,2
				C8.5,8.1,8.3,8.6,8.2,9.2C8.1,9.9,8,11.1,8,13c0,1.9,0.1,3.1,0.2,3.8c0.1,0.4,0.1,0.6,0.2,0.9c0.1,0.2,0.2,0.5,0.3,0.7
				c0.4,0.8,1.1,1.4,2,2c0.9,0.6,2,0.9,3.4,0.9C15.9,21.3,17.2,20.8,18.3,19.9z"/>
			<path id="Q" class="st0" d="M16.1,18.3l-1.3-1l0,0c-0.4-0.3-0.5-0.9-0.2-1.4c0,0,0.1-0.1,0.1-0.1l0,0l0,0
				c0.4-0.5,1.2-0.6,1.7-0.2l1.1,0.8c0.2-0.6,0.2-1.7,0.2-3.4c0-1.6-0.1-2.7-0.2-3.3c-0.1-0.6-0.4-1-0.7-1.4c-0.3-0.3-0.6-0.6-1-0.8
				c-0.5-0.2-1-0.3-1.6-0.3c-0.6,0-1.1,0.1-1.6,0.3c-0.5,0.2-0.8,0.5-1.1,0.8c-0.3,0.4-0.6,0.8-0.7,1.4c-0.1,0.6-0.2,1.7-0.2,3.3
				s0.1,2.7,0.2,3.3c0.1,0.6,0.3,1,0.7,1.4c0.3,0.3,0.6,0.6,1.1,0.8c0.4,0.2,1,0.4,1.6,0.4C15,18.8,15.6,18.6,16.1,18.3z"/>
		</g>
	</g>
</g>
</svg>
