<?xml version="1.0" encoding="UTF-8"?>
<svg width="18px" height="18px" viewBox="0 0 18 18" version="1.1" xmlns="http://www.w3.org/2000/svg" xmlns:xlink="http://www.w3.org/1999/xlink">
    <!-- Generator: Sketch 50.2 (55047) - http://www.bohemiancoding.com/sketch -->
    <title>delete</title>
    <desc>Created with Sketch.</desc>
    <defs></defs>
    <g id="Page-1" stroke="none" stroke-width="1" fill="none" fill-rule="evenodd">
        <path d="M8.423077,2.65384616 L8.423077,2.07692309 L9.576923,2.07692309 L9.576923,2.65384616 L14.769231,2.65384616 L14.769231,3.80769232 L3.230769,3.80769232 L3.230769,2.65384616 L8.423077,2.65384616 Z M13.038461,14.7692308 L13.038461,4.96153847 L14.192307,4.96153847 L14.192307,15.3461538 C14.192307,15.6647797 13.93401,15.9230769 13.615384,15.9230769 L4.384615,15.9230769 C4.065989,15.9230769 3.807692,15.6647797 3.807692,15.3461538 L3.807692,4.96153847 L4.961538,4.96153847 L4.961538,14.7692308 L13.038461,14.7692308 Z M11.884615,11.8846154 L10.730769,11.8846154 L10.730769,7.26923081 L11.884615,7.26923081 L11.884615,11.8846154 Z M9.576923,11.8846154 L8.423077,11.8846154 L8.423077,7.26923081 L9.576923,7.26923081 L9.576923,11.8846154 Z M7.269231,11.8846154 L6.115384,11.8846154 L6.115384,7.26923081 L7.269231,7.26923081 L7.269231,11.8846154 Z" id="delete" fill="#888888" fill-rule="nonzero"></path>
    </g>
</svg>