<svg xmlns="http://www.w3.org/2000/svg" xmlns:xlink="http://www.w3.org/1999/xlink" width="18" height="18" viewBox="0 0 18 18">
    <defs>
        <path id="a" d="M9 1c.168 0 .335.067.463.2l2.946 3.073a.703.703 0 0 1 0 .964.636.636 0 0 1-.923 0l-1.832-1.91v8.39c0 .377-.293.683-.654.683-.361 0-.654-.306-.654-.682V3.326l-1.832 1.91a.633.633 0 0 1-.922 0 .705.705 0 0 1-.002-.963l2.947-3.074A.64.64 0 0 1 9 1zm8.305 7.802c.384 0 .695.35.695.777v5.022c0 .77-.558 1.399-1.248 1.399H1.248C.56 16 0 15.374 0 14.601V9.579C0 9.151.31 8.8.693 8.8c.384 0 .695.35.695.78v4.404c0 .257.187.464.414.464h14.394c.229 0 .414-.21.414-.464V9.582c0-.43.311-.78.695-.78z"/>
    </defs>
    <g fill="none" fill-rule="evenodd" transform="translate(0 1)">
        <mask id="b" fill="#fff">
            <use xlink:href="#a"/>
        </mask>
        <use fill="#FFF" xlink:href="#a"/>
        <g fill="#65748D" mask="url(#b)">
            <rect width="18" height="18" rx="4"/>
        </g>
    </g>
</svg>
