<?xml version="1.0" encoding="utf-8"?>
<!-- Generator: Adobe Illustrator 21.1.0, SVG Export Plug-In . SVG Version: 6.00 Build 0)  -->
<svg version="1.1" xmlns="http://www.w3.org/2000/svg" xmlns:xlink="http://www.w3.org/1999/xlink" x="0px" y="0px"
	 viewBox="0 0 30 30" style="enable-background:new 0 0 30 30;" xml:space="preserve">
<style type="text/css">
	.st0{display:none;}
	.st1{display:inline;fill:#868686;}
	.st2{display:inline;fill:#FFFFFF;}
	.st3{fill:#FFFFFF;}
</style>
<g id="圖層_1" class="st0">
	<circle class="st1" cx="15" cy="15" r="10"/>
	<circle class="st2" cx="15" cy="15" r="4"/>
	<polygon class="st1" points="19,10 11,10 12,1 18,1 	"/>
	<polygon class="st1" points="12.7,9 8.7,16 1.4,10.6 4.4,5.4 	"/>
	<polygon class="st1" points="8.7,14 12.7,21 4.4,24.6 1.4,19.4 	"/>
	<polygon class="st1" points="11,20 19,20 18,29 12,29 	"/>
	<polygon class="st1" points="17.3,21 21.3,14 28.6,19.4 25.6,24.6 	"/>
	<polygon class="st1" points="21.3,16 17.3,9 25.6,5.4 28.6,10.6 	"/>
</g>
<g id="圖層_2">
	<path class="st3" d="M25,15c0-0.6-0.1-1.1-0.1-1.6l3.8-2.8l-3-5.2l-4.3,1.9c-0.8-0.7-1.8-1.2-2.8-1.6L18,1h-6l-0.5,4.6
		c-1,0.4-2,0.9-2.8,1.6L4.4,5.4l-3,5.2l3.8,2.8C5.1,13.9,5,14.4,5,15s0.1,1.1,0.1,1.6l-3.8,2.8l3,5.2l4.3-1.9
		c0.8,0.7,1.8,1.2,2.8,1.6L12,29h6l0.5-4.6c1-0.4,2-0.9,2.8-1.6l4.3,1.9l3-5.2l-3.8-2.8C24.9,16.1,25,15.6,25,15z M15,19
		c-2.2,0-4-1.8-4-4c0-2.2,1.8-4,4-4s4,1.8,4,4C19,17.2,17.2,19,15,19z"/>
</g>
</svg>
