<?xml version="1.0" encoding="utf-8"?>
<!-- Generator: Adobe Illustrator 21.1.0, SVG Export Plug-In . SVG Version: 6.00 Build 0)  -->
<svg version="1.1" xmlns="http://www.w3.org/2000/svg" xmlns:xlink="http://www.w3.org/1999/xlink" x="0px" y="0px"
	 viewBox="0 0 30 30" style="enable-background:new 0 0 30 30;" xml:space="preserve">
<style type="text/css">
	.st0{display:none;}
	.st1{display:inline;fill:#868686;}
	.st2{display:inline;}
	.st3{fill:#868686;}
	.st4{fill:#FFFFFF;}
</style>
<g id="圖層_1" class="st0">
	<path class="st1" d="M17.5,26.5H2.3c-0.7,0-1.3-0.6-1.3-1.2V15C1,8.7,6.1,3.5,12.5,3.5h5.1C23.9,3.5,29,8.7,29,15
		S23.9,26.5,17.5,26.5z M2.9,24.7h14.7c5.3,0,9.6-4.3,9.6-9.7c0-5.3-4.3-9.7-9.6-9.7h-5.1c-5.3,0-9.6,4.3-9.6,9.7V24.7z"/>
	<g class="st2">
		<ellipse id="Oval-3" class="st3" cx="8.4" cy="15" rx="2.3" ry="2.3"/>
		<ellipse id="Oval-3_1_" class="st3" cx="15" cy="15" rx="2.3" ry="2.3"/>
		<ellipse id="Oval-3_2_" class="st3" cx="21.6" cy="15" rx="2.3" ry="2.3"/>
	</g>
</g>
<g id="圖層_2">
	<path class="st4" d="M17.5,3.5h-5.1C6.1,3.5,1,8.7,1,15v10.3c0,0.7,0.6,1.2,1.3,1.2h15.3C23.9,26.5,29,21.3,29,15
		S23.9,3.5,17.5,3.5z M8.4,17.3c-1.3,0-2.3-1-2.3-2.3s1-2.3,2.3-2.3s2.3,1,2.3,2.3S9.6,17.3,8.4,17.3z M15,17.3
		c-1.3,0-2.3-1-2.3-2.3s1-2.3,2.3-2.3s2.3,1,2.3,2.3S16.3,17.3,15,17.3z M21.6,17.3c-1.3,0-2.3-1-2.3-2.3s1-2.3,2.3-2.3
		s2.3,1,2.3,2.3S22.9,17.3,21.6,17.3z"/>
</g>
</svg>
