<?xml version="1.0" encoding="utf-8"?>
<!-- Generator: Adobe Illustrator 21.1.0, SVG Export Plug-In . SVG Version: 6.00 Build 0)  -->
<svg version="1.1" id="圖層_1" xmlns="http://www.w3.org/2000/svg" xmlns:xlink="http://www.w3.org/1999/xlink" x="0px" y="0px"
	 viewBox="0 0 30 30" style="enable-background:new 0 0 30 30;" xml:space="preserve">
<style type="text/css">
	.st0{display:none;}
	.st1{display:inline;}
	.st2{fill:#868686;}
	.st3{display:inline;fill:#868686;}
	.st4{display:inline;fill:#FFFFFF;}
	.st5{fill:#FFFFFF;}
</style>
<g id="圖層_1_2_" class="st0">
	<g id="圖層_1_1_" class="st1">
		<circle class="st2" cx="10" cy="7" r="5"/>
		<path class="st2" d="M9.5,11C4.8,11,1,16.4,1,23v5h17v-5C18,16.4,14.2,11,9.5,11z"/>
	</g>
	<circle class="st3" cx="15" cy="8.5" r="7.5"/>
	<path class="st3" d="M15,16c-7.7,0-14,4-14,8.9v3.7h28v-3.7C29,20,22.7,16,15,16z"/>
</g>
<g id="圖層_2" class="st0">
	<path class="st4" d="M15,13.1c-7.7,0-14,5-14,11.3v4.7h28v-4.7C29,18.1,22.7,13.1,15,13.1z"/>
	<circle class="st4" cx="15" cy="9.4" r="8.5"/>
	<circle class="st3" cx="15" cy="9.4" r="6.5"/>
	<path class="st3" d="M15,15.1c-6.6,0-12,3.8-12,8.4v3.6h24v-3.6C27,18.9,21.6,15.1,15,15.1z"/>
</g>
<g id="圖層_3" class="st0">
	<path class="st3" d="M13.7,13.5c2.2-1,3.7-3.3,3.7-5.9c0-3.6-2.9-6.5-6.5-6.5S4.4,4,4.4,7.6c0,2.6,1.5,4.8,3.7,5.9
		c-5.3,0.9-9.2,4.2-9.2,8.2v3.6h24v-3.6C22.9,17.7,19,14.4,13.7,13.5z"/>
	<path class="st4" d="M26.7,19.4c1.1-1.4,1.7-3.2,1.7-5.1c0-4.7-3.8-8.5-8.5-8.5s-8.5,3.8-8.5,8.5c0,1.9,0.6,3.7,1.7,5.1
		c-4.3,1.9-7.2,5.6-7.2,9.8v4.7h28v-4.7C33.9,25,31,21.3,26.7,19.4z"/>
	<path class="st3" d="M22.6,20.2c2.2-1,3.7-3.3,3.7-5.9c0-3.6-2.9-6.5-6.5-6.5s-6.5,2.9-6.5,6.5c0,2.6,1.5,4.8,3.7,5.9
		c-5.3,0.9-9.2,4.2-9.2,8.2V32h24v-3.6C31.9,24.4,27.9,21.1,22.6,20.2z"/>
</g>
<g id="圖層_4">
	<path class="st5" d="M12.1,18.4c-1.1-1.4-1.7-3.2-1.7-5.1c0-3.8,2.5-7,5.9-8.1C15.6,2.3,13,0.1,9.9,0.1C6.3,0.1,3.4,3,3.4,6.6
		c0,2.6,1.5,4.8,3.7,5.9c-5.3,0.9-9.2,4.2-9.2,8.2v3.6h7.8C6.9,21.8,9.2,19.7,12.1,18.4z"/>
	<path class="st5" d="M21.6,19.2c2.2-1,3.7-3.3,3.7-5.9c0-3.6-2.9-6.5-6.5-6.5s-6.5,2.9-6.5,6.5c0,2.6,1.5,4.8,3.7,5.9
		c-5.3,0.9-9.2,4.2-9.2,8.2V31h24v-3.6C30.9,23.4,26.9,20.1,21.6,19.2z"/>
</g>
</svg>
