<?xml version="1.0" encoding="utf-8"?>
<!-- Generator: Adobe Illustrator 21.1.0, SVG Export Plug-In . SVG Version: 6.00 Build 0)  -->
<svg version="1.1" id="圖層_1" xmlns="http://www.w3.org/2000/svg" xmlns:xlink="http://www.w3.org/1999/xlink" x="0px" y="0px"
	 viewBox="0 0 30 30" style="enable-background:new 0 0 30 30;" xml:space="preserve">
<style type="text/css">
	.st0{fill:#FFFFFF;}
</style>
<circle class="st0" cx="14" cy="19" r="0"/>
<path class="st0" d="M15,1C8.9,1,4,6,4,12.2c0,0.2,0,0.4,0,0.6v0.1v12.2C4,27.2,5.7,29,7.8,29h14.3c2.1,0,3.8-1.8,3.8-3.9V12.2
	C26,6,21.1,1,15,1z M16.1,20.8L17,26h-4l0.9-5.2C12.8,20.4,12,19.3,12,18c0-1.7,1.3-3,3-3s3,1.3,3,3C18,19.3,17.2,20.4,16.1,20.8z
	 M7.3,12.2c0-4.3,3.4-7.8,7.7-7.8s7.7,3.5,7.7,7.8H7.3z"/>
</svg>
