<?xml version="1.0" encoding="utf-8"?>
<!-- Generator: Adobe Illustrator 21.1.0, SVG Export Plug-In . SVG Version: 6.00 Build 0)  -->
<svg version="1.1" xmlns="http://www.w3.org/2000/svg" xmlns:xlink="http://www.w3.org/1999/xlink" x="0px" y="0px"
	 viewBox="0 0 30 30" style="enable-background:new 0 0 30 30;" xml:space="preserve">
<style type="text/css">
	.st0{fill:#FFFFFF;}
</style>
<g id="圖層_1">
	<g>
		<path class="st0" d="M27.8,28.9c0.5-0.2,0.9-0.6,1.1-1.1C28.5,28.2,28.2,28.6,27.8,28.9z"/>
		<path class="st0" d="M2.8,1C1.8,1,1,1.8,1,2.9v24.3c0,1,0.8,1.9,1.8,1.9h4.4V1H2.8z"/>
		<path class="st0" d="M13,22c0-1.3,0.3-2.5,0.7-3.6c-0.3-0.3-0.5-0.6-0.5-1.1c0-0.8,0.6-1.4,1.3-1.4h0.8c1.3-1.5,3.1-2.5,5.1-2.8
			h-5.9c-0.7,0-1.3-0.6-1.3-1.4s0.6-1.4,1.3-1.4h9.6c0.7,0,1.3,0.6,1.3,1.4s-0.6,1.4-1.3,1.4h-0.7c2.2,0.4,4.2,1.5,5.5,3.2V2.9
			c0-1-0.8-1.9-1.8-1.9H9.8v28h6.6C14.3,27.4,13,24.8,13,22z M14.6,4.7h9.6c0.7,0,1.3,0.6,1.3,1.4s-0.6,1.4-1.3,1.4h-9.6
			c-0.7,0-1.3-0.6-1.3-1.4S13.8,4.7,14.6,4.7z"/>
	</g>
</g>
<g id="圖層_2">
	<polygon class="st0" points="22.5,13.5 15,21 20,21 20,29 25,29 25,21 30,21 	"/>
</g>
</svg>
