<?xml version="1.0" encoding="utf-8"?>
<!-- Generator: Adobe Illustrator 21.1.0, SVG Export Plug-In . SVG Version: 6.00 Build 0)  -->
<svg version="1.1" id="圖層_1" xmlns="http://www.w3.org/2000/svg" xmlns:xlink="http://www.w3.org/1999/xlink" x="0px" y="0px"
	 viewBox="0 0 30 30" style="enable-background:new 0 0 30 30;" xml:space="preserve">
<style type="text/css">
	.st0{fill:#FFFFFF;}
	.st1{fill:none;stroke:#FFFFFF;stroke-miterlimit:10;}
</style>
<path class="st0" d="M19.7,12.2h-9.3c-1.5,0-2.6,1.2-2.6,2.6v6.7c0,1.5,1.2,2.6,2.6,2.6h9.3c1.5,0,2.6-1.2,2.6-2.6v-6.7
	C22.3,13.4,21.1,12.2,19.7,12.2z M13.8,18.9c0,0.2-0.2,0.4-0.4,0.4h-1.5c-0.2,0-0.4-0.2-0.4-0.4v-1.4c0-0.2,0.2-0.4,0.4-0.4h1.5
	c0.2,0,0.4,0.2,0.4,0.4V18.9z M18.5,18.9c0,0.2-0.2,0.4-0.4,0.4h-1.5c-0.2,0-0.4-0.2-0.4-0.4v-1.4c0-0.2,0.2-0.4,0.4-0.4h1.5
	c0.2,0,0.4,0.2,0.4,0.4V18.9z"/>
<path id="Rectangle-23" class="st0" d="M4.8,14.7L4.8,14.7c0.5,0,0.9,0.4,0.9,0.9v5.1c0,0.5-0.4,0.9-0.9,0.9l0,0
	c-0.5,0-0.9-0.4-0.9-0.9v-5.1C3.9,15.1,4.3,14.7,4.8,14.7z"/>
<path id="Rectangle-23_1_" class="st0" d="M25.2,14.7L25.2,14.7c0.5,0,0.9,0.4,0.9,0.9v5.1c0,0.5-0.4,0.9-0.9,0.9l0,0
	c-0.5,0-0.9-0.4-0.9-0.9v-5.1C24.3,15.1,24.7,14.7,25.2,14.7z"/>
<path id="Rectangle-23_2_" class="st0" d="M1.9,15.9L1.9,15.9c0.5,0,0.9,0.4,0.9,0.9v2.8c0,0.5-0.4,0.9-0.9,0.9l0,0
	C1.4,20.4,1,20,1,19.6v-2.8C1,16.3,1.4,15.9,1.9,15.9z"/>
<path id="Rectangle-23_3_" class="st0" d="M28.1,15.9L28.1,15.9c0.5,0,0.9,0.4,0.9,0.9v2.8c0,0.5-0.4,0.9-0.9,0.9l0,0
	c-0.5,0-0.9-0.4-0.9-0.9v-2.8C27.2,16.3,27.6,15.9,28.1,15.9z"/>
<rect id="Rectangle-25" x="14.4" y="7.9" class="st0" width="1.8" height="3.4"/>
<path id="Line" class="st1" d="M10.6,5.9c1.6,1.5,3.1,2.3,4.7,2.3s3.1-0.8,4.7-2.3"/>
</svg>
