<?xml version="1.0" encoding="utf-8"?>
<!-- Generator: Adobe Illustrator 21.1.0, SVG Export Plug-In . SVG Version: 6.00 Build 0)  -->
<svg version="1.1" id="圖層_1" xmlns="http://www.w3.org/2000/svg" xmlns:xlink="http://www.w3.org/1999/xlink" x="0px" y="0px"
	 viewBox="0 0 30 30" style="enable-background:new 0 0 30 30;" xml:space="preserve">
<style type="text/css">
	.st0{fill:#FFFFFF;}
</style>
<g>
	<path class="st0" d="M13,23.9l-0.8,0.8c-0.6,0.6-1.5,0.6-2.1,0l-8.6-8.6c-0.6-0.6-0.6-1.5,0-2.1l0.8-0.8c0.6-0.6,1.5-0.6,2.1,0
		l8.6,8.6C13.5,22.3,13.5,23.3,13,23.9z"/>
</g>
<g>
	<path class="st0" d="M27.8,5.3l0.8,0.8c0.6,0.6,0.6,1.5,0,2.1L12.2,24.7c-0.6,0.6-1.5,0.6-2.1,0l-0.8-0.8c-0.6-0.6-0.6-1.5,0-2.1
		L25.7,5.3C26.2,4.7,27.2,4.7,27.8,5.3z"/>
</g>
</svg>
