<?xml version="1.0" encoding="utf-8"?>
<!-- Generator: Adobe Illustrator 21.1.0, SVG Export Plug-In . SVG Version: 6.00 Build 0)  -->
<svg version="1.1" id="圖層_1" xmlns="http://www.w3.org/2000/svg" xmlns:xlink="http://www.w3.org/1999/xlink" x="0px" y="0px"
	 viewBox="0 0 30 30" style="enable-background:new 0 0 30 30;" xml:space="preserve">
<style type="text/css">
	.st0{fill:#FFFFFF;}
</style>
<path class="st0" d="M19.5,10h-9c-1.1,0-2-0.9-2-2V3c0-1.1,0.9-2,2-2h9c1.1,0,2,0.9,2,2v5C21.5,9.1,20.6,10,19.5,10z"/>
<path class="st0" d="M12,28H3c-1.1,0-2-0.9-2-2v-5c0-1.1,0.9-2,2-2h9c1.1,0,2,0.9,2,2v5C14,27.1,13.1,28,12,28z"/>
<path class="st0" d="M27,28h-9c-1.1,0-2-0.9-2-2v-5c0-1.1,0.9-2,2-2h9c1.1,0,2,0.9,2,2v5C29,27.1,28.1,28,27,28z"/>
<rect x="6" y="14" class="st0" width="18" height="2"/>
<rect x="14" y="10" class="st0" width="2" height="4"/>
<rect x="22" y="16" class="st0" width="2" height="4"/>
<rect x="6" y="16" class="st0" width="2" height="4"/>
</svg>
