<?xml version="1.0" encoding="utf-8"?>
<!-- Generator: Adobe Illustrator 21.1.0, SVG Export Plug-In . SVG Version: 6.00 Build 0)  -->
<svg version="1.1" id="圖層_1" xmlns="http://www.w3.org/2000/svg" xmlns:xlink="http://www.w3.org/1999/xlink" x="0px" y="0px"
	 viewBox="0 0 30 30" style="enable-background:new 0 0 30 30;" xml:space="preserve">
<style type="text/css">
	.st0{fill:#FFFFFF;}
</style>
<path class="st0" d="M15,13.4c-2.1,0-3.8,1.7-3.8,3.8s1.7,3.8,3.8,3.8s3.8-1.7,3.8-3.8c0-0.3,0-0.6-0.1-0.8c2.7-3.2,7-8.2,9.3-11
	c0.8-1-0.1-1.9-1.1-1.1c-2.9,2.3-7.8,6.6-11,9.3C15.6,13.4,15.3,13.4,15,13.4z M16.1,6.4c0-0.6-0.5-1.1-1.1-1.1s-1.1,0.5-1.1,1.1
	s0.5,1.1,1.1,1.1S16.1,7,16.1,6.4z M22.5,15c0,0.6,0.5,1.1,1.1,1.1s1.1-0.5,1.1-1.1s-0.5-1.1-1.1-1.1S22.5,14.4,22.5,15z M10.7,6.4
	c-0.6,0-1.1,0.5-1.1,1.1s0.5,1.1,1.1,1.1s1.1-0.5,1.1-1.1S11.3,6.4,10.7,6.4z M8.5,10.7c0-0.6-0.5-1.1-1.1-1.1s-1.1,0.5-1.1,1.1
	s0.5,1.1,1.1,1.1S8.5,11.3,8.5,10.7z M5.3,15c0,0.6,0.5,1.1,1.1,1.1s1.1-0.5,1.1-1.1S7,13.9,6.4,13.9S5.3,14.4,5.3,15z M20.4,7.5
	c0-0.6-0.5-1.1-1.1-1.1s-1.1,0.5-1.1,1.1s0.5,1.1,1.1,1.1S20.4,8.1,20.4,7.5z M27.7,9.1l-2.3,3c0.3,0.9,0.4,1.9,0.4,2.9
	c0,5.9-4.8,10.8-10.8,10.8S4.2,20.9,4.2,15C4.2,9.1,9.1,4.2,15,4.2c2.2,0,4.3,0.7,6,1.8l2.7-2c-2.4-1.9-5.4-3-8.7-3
	C7.3,1,1,7.3,1,15s6.3,14,14,14s14-6.3,14-14C29,12.9,28.5,10.9,27.7,9.1z"/>
</svg>
