<?xml version="1.0" encoding="utf-8"?>
<!-- Generator: Adobe Illustrator 21.1.0, SVG Export Plug-In . SVG Version: 6.00 Build 0)  -->
<svg version="1.1" id="圖層_1" xmlns="http://www.w3.org/2000/svg" xmlns:xlink="http://www.w3.org/1999/xlink" x="0px" y="0px"
	 viewBox="0 0 30 30" style="enable-background:new 0 0 30 30;" xml:space="preserve">
<style type="text/css">
	.st0{fill:#FFFFFF;}
</style>
<g id="Symbols">
	<g id="词典1">
		<path id="词典off" class="st0" d="M2.8,1h24.5c1,0,1.8,0.8,1.8,1.9v24.3c0,1-0.8,1.9-1.8,1.9H2.8c-1,0-1.8-0.8-1.8-1.9V2.9l0,0
			C1,1.8,1.8,1,2.8,1L2.8,1z M7.1,1v28h2.6V1H7.1z M14.6,4.7c-0.7,0-1.3,0.6-1.3,1.4s0.6,1.4,1.3,1.4h9.6c0.7,0,1.3-0.6,1.3-1.4
			s-0.6-1.4-1.3-1.4H14.6z M14.6,10.3c-0.7,0-1.3,0.6-1.3,1.4c0,0.8,0.6,1.4,1.3,1.4h9.6c0.7,0,1.3-0.6,1.3-1.4
			c0-0.8-0.6-1.4-1.3-1.4H14.6z M14.6,15.9c-0.7,0-1.3,0.6-1.3,1.4c0,0.8,0.6,1.4,1.3,1.4h9.6c0.7,0,1.3-0.6,1.3-1.4
			c0-0.8-0.6-1.4-1.3-1.4H14.6z"/>
	</g>
</g>
</svg>
