<?xml version="1.0" encoding="UTF-8"?>
<svg width="18px" height="18px" viewBox="0 0 18 18" version="1.1" xmlns="http://www.w3.org/2000/svg" xmlns:xlink="http://www.w3.org/1999/xlink">
    <!-- Generator: sketchtool 50.2 (55047) - http://www.bohemiancoding.com/sketch -->
    <title>9C4C5C41-BD69-40AE-A84C-9D93E3ACF4B0</title>
    <desc>Created with sketchtool.</desc>
    <defs>
        <path d="M4.93551194,14.1711364 C4.83720035,14.2570456 4.71946918,14.3000002 4.60295174,14.3000002 C4.44759515,14.3000002 4.294666,14.2248296 4.18907207,14.0812002 C4.00579984,13.828842 4.04221154,13.4597009 4.27039154,13.2570089 L8.90074616,9.13739473 L4.29345228,5.04328483 C4.06527229,4.84059283 4.02886059,4.47145177 4.21213281,4.21909352 C4.39540504,3.96673527 4.72917897,3.92646534 4.95735896,4.12915734 L10.0792715,8.68100215 C10.204285,8.7910733 10.2771085,8.96020702 10.2771085,9.13739473 C10.2771085,9.31592476 10.204285,9.48371615 10.0792715,9.59512964 L4.93551194,14.1711364 Z M8.65840349,14.1711364 C8.56009189,14.2570456 8.44236073,14.3000002 8.32584329,14.3000002 C8.1704867,14.3000002 8.01755755,14.2248296 7.91196362,14.0812002 C7.72869139,13.828842 7.76510309,13.4597009 7.99328309,13.2570089 L12.6236377,9.13739473 L8.01634383,5.04328483 C7.78816384,4.84059283 7.75175214,4.47145177 7.93502436,4.21909352 C8.11829659,3.96673527 8.45207052,3.92646534 8.68025051,4.12915734 L13.8021631,8.68100215 C13.9271766,8.7910733 14,8.96020702 14,9.13739473 C14,9.31592476 13.9271766,9.48371615 13.8021631,9.59512964 L8.65840349,14.1711364 Z" id="path-1"></path>
    </defs>
    <g id="components" stroke="none" stroke-width="1" fill="none" fill-rule="evenodd">
        <g id="ICON-2" transform="translate(-702.000000, -144.000000)">
            <g id="03-Icon/08-Sign/canlander/year-left" transform="translate(702.000000, 144.000000)">
                <mask id="mask-2" fill="white">
                    <use xlink:href="#path-1"></use>
                </mask>
                <use id="double-left" fill="#65748D" fill-rule="evenodd" transform="translate(9.036145, 9.150000) scale(-1, 1) translate(-9.036145, -9.150000) " xlink:href="#path-1"></use>
                <g id="13-Palette/Icon/Normal" mask="url(#mask-2)" fill="#65748D" fill-rule="evenodd">
                    <rect id="Fill/Button-Background" x="0" y="0" width="18" height="18" rx="4"></rect>
                </g>
            </g>
            <g id="Group" transform="translate(50.000000, 15.000000)"></g>
        </g>
    </g>
</svg>