<?xml version="1.0" encoding="UTF-8"?>
<svg width="18px" height="18px" viewBox="0 0 18 18" version="1.1" xmlns="http://www.w3.org/2000/svg" xmlns:xlink="http://www.w3.org/1999/xlink">
    <!-- Generator: sketchtool 50.2 (55047) - http://www.bohemiancoding.com/sketch -->
    <title>8582AE6D-BDE0-4E61-9BAD-AB01F17E3407</title>
    <desc>Created with sketchtool.</desc>
    <defs>
        <path d="M4.86322274,14.1711364 C4.76491114,14.2570456 4.64717998,14.3000002 4.53066254,14.3000002 C4.37530595,14.3000002 4.2223768,14.2248296 4.11678287,14.0812002 C3.93351064,13.828842 3.96992234,13.4597009 4.19810233,13.2570089 L8.82845696,9.13739473 L4.22116308,5.04328483 C3.99298309,4.84059283 3.95657139,4.47145177 4.13984361,4.21909352 C4.32311584,3.96673527 4.65688977,3.92646534 4.88506976,4.12915734 L10.0069823,8.68100215 C10.1319958,8.7910733 10.2048192,8.96020702 10.2048192,9.13739473 C10.2048192,9.31592476 10.1319958,9.48371615 10.0069823,9.59512964 L4.86322274,14.1711364 Z M8.58611429,14.1711364 C8.48780269,14.2570456 8.37007153,14.3000002 8.25355409,14.3000002 C8.0981975,14.3000002 7.94526835,14.2248296 7.83967442,14.0812002 C7.65640219,13.828842 7.69281389,13.4597009 7.92099388,13.2570089 L12.5513485,9.13739473 L7.94405463,5.04328483 C7.71587464,4.84059283 7.67946294,4.47145177 7.86273516,4.21909352 C8.04600739,3.96673527 8.37978131,3.92646534 8.60796131,4.12915734 L13.7298739,8.68100215 C13.8548874,8.7910733 13.9277108,8.96020702 13.9277108,9.13739473 C13.9277108,9.31592476 13.8548874,9.48371615 13.7298739,9.59512964 L8.58611429,14.1711364 Z" id="path-1"></path>
    </defs>
    <g id="components" stroke="none" stroke-width="1" fill="none" fill-rule="evenodd">
        <g id="ICON-2" transform="translate(-774.000000, -144.000000)">
            <g id="03-Icon/08-Sign/canlander/year-right" transform="translate(774.000000, 144.000000)">
                <mask id="mask-2" fill="white">
                    <use xlink:href="#path-1"></use>
                </mask>
                <use id="double-right" fill="#65748D" fill-rule="evenodd" xlink:href="#path-1"></use>
                <g id="13-Palette/Icon/Normal" mask="url(#mask-2)" fill="#65748D" fill-rule="evenodd">
                    <rect id="Fill/Button-Background" x="0" y="0" width="18" height="18" rx="4"></rect>
                </g>
            </g>
            <g id="Group" transform="translate(50.000000, 15.000000)"></g>
        </g>
    </g>
</svg>