<?xml version="1.0" encoding="UTF-8"?>
<svg width="300px" height="100px" viewBox="0 0 300 100" version="1.1" xmlns="http://www.w3.org/2000/svg" xmlns:xlink="http://www.w3.org/1999/xlink">
    <!-- Generator: Sketch 52.4 (67378) - http://www.bohemiancoding.com/sketch -->
    <title>簡體字</title>
    <desc>Created with Sketch.</desc>
    <g id="簡體字" stroke="none" stroke-width="1" fill="none" fill-rule="evenodd">
        <g id="12-logo/中英/淺色/橫式-簡體" transform="translate(10.000000, 24.333333)">
            <g>
                <g id="logo">
                    <path d="M51.6510627,4.95417885 C51.6510627,4.66004163 51.4439189,4.54258132 51.1885959,4.69149842 L26.5042033,19.2424376 C26.2507736,19.3913547 25.83283,19.6334099 25.5775724,19.7799272 L0.192494288,34.3138732 C-0.0628286314,34.461558 -0.0628286314,34.6988784 0.194387503,34.842931 L25.5757445,49.0766431 C25.83283,49.2219929 26.2507736,49.2182959 26.5066841,49.0694437 L51.1868333,34.6976461 C51.4420909,34.5475615 51.6510627,34.1868137 51.6510627,33.8926765 L51.6510627,4.95417885 Z" id="Fill-1" fill="#35BDCE"></path>
                    <path d="M25.84746,14.4510687 C26.1051331,14.5951214 26.1051331,14.8323769 25.8498755,14.9788294 L0.464275122,29.5140726 C0.208952203,29.6617574 -1.95849848e-05,29.5394326 -1.95849848e-05,29.2476952 L-1.95849848e-05,0.487236525 C-1.95849848e-05,0.194201912 0.208952203,0.0720068675 0.465972488,0.216059518 L25.84746,14.4510687 Z" id="Fill-3" fill="#FFFFFF"></path>
                    <path d="M25.4703642,19.8428862 L0.192481231,34.3138537 C-0.0627764048,34.4616034 -0.0627764048,34.6988589 0.194374446,34.8429765 L25.5757314,49.0766885 C25.5757314,49.0766885 25.6573355,49.1323378 25.8437846,49.1674916 C25.9290445,49.1832524 26.0417888,49.1832524 26.0417888,49.1832524 L26.0417888,19.5135952 L25.4703642,19.8428862 Z" id="Fill-6" fill="#E185B7"></path>
                </g>
                <g id="英" transform="translate(75.600000, 0.000000)" fill="#FEFEFE">
                    <path d="M203.961695,0.155597618 L185.445723,0.156181352 L185.326386,0.171293584 C184.98639,0.224607982 184.947416,0.490271943 184.947416,0.685239195 L184.950484,2.00888912 L193.495609,2.00532186 L193.498678,23.358387 L195.814276,23.358387 L195.811273,2.00888912 L204.096309,2.00888912 L204.364362,2.00344094 L204.364362,0.685239195 C204.364362,0.377740944 204.246134,0.214943937 203.961695,0.155597618" id="Fill-23"></path>
                    <path d="M160.655911,3.79754179 C160.655911,3.28606083 160.864948,2.85273541 161.276755,2.51008338 C161.675767,2.17787372 162.175315,2.00891507 162.761428,2.00891507 L169.753594,2.00891507 C170.337226,2.00891507 170.835664,2.17787372 171.234741,2.51008338 C171.64707,2.85331915 171.856695,3.28670943 171.856695,3.79754179 L171.856695,19.7152624 C171.856695,20.2308943 171.647788,20.6637009 171.234088,21.0026559 C170.83808,21.3360979 170.339642,21.5050566 169.753594,21.5050566 L162.761428,21.5050566 C162.172834,21.5050566 161.673286,21.3360979 161.276103,21.0020073 C160.864948,20.6642846 160.655911,20.2314781 160.655911,19.7152624 L160.655911,3.79754179 Z M172.910693,1.22573823 C172.05842,0.515787617 170.995869,0.155623561 169.753594,0.155623561 L162.761428,0.155623561 C161.51974,0.155623561 160.456602,0.515787617 159.602631,1.22573823 C158.751467,1.93205672 158.337833,2.77341241 158.337833,3.79754179 L158.337833,19.7152624 C158.337833,20.7381594 158.751467,21.5806826 159.602631,22.2906981 C160.456602,22.9994812 161.519218,23.3584129 162.761428,23.3584129 L169.753594,23.3584129 C171.009971,23.3584129 172.042491,23.0091453 172.910693,22.2906981 C173.764207,21.5794503 174.179082,20.7368622 174.179082,19.7152624 L174.179082,3.79754179 C174.179082,2.7758122 173.764207,1.93452138 172.910693,1.22573823 Z" id="Fill-12"></path>
                    <path d="M134.040896,12.4911679 L143.142169,12.4911679 C143.724561,12.4911679 144.222999,12.6601265 144.622598,12.9936334 C145.035711,13.337388 145.24527,13.7701297 145.24527,14.2810269 L145.24527,19.7152689 C145.24527,20.2290848 145.035711,20.6624102 144.622011,21.0025976 C144.22424,21.3361044 143.72652,21.5050631 143.142169,21.5050631 L134.040896,21.5074629 L134.040896,12.4911679 Z M145.013188,8.84432035 C145.013188,9.3564499 144.802911,9.79107251 144.388754,10.1354757 C143.995161,10.4665179 143.496723,10.6341794 142.908259,10.6341794 L134.040896,10.6378764 L134.040896,2.00892155 L142.908259,2.00892155 C143.491892,2.00892155 143.990852,2.17846394 144.391104,2.51255453 C144.803564,2.85572543 145.013188,3.28853197 145.013188,3.79754827 L145.013188,8.84432035 Z M145.60472,11.7799201 L145.173393,11.585796 L145.589509,11.355675 C146.114648,11.0639376 146.545387,10.7013088 146.868278,10.2771286 C147.180201,9.86481761 147.33192,9.39575468 147.33192,8.84432035 L147.33192,3.79754827 C147.33192,2.77711588 146.917697,1.93569533 146.065359,1.22574472 C145.211192,0.515794103 144.148707,0.155630047 142.908259,0.155630047 L131.722687,0.158029844 L131.725755,23.3584194 L143.142169,23.3584194 C144.399656,23.3584194 145.431132,23.0079194 146.295613,22.287721 C147.149192,21.5818565 147.564002,20.7405657 147.564002,19.7152689 L147.564002,14.2810269 C147.564002,13.7393215 147.392176,13.2683777 147.038276,12.8398518 C146.668446,12.4009485 146.185937,12.0445463 145.60472,11.7799201 Z" id="Fill-10"></path>
                    <path d="M120.695531,0.155597618 L118.889142,0.155597618 C118.745976,0.155597618 118.633885,0.267544882 118.633885,0.410430064 L118.633885,23.1071867 C118.633885,23.2482558 118.745976,23.358387 118.889142,23.358387 L120.695531,23.358387 C120.837457,23.358387 120.952616,23.2457911 120.952616,23.1071867 L120.952616,0.410430064 C120.952616,0.270009538 120.837457,0.155597618 120.695531,0.155597618" id="Fill-14"></path>
                    <path d="M107.462884,0.155597618 L88.9448235,0.156181352 L88.8278359,0.171293584 C88.4879058,0.224607982 88.4486706,0.490271943 88.4486706,0.685239195 L88.4516736,2.00888912 L96.9949704,2.00532186 L96.9980387,23.358387 L99.313702,23.358387 L99.310699,2.00888912 L107.597563,2.00888912 L107.863788,2.00344094 L107.863788,0.685239195 C107.863788,0.372876492 107.749216,0.214943937 107.462884,0.155597618" id="Fill-21"></path>
                    <path d="M64.155364,3.79754179 C64.155364,3.28670943 64.3642705,2.85390288 64.7761427,2.51008338 C65.1770473,2.17787372 65.6760075,2.00891507 66.2590525,2.00891507 L73.2530464,2.00891507 C73.8361567,2.00891507 74.3351168,2.17787372 74.7356298,2.51008338 C75.1490035,2.85513521 75.3586281,3.28794175 75.3586281,3.79754179 L75.3586281,19.7152624 C75.3586281,20.2290783 75.1490035,20.6624037 74.7356298,21.0026559 C74.3375323,21.3360979 73.8388333,21.5050566 73.2530464,21.5050566 L66.2590525,21.5050566 C65.6732656,21.5050566 65.1745666,21.3360979 64.7761427,21.0020073 C64.3642705,20.6624037 64.155364,20.2290783 64.155364,19.7152624 L64.155364,3.79754179 Z M76.4100807,1.22573823 C75.5556531,0.515787617 74.4934288,0.155623561 73.2530464,0.155623561 L66.2590525,0.155623561 C65.0186701,0.155623561 63.9563805,0.515787617 63.1019529,1.22573823 C62.2508547,1.93205672 61.8372199,2.77341241 61.8372199,3.79754179 L61.8372199,19.7152624 C61.8372199,20.7381594 62.2508547,21.5806826 63.1019529,22.2906981 C63.955793,22.9994812 65.0180173,23.3584129 66.2590525,23.3584129 L73.2530464,23.3584129 C74.5108594,23.3584129 75.5435104,23.0091453 76.4104071,22.2906981 C77.2636596,21.5794503 77.6785349,20.7368622 77.6785349,19.7152624 L77.6785349,3.79754179 C77.6785349,2.7758122 77.2636596,1.93452138 76.4100807,1.22573823 Z" id="Fill-8"></path>
                    <path d="M51.0430469,0.389195108 C50.9918648,0.170748765 50.8337487,0.0648334216 50.5596242,0.0648334216 L48.2106664,0.0672332182 L39.325938,14.9274867 L30.4331798,0.0648334216 L28.0774978,0.0648334216 C27.8031121,0.0648334216 27.64591,0.170100172 27.5791905,0.420133025 L27.579778,0.526696963 L27.5718788,0.595642468 L27.5791905,8.84802382 L27.5822588,23.6767557 L29.7230935,23.6731236 L29.7178708,2.69170258 L38.3895146,16.9485045 L40.2500881,16.9473371 L48.8836064,2.66206185 L48.9262364,23.6767557 L51.0670711,23.6767557 L51.0664183,0.58526497 L51.0430469,0.389195108 Z" id="Fill-18"></path>
                    <path d="M4.72280811,2.00383658 L15.8513229,2.00383658 C16.19863,2.00383658 16.3671914,1.83040264 16.3671914,1.47348155 L16.3641884,0.155604104 L4.484263,0.155604104 C1.77742224,0.155604104 0.673286081,1.36471239 0.673286081,4.32904483 L0.673286081,19.2634974 C0.673286081,22.2414503 1.96067242,23.6888519 4.6092152,23.6888519 L16.3671914,23.6888519 L16.3671914,22.3673424 C16.3671914,22.023458 16.2058764,21.8701953 15.8440765,21.8701953 L5.10060247,21.8701953 C3.45389695,21.8701953 2.78226253,21.1943608 2.78226253,19.5379823 L2.77932478,12.8605809 L13.4158648,12.8605809 C13.7414325,12.8605809 13.8994833,12.6895467 13.8994833,12.3372955 L13.8964803,10.9826428 L2.78226253,10.9588394 L2.78226253,4.08556277 C2.78226253,2.49793523 3.05011984,2.00383658 4.72280811,2.00383658" id="Fill-16"></path>
                </g>
                <g id="簡中" transform="translate(74.666667, 31.527273)" fill="#FEFEFE">
                    <path d="M39.4650088,5.20722983 C39.8075502,5.20722983 40.0852,5.48314157 40.0852,5.8233938 L40.0852,19.3802984 C40.0852,19.4161007 40.0560183,19.4451577 40.0199167,19.4451577 L38.8525863,19.4451577 C38.8165499,19.4451577 38.787303,19.4161007 38.787303,19.3802984 L38.787303,5.8233938 C38.787303,5.48314157 39.0649528,5.20722983 39.4074942,5.20722983 L39.4650088,5.20722983 Z M40.3672433,1.49320744 C41.3292578,2.36050688 42.2332354,3.35836821 42.6699806,4.03537027 L42.7216196,4.11540673 C42.7407476,4.14504746 42.732522,4.18441709 42.7031445,4.20413434 L41.7282039,4.8579816 C41.6969985,4.87886632 41.6545644,4.86939685 41.6354364,4.83716175 L41.5825569,4.74810984 C41.2269589,4.14906874 40.4545271,3.23280048 39.5649118,2.35428038 C39.4651589,2.25582386 39.3960892,2.12792119 39.3820533,1.98892757 C39.3596611,1.76788686 39.4598057,1.5607909 39.6390736,1.44054164 C39.8652149,1.2889653 40.164604,1.31056347 40.3672433,1.49320744 Z M55.1428153,3.41954357 L55.1526078,17.9870868 C55.1526078,18.8026933 54.9356061,19.1498206 54.2923047,19.3628836 L54.2854499,19.3650888 C54.0786325,19.4237217 53.7973921,19.4455144 53.4934331,19.4455144 C52.7926171,19.4455144 51.9711575,19.329481 51.6625635,19.2816797 L51.5639204,19.266308 C51.5277535,19.2607301 51.5033375,19.2267438 51.50967,19.1910063 L51.7079353,18.0741929 C51.714072,18.0398823 51.7464525,18.016468 51.7812485,18.0212676 L51.8747994,18.0342395 C52.9178957,18.1790056 53.4641209,18.1576669 53.5632862,18.1519593 C53.8440044,18.135485 53.8548414,18.1072712 53.8548414,17.8914192 L53.8445919,3.67470031 C53.8443961,3.47908447 53.6840603,3.31985472 53.4871659,3.31985472 L44.5664665,3.31985472 C44.2113907,3.31985472 43.9252541,3.02104763 43.9494089,2.66328337 C43.9713441,2.33704076 44.2591781,2.09083461 44.5883364,2.09083461 L53.804508,2.09083461 C54.5419479,2.09083461 55.142293,2.68689218 55.1428153,3.41954357 Z" id="Combined-Shape"></path>
                    <path d="M44.3958094,10.6560521 L44.3958094,7.90867428 C44.3958094,7.87287191 44.4249911,7.84381492 44.4610927,7.84381492 L49.2443988,7.84381492 C49.3705914,7.84381492 49.4728903,7.94544954 49.4728903,8.0708227 L49.4728903,10.6560521 L44.3958094,10.6560521 Z M49.4728903,11.8248179 L49.4728903,14.6124734 C49.4728903,14.6483407 49.4436434,14.6773328 49.4076071,14.6773328 L44.4610927,14.6773328 C44.4249911,14.6773328 44.3958094,14.6483407 44.3958094,14.6124734 L44.3958094,11.8248179 L49.4728903,11.8248179 Z M49.371636,6.65494275 L43.2239745,6.65494275 C43.1880034,6.65494275 43.1586912,6.68393489 43.1586912,6.71980212 L43.1586912,15.7812392 C43.1586912,15.8170416 43.1880034,15.8460986 43.2239745,15.8460986 L50.64466,15.8460986 C50.6806964,15.8460986 50.7099433,15.8170416 50.7099433,15.7812392 L50.7099433,7.98455974 C50.7099433,7.25015715 50.1108386,6.65494275 49.371636,6.65494275 Z" id="Fill-28"></path>
                    <path d="M9.66519437,5.06649149 C9.70129603,5.06649149 9.73047766,5.09554849 9.73047766,5.13135086 L9.73047766,6.27092991 C9.73047766,6.30679713 9.70129603,6.33578927 9.66519437,6.33578927 L6.78300272,6.33578927 L6.78300272,19.3601336 C6.78300272,19.3960008 6.75369053,19.4249929 6.71771944,19.4249929 L5.57062687,19.4249929 C5.5345905,19.4249929 5.50534359,19.3960008 5.50534359,19.3601336 L5.50534359,6.33578927 L4.33912303,6.33578927 C3.62002767,7.98834104 2.87279521,9.3454584 2.1172065,10.3710147 L2.05368586,10.4571479 C2.03103256,10.488021 1.98650937,10.4927557 1.95771944,10.4673957 L0.956143312,9.75141317 C0.923501671,9.73085275 0.915863527,9.68668352 0.939887775,9.65652392 L1.00706427,9.57181759 C2.48383741,7.7110024 3.8139843,4.73103885 4.65626922,1.39571085 C4.73826502,1.07115458 5.06135199,0.869766252 5.39194653,0.936636258 L5.45879661,0.950127006 C5.628729,0.984632188 5.778293,1.08853689 5.86923261,1.23537849 C5.96017222,1.38228496 5.98615497,1.5619454 5.94039139,1.72830967 C5.61410554,2.91601437 5.24904142,4.03769224 4.85414285,5.06649149 L9.66519437,5.06649149 Z M12.6016038,5.06649149 L19.4577194,5.06649149 C19.4937558,5.06649149 19.5230027,5.09554849 19.5230027,5.13135086 L19.5230027,6.27092991 C19.5230027,6.30679713 19.4937558,6.33578927 19.4577194,6.33578927 L16.5779433,6.33578927 L16.5779433,17.9556689 C16.5779433,18.7711457 16.3608764,19.118273 15.7175749,19.3314009 L15.7107854,19.3335412 C15.503968,19.3921741 15.2226623,19.4139668 14.9188339,19.4139668 C14.2180179,19.4139668 13.3965583,19.2979334 13.087899,19.2501321 L12.9892559,19.2347604 C12.9531543,19.2291825 12.928673,19.1951962 12.9350055,19.1594587 L13.1332708,18.0426453 C13.1392769,18.0083347 13.1716574,17.9849205 13.2065187,17.98972 L13.3000696,18.0026919 C14.3438188,18.1475229 14.8897829,18.1261193 14.9885565,18.1203468 C15.2693399,18.1040022 15.2801116,18.0757236 15.2801116,17.8598716 L15.2801116,6.33578927 L12.1116528,6.33578927 C11.4109673,7.99560529 10.6958542,9.31075864 9.92668656,10.3538918 L9.84984814,10.4581208 C9.82830466,10.4873075 9.78691505,10.4934043 9.75779871,10.4715467 L8.78768913,9.74337061 C8.7585075,9.721513 8.75315427,9.68006787 8.77574229,9.65146489 L8.84220067,9.56773145 C10.3014126,7.72734696 11.5541988,4.82975481 12.3697176,1.40874758 C12.4477311,1.08153208 12.7810675,0.872360627 13.112576,0.942473601 L13.1435856,0.949089256 C13.3199158,0.986318532 13.4683047,1.09359592 13.5587873,1.24990699 C13.6431986,1.39571085 13.6595847,1.5716743 13.6179992,1.73486047 C13.3018976,2.97451752 12.9684958,4.06746268 12.6016038,5.06649149 Z" id="Combined-Shape"></path>
                    <path d="M157.66728,3.55420458 C158.86797,4.35126132 160.035104,5.33174035 160.571472,5.99388961 L160.642043,6.08093088 C160.666785,6.11160936 160.713267,6.11336056 160.740425,6.08475758 L161.524412,5.25721694 C161.547,5.23334869 161.54811,5.19650857 161.527154,5.171408 L161.471924,5.10512173 C160.837632,4.34529426 159.562127,3.32401869 158.297916,2.56380207 C158.066161,2.42435444 157.769579,2.46061082 157.576862,2.65201081 C157.451518,2.77647593 157.38963,2.94828839 157.407061,3.12327896 C157.424426,3.29891812 157.519217,3.45594264 157.66728,3.55420458" id="Fill-39"></path>
                    <path d="M156.862396,8.73522906 C158.113484,9.50465572 159.473205,10.5619282 160.174347,11.3107296 L160.246877,11.3881717 C160.27286,11.4159964 160.317252,11.4157369 160.342909,11.3876528 L161.082242,10.5796348 C161.105026,10.5547288 161.10483,10.5165915 161.081785,10.4918801 L161.020549,10.4263722 C160.311703,9.6679716 158.834669,8.5696431 157.428728,7.75539863 C157.206569,7.62665279 156.924154,7.66355777 156.741752,7.84477484 C156.599761,7.98590882 156.542703,8.18839975 156.59382,8.38648026 C156.631684,8.533257 156.732808,8.6555169 156.862396,8.73522906" id="Fill-41"></path>
                    <path d="M166.350909,12.9253062 C166.289347,12.6052252 165.966783,12.3872329 165.632597,12.4391204 L163.69499,12.740003 L163.69499,1.48048204 C163.69499,1.14022981 163.41734,0.864318065 163.074798,0.864318065 L163.037587,0.864318065 C162.695111,0.864318065 162.417396,1.14022981 162.417396,1.48048204 L162.417396,12.9311436 L155.373591,14.0107277 C155.337359,14.0163056 155.312877,14.0503568 155.319275,14.0861591 L155.515517,15.1827364 C155.521784,15.2174362 155.554752,15.2408504 155.589809,15.2354671 L162.417396,14.1842914 L162.417396,19.3198559 C162.417396,19.3557231 162.446708,19.3847153 162.482679,19.3847153 L163.629706,19.3847153 C163.665873,19.3847153 163.69499,19.3557231 163.69499,19.3198559 L163.69499,13.9921131 L165.825836,13.647191 C165.987412,13.6209878 166.13789,13.5399136 166.236729,13.4101948 C166.343337,13.2701635 166.383878,13.0969241 166.350909,12.9253062" id="Fill-43"></path>
                    <path d="M156.041191,12.488647 C155.608297,11.6369138 155.152881,10.8721571 154.687542,10.2157154 C154.223247,9.56031154 153.762608,8.98779792 153.319531,8.51542716 C153.275595,8.46769067 153.218146,8.40419335 153.15123,8.33038339 C153.01988,8.18529299 152.843681,7.99058518 152.665523,7.80015808 L152.665523,7.78348922 L155.797815,7.78348922 C155.833786,7.78348922 155.863098,7.75449709 155.863098,7.71862986 L155.863098,6.59915721 C155.863098,6.5634197 155.833786,6.53429784 155.797815,6.53429784 L152.665523,6.53429784 L152.665523,3.10492376 C153.369342,2.93680828 154.01767,2.75182937 154.594905,2.55446232 C154.781093,2.49083529 154.936924,2.35268484 155.002142,2.16809508 C155.067817,1.98246758 155.041769,1.78166299 154.931375,1.61893084 L154.913422,1.59240336 C154.749822,1.35138596 154.433263,1.25721016 154.160902,1.36811967 C152.945914,1.86306149 150.879241,2.36624045 148.184152,2.82336925 C148.142632,2.83037406 148.04771,2.84743208 147.97864,2.85988508 C147.937316,2.86721418 147.913944,2.91073482 147.930265,2.94900184 L148.356826,3.94576057 C148.368708,3.97352038 148.39815,3.98947578 148.42805,3.98435189 C148.460169,3.97883885 148.505345,3.97112058 148.557507,3.96236457 C149.452932,3.8140312 150.428787,3.60466517 151.372587,3.40217423 L151.387994,3.3988664 L151.387994,6.53429784 L148.405854,6.53429784 C148.063312,6.53429784 147.785663,6.81020958 147.785663,7.15046182 L147.785663,7.16732525 C147.785663,7.50764234 148.063312,7.78348922 148.405854,7.78348922 L151.180654,7.78348922 C151.181634,7.78498099 151.181764,7.78511071 151.182809,7.78666733 C149.808073,11.4368227 148.281946,13.5123224 147.501093,14.4189266 L147.437442,14.4927366 C147.414005,14.5199775 147.417138,14.5609037 147.444557,14.5842531 L148.276266,15.2915445 C148.30362,15.3147642 148.344814,15.311586 148.368316,15.2843451 L148.431967,15.2105352 C149.056336,14.4856669 149.591268,13.7735759 150.021876,13.0938498 C150.452028,12.4156802 150.806255,11.7728591 151.074308,11.1847143 C151.101531,11.1266652 151.137959,11.0503906 151.180263,10.9617278 C151.240193,10.8362898 151.312657,10.6845838 151.387994,10.523538 L151.387994,19.2998533 C151.387994,19.3356557 151.417176,19.3647126 151.453277,19.3647126 L152.600239,19.3647126 C152.636276,19.3647126 152.665523,19.3356557 152.665523,19.2998533 L152.665523,9.62971106 C153.965052,11.1293244 154.627481,12.4157451 154.921452,12.9866372 L154.992349,13.1241391 C155.008736,13.1558553 155.047775,13.1685029 155.079829,13.1524178 L156.056467,12.6626647 C156.088652,12.6465147 156.101578,12.6074694 156.085322,12.5754937 L156.041191,12.488647 Z" id="Fill-45"></path>
                    <path d="M192.399899,10.9444363 L192.075963,9.91725857 C192.065257,9.88333712 192.028959,9.86433333 191.994686,9.87458111 C191.660957,9.9753077 190.079274,10.4523483 189.787719,10.5397139 L189.787719,6.31568287 L192.110041,6.31568287 C192.146078,6.31568287 192.175324,6.28669073 192.175324,6.2508235 L192.175324,5.13135086 C192.175324,5.09554849 192.146078,5.06649149 192.110041,5.06649149 L189.787719,5.06649149 L189.787719,1.51835991 C189.787719,1.51394947 189.787458,1.50966875 189.787197,1.50525831 L189.787197,1.4805469 C189.787197,1.14022981 189.509612,0.864382925 189.167006,0.864382925 L189.129794,0.864382925 C188.89497,0.864382925 188.677511,0.999355264 188.573646,1.20885101 C188.518416,1.30309167 188.489169,1.40991505 188.489169,1.51835991 L188.489365,5.06649149 L186.357344,5.06649149 C186.014737,5.06649149 185.737152,5.34240323 185.737152,5.68265546 L185.737152,5.6995189 C185.737152,6.03983599 186.014737,6.31568287 186.357344,6.31568287 L188.48943,6.31568287 L188.489626,10.9251082 C187.617442,11.1871401 186.786908,11.4271846 186.080673,11.6212438 C185.907933,11.6687209 185.767966,11.7842354 185.688843,11.9452812 C185.614485,12.0965332 185.611352,12.2729507 185.666059,12.4323102 L185.684077,12.4847814 C185.792447,12.8003222 186.133618,12.9736913 186.454159,12.8749753 C186.665938,12.8097917 186.883723,12.7416245 187.106796,12.671771 C187.553007,12.5321287 188.012471,12.3883355 188.489626,12.2473313 L188.489822,17.8712868 C188.489822,18.0871388 188.479116,18.1154175 188.198332,18.1317621 C188.099036,18.1374697 187.552811,18.1588084 186.509845,18.014172 L186.416294,18.0011353 C186.381498,17.9963357 186.348987,18.0197499 186.342916,18.0541254 L186.144716,19.1708739 C186.138318,19.2066115 186.162799,19.2405329 186.198901,19.2461757 L186.297544,19.2614825 C186.606138,19.3093487 187.427598,19.425447 188.128414,19.425447 C188.432373,19.425447 188.713548,19.4035894 188.920496,19.3449565 L188.927351,19.3427513 C189.542515,19.139028 189.767155,18.8070778 189.785826,18.0753993 C189.786152,18.0634651 189.786348,18.0508824 189.786544,18.0384943 L189.787131,18.0045728 C189.787393,17.9922496 189.787719,17.980056 189.787719,17.9670193 L189.787719,11.839755 C190.657749,11.5521686 192.04874,11.1211132 192.357465,11.0256403 C192.391934,11.0149385 192.410671,10.9786821 192.399899,10.9444363" id="Fill-47"></path>
                    <path d="M197.826487,14.6552287 C196.472708,13.279821 195.420798,11.6325229 194.696349,9.75387134 L201.304846,9.75387134 C200.564468,11.5810894 199.395571,13.2282578 197.826487,14.6552287 Z M203.708641,18.1719035 C201.842649,17.6160588 200.170483,16.7243073 198.735426,15.5200635 C200.607424,13.8230182 202.203796,11.3994183 202.826338,9.29706683 C202.883004,9.106056 202.845792,8.9052514 202.724365,8.74686483 C202.603656,8.58945115 202.409569,8.50467996 202.21039,8.50467996 L198.469266,8.50467996 L198.469266,5.45110104 L203.443134,5.45110104 C203.479171,5.45110104 203.508418,5.4221089 203.508418,5.38624168 L203.508418,4.26676903 C203.508418,4.23096666 203.479171,4.20190966 203.443134,4.20190966 L198.469266,4.20190966 L198.469266,1.48047555 C198.469266,1.14022332 198.191551,0.864311579 197.849075,0.864311579 L197.791626,0.864311579 C197.449019,0.864311579 197.171435,1.14022332 197.171435,1.48047555 L197.171435,4.20190966 L193.184584,4.20190966 C192.842108,4.20190966 192.564393,4.4778214 192.564393,4.81807363 L192.564393,4.83493707 C192.564393,5.17525416 192.842108,5.45110104 193.184584,5.45110104 L197.171435,5.45110104 L197.171435,8.50467996 L193.217879,8.50467996 C192.875338,8.50467996 192.597688,8.7805917 192.597688,9.12084393 L192.597688,9.13770737 C192.597688,9.47802446 192.875338,9.75387134 193.217879,9.75387134 L193.375081,9.75387134 C194.202351,11.999562 195.363349,13.9129781 196.828763,15.4459292 C195.270516,16.6464112 193.408441,17.5764945 191.431794,18.140317 L191.331192,18.1690497 C191.294829,18.1793623 191.274983,18.2181482 191.287844,18.2534317 L191.694559,19.3715423 C191.706506,19.4041666 191.74215,19.4216786 191.77551,19.4113011 L191.865079,19.3834116 C194.064211,18.697459 196.050847,17.6733944 197.771975,16.3387184 C199.329308,17.7370863 201.18257,18.7648478 203.282603,19.3945674 L203.371518,19.4212246 C203.404748,19.431213 203.439935,19.4135712 203.451752,19.3811415 L203.850371,18.2856668 C203.863102,18.2506428 203.843712,18.2121812 203.807807,18.2014794 L203.708641,18.1719035 Z" id="Fill-49"></path>
                    <path d="M122.386953,9.87653986 L125.73011,9.87653986 C127.462533,9.87653986 127.702122,8.90358452 127.835822,6.68344844 L127.841633,6.58804031 C127.843722,6.55269196 127.817021,6.5221432 127.781442,6.51941911 L126.663726,6.43361017 C126.626972,6.43075635 126.595114,6.45871074 126.593482,6.49529142 L126.588912,6.59562886 C126.50437,8.45819526 126.339203,8.64739003 125.669331,8.64739003 L122.407256,8.64739003 C121.400915,8.64739003 121.356196,8.51721728 121.356196,8.06566638 L121.356196,5.68746803 C122.172759,5.51046682 122.924104,5.2998036 123.591299,5.06073198 C124.350413,4.78910096 125.027858,4.49911473 125.603461,4.19939961 C125.937058,4.02985722 126.211574,3.88340478 126.441829,3.7519997 C126.588455,3.66833112 126.70381,3.53562886 126.751989,3.37458306 C126.803759,3.20147341 126.780518,3.01973747 126.68749,2.86556676 C126.523367,2.59393573 126.166203,2.50267861 125.89136,2.66190835 C125.670833,2.7896813 125.384892,2.94300884 125.040066,3.1183237 C124.509639,3.39436516 123.882332,3.66255864 123.175706,3.9154453 C122.62935,4.11119087 122.018103,4.28741376 121.356196,4.44002785 L121.356196,1.50261205 C121.356196,1.16229496 121.078546,0.886448081 120.736004,0.886448081 L120.698793,0.886448081 C120.356251,0.886448081 120.078602,1.16229496 120.078602,1.50261205 L120.078602,8.08583764 C120.078602,9.45819695 120.617907,9.87653986 122.386953,9.87653986" id="Fill-55"></path>
                    <path d="M126.79428,15.9638767 C126.757591,15.9610229 126.725667,15.9889773 126.724035,16.0255579 L126.719465,16.1258954 C126.634989,17.9884618 126.469757,18.1776565 125.79995,18.1776565 L122.407243,18.1776565 C121.400967,18.1776565 121.356182,18.0474838 121.356182,17.5959329 L121.356182,14.6991839 C122.206889,14.5633035 122.991202,14.3882481 123.689081,14.1784929 C124.461317,13.9467504 125.153123,13.6924368 125.743872,13.4229462 C126.098948,13.2652731 126.389067,13.1290684 126.630876,13.0065491 C126.901997,12.8692418 127.033608,12.5485771 126.937054,12.2607961 L126.924585,12.2235668 C126.86916,12.0582403 126.754131,11.9331266 126.600715,11.871121 C126.446581,11.8089209 126.275343,11.8189741 126.118467,11.8993997 C125.890694,12.0162114 125.595026,12.1555293 125.238188,12.3140456 C124.693725,12.5622624 124.053296,12.7974425 123.334527,13.0131647 C122.74169,13.1913334 122.076975,13.3432989 121.356182,13.4654291 L121.356182,11.0328786 C121.356182,10.6925615 121.078533,10.4167146 120.735991,10.4167146 L120.69878,10.4167146 C120.356238,10.4167146 120.078589,10.6925615 120.078589,11.0328786 L120.078589,17.6161042 C120.078589,18.9884635 120.617959,19.4068064 122.38694,19.4068064 L125.860664,19.4068064 C127.593086,19.4068064 127.832676,18.433851 127.966376,16.213715 L127.972186,16.118242 C127.974275,16.0829585 127.947574,16.0524097 127.911995,16.0496856 L126.79428,15.9638767 Z" id="Fill-57"></path>
                    <path d="M117.021614,14.0157543 L112.330161,14.0157543 L112.330161,12.1083701 L117.021092,12.1083701 L117.021614,14.0157543 Z M112.330161,10.9596459 L112.330161,9.2175233 C112.330161,9.18178579 112.359408,9.15266394 112.395445,9.15266394 L116.95496,9.15266394 C116.991061,9.15266394 117.020243,9.18172094 117.020243,9.2175233 L117.0207,10.9596459 L112.330161,10.9596459 Z M111.138089,19.4067999 L112.264878,19.4067999 C112.300849,19.4067999 112.330161,19.3777429 112.330161,19.3419405 L112.330161,15.1644785 L117.02194,15.1644785 L117.022724,17.8530938 C117.022724,18.0874955 116.989691,18.0983919 116.731103,18.1136339 C116.632395,18.1192766 116.08617,18.1407451 115.042747,17.9959141 L114.949131,17.9829422 C114.914335,17.9781426 114.881954,18.001492 114.875818,18.0359323 L114.677618,19.1526809 C114.671285,19.1884833 114.695636,19.2224047 114.731803,19.2279826 L114.830511,19.2433543 C115.139105,19.2912205 115.96063,19.4072539 116.661381,19.4072539 C116.965275,19.4072539 117.24658,19.3853314 117.453332,19.3266986 L117.460187,19.3246879 C118.075352,19.1208349 118.299991,18.7888847 118.318728,18.0566225 L118.32049,8.02865114 C118.32049,7.99291363 118.291243,7.96379177 118.255207,7.96379177 L111.138089,7.96379177 C111.101987,7.96379177 111.072805,7.99291363 111.072805,8.02865114 L111.072805,19.3419405 C111.072805,19.3777429 111.101987,19.4067999 111.138089,19.4067999 Z" id="Fill-59"></path>
                    <path d="M116.435018,3.94253706 L117.059322,5.3327327 C117.07858,5.37560474 117.046983,5.42398983 116.999718,5.42398983 L112.380926,5.42398983 C112.333595,5.42398983 112.301998,5.37547502 112.321453,5.33253812 L113.939368,1.75217143 C114.07235,1.45576413 113.948443,1.10351292 113.663155,0.967048814 C113.59069,0.932349054 113.513525,0.912956103 113.433619,0.90925912 C113.178818,0.882731639 112.939947,1.01984434 112.836081,1.25165171 L110.465514,6.50020128 C110.44606,6.54307332 110.477657,6.59158812 110.525053,6.59158812 L118.810742,6.5914584 C118.858007,6.5914584 118.889604,6.54307332 118.870345,6.50020128 L117.508536,3.46770165 L116.435018,3.94253706 Z" id="Fill-61"></path>
                    <path d="M85.9329053,3.82250832 L90.0842692,3.82250832 C90.2464982,3.82250832 90.378044,3.9532648 90.378044,4.11437546 L90.378044,8.23878251 C90.378044,8.27464974 90.3487318,8.30364187 90.3127607,8.30364187 L86.1613968,8.30364187 C85.9991025,8.30364187 85.867622,8.17295025 85.867622,8.01177473 L85.867622,3.88736768 C85.867622,3.85156532 85.8968689,3.82250832 85.9329053,3.82250832 M90.3374378,2.61359461 L84.6755492,2.61359461 C84.6395129,2.61359461 84.610266,2.6426516 84.610266,2.67845397 L84.610266,8.18300345 C84.610266,8.91740605 85.2093706,9.51262045 85.9485732,9.51262045 L91.6104618,9.51262045 C91.6464982,9.51262045 91.6757451,9.48362831 91.6757451,9.44776108 L91.6757451,3.9432116 C91.6757451,3.20887386 91.0765751,2.61359461 90.3374378,2.61359461" id="Fill-51"></path>
                    <path d="M78.9462818,14.1746727 L78.9462818,12.1912733 C78.9462818,12.155471 78.9755287,12.126414 79.0115651,12.126414 L88.4090284,12.126414 C88.535221,12.126414 88.6375199,12.2280486 88.6375199,12.3534217 L88.6375199,14.1746727 L78.9462818,14.1746727 Z M88.6375199,15.3032257 L88.6375199,18.0804388 C88.6375199,18.1162412 88.6082729,18.1452982 88.5722366,18.1452982 L79.0115651,18.1452982 C78.9755287,18.1452982 78.9462818,18.1162412 78.9462818,18.0804388 L78.9462818,15.3032257 L88.6375199,15.3032257 Z M88.617282,10.9576482 L77.7339712,10.9576482 C77.6979349,10.9576482 77.668688,10.9867052 77.668688,11.0225076 L77.668688,19.3396834 C77.668688,19.3754858 77.6979349,19.4045428 77.7339712,19.4045428 L89.8903061,19.4045428 C89.9262771,19.4045428 89.9555893,19.3754858 89.9555893,19.3396834 L89.9555893,12.2872652 C89.9555893,11.5529274 89.3564194,10.9576482 88.617282,10.9576482 Z" id="Fill-53"></path>
                    <path d="M83.9404529,5.73003523 L80.2318402,5.73003523 C80.2478346,5.47883491 80.26174,5.23853096 80.26174,4.98746035 L80.26174,3.80235003 L83.3939666,3.80235003 C83.430003,3.80235003 83.4592499,3.77335789 83.4592499,3.73749066 L83.4592499,2.69850849 C83.4592499,2.66270612 83.430003,2.63364912 83.3939666,2.63364912 L77.7362562,2.63364912 C77.8559204,2.3540404 77.9746054,2.05906001 78.0848036,1.76810089 C78.12776,1.65466186 78.1419265,1.53091019 78.116009,1.41247699 C78.0630643,1.16944895 77.8777903,0.988945336 77.6387882,0.936149812 C77.3342417,0.868760932 77.0261046,1.03849789 76.9205415,1.33081905 C76.5362189,2.39392891 76.0166292,3.37959668 75.4242487,4.18255563 C75.4045984,4.20914797 75.4083849,4.24559893 75.4330619,4.26784569 C75.7084921,4.51424642 75.9832694,4.76447385 76.2583732,5.01924144 C76.2870978,5.04583378 76.3331878,5.0418125 76.3564287,5.01035571 C76.6500729,4.61425956 76.9125117,4.210056 77.1393711,3.80235003 L79.0044492,3.80235003 L79.0044492,4.98746035 C79.0044492,5.22594824 79.0044492,5.47124636 78.9805555,5.73003523 L75.2188675,5.73003523 C74.894279,5.73003523 74.6225047,5.98421908 74.6131039,6.29664664 C74.6080771,6.46365951 74.6727728,6.62113805 74.7948526,6.73710659 C74.9083149,6.84496772 75.0632974,6.89880099 75.2203037,6.89880099 L78.7449482,6.89880099 C78.3170162,8.18645397 77.3340459,9.22394438 75.7472051,10.0653649 L75.6513692,10.1161498 C75.6172261,10.1342456 75.6063238,10.1777014 75.6279978,10.2096122 L76.2577204,11.0953965 C76.276065,11.1210808 76.3102734,11.1300963 76.3389981,11.1165407 C76.3804529,11.097018 76.4362049,11.0702959 76.4568344,11.0588807 C77.9184618,10.2531328 78.938252,9.28523648 79.5772447,8.09474283 C79.8507164,7.53987096 79.9537987,7.22037373 80.0132065,7.00406774 C81.0444212,7.96632129 82.7737754,10.1641457 82.7737754,10.1641457 C82.7926423,10.1968349 82.8354681,10.2066935 82.8669346,10.1856142 L83.8426586,9.53137777 C83.8718402,9.51185511 83.8801965,9.47268005 83.8613296,9.44310418 C83.8613296,9.44310418 82.5206068,7.75053418 81.6429384,6.89880099 L83.9404529,6.89880099 C83.9765546,6.89880099 84.0057362,6.869744 84.0057362,6.83394163 L84.0057362,5.79489459 C84.0057362,5.75909222 83.9765546,5.73003523 83.9404529,5.73003523" id="Fill-63"></path>
                </g>
            </g>
        </g>
    </g>
</svg>