<?xml version="1.0" encoding="UTF-8"?>
<svg width="400px" height="240px" viewBox="0 0 400 240" version="1.1" xmlns="http://www.w3.org/2000/svg" xmlns:xlink="http://www.w3.org/1999/xlink">
    <!-- Generator: Sketch 52.4 (67378) - http://www.bohemiancoding.com/sketch -->
    <title>登入-繁體字</title>
    <desc>Created with Sketch.</desc>
    <g id="登入-繁體字" stroke="none" stroke-width="1" fill="none" fill-rule="evenodd">
        <g id="12-logo/中英/深色/直式-繁體" transform="translate(35.000000, 28.150000)">
            <g>
                <g id="logo" transform="translate(123.181673, 0.066621)">
                    <path d="M83.7051186,7.86262667 C83.7051186,7.38306345 83.3695146,7.1915554 82.9561951,7.43445655 L42.9761823,31.1584014 C42.5658235,31.401091 41.8889058,31.7958451 41.4753749,32.0347278 L0.360927587,55.7309669 C-0.0527090676,55.9717531 -0.0527090676,56.3586818 0.363888177,56.5934405 L41.4724143,79.8002818 C41.8889058,80.0371554 42.5658235,80.0312336 42.980306,79.7884382 L82.9532345,56.3565669 C83.3666597,56.111868 83.7051186,55.5238083 83.7051186,55.0442451 L83.7051186,7.86262667 Z" id="Fill-1" fill="#35BDCE"></path>
                    <path d="M41.9126011,23.3465333 C42.3299385,23.5813977 42.3299385,23.9682207 41.9165133,24.2069977 L0.801008651,47.905246 C0.387477731,48.1461379 0.0490189042,47.9466989 0.0490189042,47.4710483 L0.0490189042,0.579705747 C0.0490189042,0.102045977 0.387477731,-0.0972873563 0.803863505,0.137682759 L41.9126011,23.3465333 Z" id="Fill-3" fill="#F0EFEF"></path>
                    <path d="M41.3017363,32.1373766 L0.36090644,55.7309352 C-0.0526244793,55.9718271 -0.0526244793,56.3586501 0.36386703,56.5935145 L41.4723931,79.8003559 C41.4723931,79.8003559 41.6046681,79.8910869 41.9066482,79.9482961 C42.0447385,79.9740984 42.2273435,79.9740984 42.2273435,79.9740984 L42.2273435,31.6003926 L41.3017363,32.1373766 Z" id="Fill-6" fill="#E185B7"></path>
                </g>
                <g id="英" transform="translate(0.000000, 100.263473)" fill="#221E1F">
                    <path d="M102.818019,6.84853154 C102.818019,6.01556143 103.156372,5.30980511 103.823456,4.74945108 C104.472671,4.20770856 105.280912,3.93244879 106.22534,3.93244879 L117.552979,3.93244879 C118.497407,3.93244879 119.305542,4.20770856 119.954228,4.74945108 C120.623744,5.31192005 120.963155,6.01746488 120.963155,6.84853154 L120.963155,32.8007798 C120.963155,33.63872 120.623744,34.3452166 119.954228,34.8998603 C119.309454,35.443612 118.501742,35.7189775 117.552979,35.7189775 L106.22534,35.7189775 C105.276365,35.7189775 104.468759,35.443612 103.823456,34.8988028 C103.156372,34.3452166 102.818019,33.63872 102.818019,32.8007798 L102.818019,6.84853154 Z M122.66634,2.65544649 C121.28237,1.49772695 119.56195,0.9106189 117.552979,0.9106189 L106.22534,0.9106189 C104.216263,0.9106189 102.495737,1.49772695 101.111767,2.65544649 C99.7332957,3.80703269 99.0633566,5.17867867 99.0633566,6.84853154 L99.0633566,32.8007798 C99.0633566,34.4685178 99.7332957,35.8422787 101.111767,36.9998925 C102.494786,38.1554971 104.215205,38.7405959 106.22534,38.7405959 L117.552979,38.7405959 C119.590076,38.7405959 121.262597,38.1711476 122.666763,36.9998925 C124.048723,35.8403752 124.720566,34.46672 124.720566,32.8007798 L124.720566,6.84853154 C124.720566,5.18259131 124.048723,3.81094534 122.66634,2.65544649 Z" id="Fill-8"></path>
                    <path d="M216.007289,21.0225697 L230.748064,21.0225697 C231.691435,21.0225697 232.498724,21.298041 233.14593,21.8418984 C233.815024,22.4022525 234.154328,23.1080088 234.154328,23.9409789 L234.154328,32.8007904 C234.154328,33.6387306 233.815024,34.3452272 233.144979,34.8997651 C232.500522,35.4436226 231.694501,35.7189881 230.748064,35.7189881 L216.007289,35.7229007 L216.007289,21.0225697 Z M233.778439,15.076726 C233.778439,15.9118111 233.437971,16.6204226 232.767081,17.1818341 C232.129602,17.7216732 231.322525,17.9949237 230.369109,17.9949237 L216.007289,18.0009513 L216.007289,3.93245936 L230.369109,3.93245936 C231.314594,3.93245936 232.122624,4.20856511 232.770993,4.7533743 C233.438923,5.31288235 233.778439,6.01842718 233.778439,6.84854212 L233.778439,15.076726 Z M234.736613,19.8630525 L234.037914,19.5464456 L234.711871,19.1713605 C235.562512,18.6957099 236.260153,18.1045835 236.783015,17.41268 C237.288324,16.7406571 237.534053,15.9759996 237.534053,15.076726 L237.534053,6.84854212 C237.534053,5.18471683 236.862951,3.81285936 235.482576,2.65545706 C234.099029,1.49773752 232.378292,0.910629475 230.369109,0.910629475 L212.252627,0.914542119 L212.257597,38.7406065 L230.748064,38.7406065 C232.784739,38.7406065 234.455463,38.1692548 235.85561,36.9949329 C237.237994,35.8442984 237.909942,34.472441 237.909942,32.8007904 L237.909942,23.9409789 C237.909942,23.0575674 237.631647,22.2898433 237.058455,21.591172 C236.459465,20.8756869 235.677975,20.2942892 234.736613,19.8630525 Z" id="Fill-10"></path>
                    <path d="M259.114054,6.84853154 C259.114054,6.01450396 259.452513,5.30800741 260.119598,4.74945108 C260.765746,4.20770856 261.574939,3.93244879 262.524231,3.93244879 L273.849014,3.93244879 C274.794394,3.93244879 275.601578,4.20770856 276.247726,4.74945108 C276.915762,5.30895913 277.255278,6.01556143 277.255278,6.84853154 L277.255278,32.8007798 C277.255278,33.6415752 276.91682,34.3473315 276.24688,34.8998603 C275.60549,35.443612 274.798201,35.7189775 273.849014,35.7189775 L262.524231,35.7189775 C261.571027,35.7189775 260.761834,35.443612 260.11854,34.8988028 C259.452513,34.3481775 259.114054,33.6426327 259.114054,32.8007798 L259.114054,6.84853154 Z M278.962376,2.65544649 C277.581789,1.49772695 275.860946,0.9106189 273.849014,0.9106189 L262.524231,0.9106189 C260.513145,0.9106189 258.79135,1.49772695 257.408015,2.65544649 C256.029332,3.80703269 255.359498,5.17867867 255.359498,6.84853154 L255.359498,32.8007798 C255.359498,34.4685178 256.029332,35.8422787 257.408015,36.9998925 C258.79135,38.1554971 260.512404,38.7405959 262.524231,38.7405959 L273.849014,38.7405959 C275.883891,38.7405959 277.556201,38.1711476 278.962376,36.9998925 C280.344759,35.8403752 281.016707,34.46672 281.016707,32.8007798 L281.016707,6.84853154 C281.016707,5.18259131 280.344759,3.81094534 278.962376,2.65544649 Z" id="Fill-12"></path>
                    <path d="M194.39267,0.910576601 L191.466973,0.910576601 C191.235095,0.910576601 191.053548,1.09320189 191.053548,1.32616281 L191.053548,38.330995 C191.053548,38.5611007 191.235095,38.7405536 191.466973,38.7405536 L194.39267,38.7405536 C194.622538,38.7405536 194.809055,38.5571881 194.809055,38.330995 L194.809055,1.32616281 C194.809055,1.09711453 194.622538,0.910576601 194.39267,0.910576601" id="Fill-14"></path>
                    <path d="M6.55879494,3.92395729 L24.5829699,3.92395729 C25.1454819,3.92395729 25.4184905,3.64140097 25.4184905,3.05936879 L25.4136267,0.910587176 L6.172438,0.910587176 C1.78833355,0.910587176 3.17206024e-05,2.88192511 3.17206024e-05,7.71499177 L3.17206024e-05,32.0644309 C3.17206024e-05,36.9194929 2.08502691,39.2794515 6.37481544,39.2794515 L25.4184905,39.2794515 L25.4184905,37.1248538 C25.4184905,36.5642883 25.1572185,36.3144079 24.571339,36.3144079 L7.17068536,36.3144079 C4.50361711,36.3144079 3.41581192,35.2125228 3.41581192,32.5118469 L3.41105383,21.6250745 L20.6384072,21.6250745 C21.1657094,21.6250745 21.4218004,21.3460079 21.4218004,20.771801 L21.4168308,18.5631665 L3.41581192,18.5242515 L3.41581192,7.31801706 C3.41581192,4.72964465 3.84964402,3.92395729 6.55879494,3.92395729" id="Fill-16"></path>
                    <path d="M81.5807052,1.29163637 C81.4979145,0.935374302 81.2418235,0.762689245 80.7978408,0.762689245 L76.9933774,0.766601889 L62.6033262,24.9948548 L48.2003752,0.762689245 L44.3850211,0.762689245 C43.9406155,0.762689245 43.6858991,0.934316831 43.5779433,1.34186626 L43.5790006,1.51550304 L43.5661009,1.62812373 L43.5779433,15.0827536 L43.5829128,39.2598249 L47.0502919,39.2537973 L47.0418331,5.04544787 L61.0866584,28.290041 L64.1001157,28.287926 L78.0832973,4.99712143 L78.1523425,39.2598249 L81.6197216,39.2598249 L81.6186642,1.61109844 L81.5807052,1.29163637 Z" id="Fill-18"></path>
                    <path d="M172.960507,0.910576601 L142.968043,0.911634073 L142.778566,0.9363789 C142.228002,1.02309154 142.164349,1.45623177 142.164349,1.77410764 L142.169318,3.93240649 L156.006268,3.92648465 L156.011132,38.7405536 L159.761882,38.7405536 L159.756912,3.93240649 L173.178533,3.93240649 L173.609934,3.92352373 L173.609934,1.77410764 C173.609934,1.26482947 173.424262,1.00744097 172.960507,0.910576601" id="Fill-20"></path>
                    <path d="M329.253762,0.910576601 L299.264576,0.911634073 L299.071292,0.9363789 C298.520728,1.02309154 298.457498,1.45623177 298.457498,1.77410764 L298.462468,3.93240649 L312.302484,3.92648465 L312.307453,38.7405536 L316.057886,38.7405536 L316.053022,3.93240649 L329.471789,3.93240649 L329.905938,3.92352373 L329.905938,1.77410764 C329.905938,1.27286626 329.714451,1.00744097 329.253762,0.910576601" id="Fill-22"></path>
                </g>
                <g id="繁中" transform="translate(0.000000, 153.149701)" fill="#221E1F">
                    <path d="M64.1635992,7.18744469 L71.9926668,7.18744469 L71.9926668,10.0933757 C71.9926668,10.1518539 71.9454031,10.1991228 71.8869314,10.1991228 L64.164868,10.1991228 L64.164868,7.23704009 C64.164868,7.22043779 64.164445,7.20394124 64.1635992,7.18744469 M71.9926668,2.63820331 L71.9926668,5.3802263 L64.1302925,5.3802263 L64.1302925,3.00831825 C64.1302925,2.74553664 64.3432435,2.53245618 64.6061016,2.53245618 L71.8869314,2.53245618 C71.9454031,2.53245618 71.9926668,2.5798309 71.9926668,2.63820331 M73.9233941,0.69256193 L64.2286264,0.69256193 C63.0314909,0.69256193 62.0610519,1.66310906 62.0610519,2.86037802 L62.0610519,29.3401987 C62.0610519,29.3986769 62.1084213,29.4459458 62.1667872,29.4459458 L64.0591326,29.4459458 C64.1174986,29.4459458 64.164868,29.3986769 64.164868,29.3401987 L64.164868,12.0391228 L73.9233941,12.0391228 C73.98176,12.0391228 74.0291294,11.9917481 74.0291294,11.9333757 L74.0291294,0.798309056 C74.0291294,0.739936643 73.98176,0.69256193 73.9233941,0.69256193" id="Fill-25"></path>
                    <path d="M87.0376427,4.23685664 L87.0290782,4.23876009 L87.0295011,5.38030032 L78.9130449,5.38030032 L78.9130449,2.63827733 C78.9130449,2.57990492 78.9603086,2.53253021 79.0187802,2.53253021 L86.667569,2.53253021 C86.8719555,2.53253021 87.0376427,2.69823595 87.0376427,2.90264515 L87.0376427,4.23685664 Z M87.0312986,10.1991969 L79.0187802,10.1991969 C78.9603086,10.1991969 78.9130449,10.1518222 78.9130449,10.0934497 L78.9130449,7.18741296 L87.030347,7.18741296 L87.0312986,10.1991969 Z M89.1396613,2.8603463 C89.1396613,1.66318308 88.1692224,0.692530206 86.9720868,0.692530206 L76.9822118,0.692530206 C76.9238459,0.692530206 76.8764764,0.739904918 76.8764764,0.798277332 L76.8764764,11.9662314 C76.8764764,12.0247095 76.9238459,12.0719785 76.9822118,12.0719785 L87.0320388,12.0719785 L87.0376427,26.8158773 C87.0376427,27.167698 87.0201964,27.213698 86.5654287,27.2405578 C86.4051339,27.250075 85.5204463,27.2847601 83.8307956,27.0487325 L83.6791711,27.0275831 C83.6229199,27.019652 83.5703694,27.0578268 83.5604303,27.1138727 L83.2393121,28.9346268 C83.2290558,28.9928934 83.2686008,29.0483049 83.3271781,29.0575049 L83.48705,29.0824612 C83.9868609,29.1605026 85.3173287,29.3496842 86.4525034,29.3496842 C86.9445956,29.3496842 87.4002092,29.3141532 87.7351788,29.218452 L87.7461753,29.2150681 C88.7880913,28.8675831 89.1396613,28.3015187 89.1396613,26.9718543 L89.1391326,25.4443371 L89.1396613,25.4443371 L89.1396613,2.8603463 Z" id="Fill-27"></path>
                    <path d="M71.3579375,19.2044107 L71.3579375,16.311275 C71.3579375,16.2527969 71.4052012,16.2055279 71.4636729,16.2055279 L79.2109013,16.2055279 C79.415182,16.2055279 79.580975,16.3712337 79.580975,16.5756428 L79.580975,19.2044107 L71.3579375,19.2044107 Z M79.580975,21.1099739 L79.580975,24.3860199 C79.580975,24.4443923 79.5336056,24.491767 79.4752397,24.491767 L71.4636729,24.491767 C71.4052012,24.491767 71.3579375,24.4443923 71.3579375,24.3860199 L71.3579375,21.1099739 L79.580975,21.1099739 Z M79.4169795,14.2671831 L69.4599881,14.2671831 C69.4015165,14.2671831 69.3542528,14.314452 69.3542528,14.3729302 L69.3542528,26.2915831 C69.3542528,26.3499555 69.4015165,26.3973302 69.4599881,26.3973302 L81.4788186,26.3973302 C81.5371846,26.3973302 81.584554,26.3499555 81.584554,26.2915831 L81.584554,16.4349992 C81.584554,15.2377302 80.614115,14.2671831 79.4169795,14.2671831 Z" id="Fill-29"></path>
                    <path d="M15.0083281,7.4003348 L7.21616213,7.4003348 C7.85575521,5.72286814 8.44702723,3.89407733 8.97549247,1.9577417 C9.04961294,1.68650032 9.00753028,1.39358078 8.86024095,1.15406354 C8.71295162,0.914652045 8.47071195,0.745139401 8.19548286,0.688987677 L8.08720987,0.666886528 C7.5517661,0.55786124 7.0284819,0.886311815 6.89567831,1.41536469 C5.53148094,6.85330492 3.37712336,11.7119624 0.985284204,14.7458474 L0.876482538,14.8838474 C0.837571932,14.9330199 0.849942967,15.0050337 0.902810638,15.0385555 L2.52500224,16.2060038 C2.57163153,16.2473509 2.64374303,16.2395256 2.68043319,16.1892957 L2.78331368,16.0488635 C4.00709452,14.3766842 5.21734124,12.1640314 6.38201602,9.46980607 L8.27087216,9.46980607 L8.27087216,30.7047808 C8.27087216,30.7631532 8.31824159,30.8105279 8.3766075,30.8105279 L10.2344832,30.8105279 C10.2928491,30.8105279 10.3402185,30.7631532 10.3402185,30.7047808 L10.3402185,9.46980607 L15.0083281,9.46980607 C15.0667997,9.46980607 15.1140634,9.4225371 15.1140634,9.36405894 L15.1140634,7.50608193 C15.1140634,7.44760377 15.0667997,7.4003348 15.0083281,7.4003348" id="Fill-31"></path>
                    <path d="M19.7642509,7.4003348 C20.3584835,5.77140607 20.8984739,3.98956699 21.4104444,1.96831641 C21.4777978,1.70236239 21.4512583,1.41547044 21.3145425,1.17764515 C21.1678875,0.922794574 20.9276568,0.747888826 20.6420657,0.687189976 L20.5918414,0.676509516 C20.0549173,0.562091125 19.5150327,0.903125608 19.3886789,1.43672561 C18.0678331,7.01435779 16.0387719,11.7385049 13.6753755,14.7390796 L13.5677369,14.8757049 C13.5311525,14.9222337 13.5398228,14.9898061 13.5870865,15.0255486 L15.1583137,16.2126658 C15.2054716,16.2483026 15.2725079,16.2384681 15.3074005,16.1907762 L15.431851,16.0208406 C16.6776248,14.3202153 17.8359555,12.1759808 18.9707071,9.46980607 L24.1024662,9.46980607 L24.1024662,28.258744 C24.1024662,28.6106704 24.0850199,28.6566704 23.6302522,28.6834245 C23.4702746,28.6927302 22.5860099,28.7276268 20.8955133,28.4915992 L20.7441003,28.4704497 C20.6876376,28.4625187 20.6350872,28.5006934 20.6253595,28.5567394 L20.3042413,30.3774934 C20.2940907,30.4357601 20.3336357,30.4911716 20.3921073,30.5003716 L20.5518734,30.5253279 C21.0517901,30.6033693 22.3822579,30.7925509 23.5173268,30.7925509 C24.0094191,30.7925509 24.4650327,30.7570199 24.8000022,30.6613187 L24.8109987,30.6579348 C25.8529148,30.3104497 26.2044848,29.7443854 26.2044848,28.4148268 L26.2044848,9.46980607 L30.8686822,9.46980607 C30.9270481,9.46980607 30.9744175,9.4225371 30.9744175,9.36405894 L30.9744175,7.50608193 C30.9744175,7.44760377 30.9270481,7.4003348 30.8686822,7.4003348 L19.7642509,7.4003348 Z" id="Fill-33"></path>
                    <path d="M254.718192,4.93463963 C256.662877,6.23427181 258.553213,7.83274538 259.421935,8.91231779 L259.536129,9.05423044 C259.576308,9.10424883 259.651486,9.107104 259.695472,9.06036377 L260.965353,7.71124193 C261.001938,7.67232699 261.003735,7.61226262 260.969689,7.57123273 L260.880236,7.46337067 C259.853018,6.22443733 257.787161,4.55934308 255.739701,3.31998676 C255.364235,3.09263044 254.883774,3.15163733 254.571749,3.4636971 C254.368737,3.66662584 254.2685,3.94674998 254.296731,4.23205572 C254.324857,4.51841894 254.478384,4.77443273 254.718192,4.93463963" id="Fill-35"></path>
                    <path d="M253.414676,13.3818681 C255.440671,14.6362406 257.643138,16.3601302 258.77863,17.580875 L258.896208,17.7072428 C258.938291,17.7525026 259.010191,17.7521854 259.051745,17.7063969 L260.249197,16.3889992 C260.286099,16.3482865 260.285782,16.2861072 260.248457,16.2458176 L260.149277,16.1391187 C259.001203,14.9026176 256.608941,13.11179 254.331825,11.7842406 C253.972007,11.5744383 253.514596,11.6346084 253.219172,11.9300658 C252.989197,12.1600658 252.89689,12.4903141 252.979575,12.8131601 C253.040902,13.0524658 253.204686,13.2519049 253.414676,13.3818681" id="Fill-37"></path>
                    <path d="M268.782547,20.213344 C268.682839,19.6915877 268.1604,19.3361716 267.619141,19.4206635 L264.480916,19.9112245 L264.480916,1.55362906 C264.480916,0.998773884 264.031224,0.549031355 263.47643,0.549031355 L263.416267,0.549031355 C262.861474,0.549031355 262.411781,0.998773884 262.411781,1.55362906 L262.411781,20.2228612 L251.003361,21.9830222 C250.944678,21.9920107 250.904921,22.0476337 250.915283,22.1060061 L251.233124,23.8938727 C251.243169,23.9504474 251.296671,23.9886222 251.35345,23.9798451 L262.411781,22.2660015 L262.411781,30.6390589 C262.411781,30.6975371 262.459045,30.7448061 262.517517,30.7448061 L264.375181,30.7448061 C264.433652,30.7448061 264.480916,30.6975371 264.480916,30.6390589 L264.480916,21.9527785 L267.932012,21.3902038 C268.193813,21.3475877 268.437533,21.2154038 268.597616,21.0038038 C268.770282,20.7756015 268.836049,20.4931509 268.782547,20.213344" id="Fill-39"></path>
                    <path d="M252.084515,19.501412 C251.383384,18.1127408 250.645774,16.8658764 249.892093,15.7957155 C249.139997,14.727035 248.394035,13.7936051 247.676409,13.0234488 C247.605249,12.9456189 247.512202,12.8420925 247.403823,12.7217523 C247.191084,12.485196 246.905704,12.1677431 246.617152,11.8572695 L246.617152,11.8301983 L251.690228,11.8301983 C251.7487,11.8301983 251.795963,11.7828235 251.795963,11.7244511 L251.795963,9.89925572 C251.795963,9.84088331 251.7487,9.7935086 251.690228,9.7935086 L246.617152,9.7935086 L246.617152,4.20212929 C247.757085,3.92803273 248.807143,3.62644193 249.74216,3.30465342 C250.043612,3.20091549 250.296002,2.97567411 250.401632,2.67471779 C250.508001,2.37206952 250.465813,2.04457067 250.287014,1.77946262 L250.257937,1.7361063 C249.992964,1.34314998 249.480254,1.18960515 249.03902,1.37043273 C247.071285,2.17728331 243.724022,2.99777526 239.35895,3.74308101 C239.291808,3.7545017 239.137857,3.78231319 239.025883,3.8025109 C238.959164,3.81467181 238.921311,3.88552239 238.947851,3.94791319 L239.63862,5.57314078 C239.657864,5.6182948 239.70555,5.6443086 239.753977,5.63584883 C239.805893,5.62686032 239.879062,5.61438216 239.96365,5.6001063 C241.413916,5.35826262 242.994448,5.0169109 244.522958,4.68687411 L244.548017,4.68148101 L244.548017,9.7935086 L239.718027,9.7935086 C239.163234,9.7935086 238.713541,10.2432511 238.713541,10.7981063 L238.713541,10.8256006 C238.713541,11.38035 239.163234,11.8301983 239.718027,11.8301983 L244.212202,11.8301983 C244.213788,11.8326304 244.213999,11.8327362 244.215691,11.8352741 C241.989116,17.7865109 239.517341,21.1704189 238.252641,22.6484465 L238.149549,22.7689983 C238.11159,22.8133063 238.116665,22.8801385 238.161074,22.9181017 L239.508142,24.0711684 C239.552551,24.1091316 239.619164,24.10395 239.657229,24.0596419 L239.760321,23.9390902 C240.771574,22.7574718 241.637969,21.5963684 242.3354,20.4882442 C243.03209,19.3824465 243.60581,18.334281 244.039959,17.3754718 C244.084051,17.2808281 244.143051,17.1564695 244.211567,17.0119132 C244.308632,16.8073983 244.425999,16.5600557 244.548017,16.2974856 L244.548017,30.6064465 C244.548017,30.6648189 244.595281,30.7121937 244.653753,30.7121937 L246.511417,30.7121937 C246.569888,30.7121937 246.617152,30.6648189 246.617152,30.6064465 L246.617152,14.8401845 C248.72192,17.2851638 249.794816,19.3825523 250.270943,20.3133385 L250.385771,20.5375224 C250.412311,20.5892327 250.475541,20.6098534 250.527457,20.5836281 L252.109257,19.7851316 C252.161491,19.7588006 252.18232,19.6951408 252.155992,19.6430074 L252.084515,19.501412 Z" id="Fill-41"></path>
                    <path d="M310.972492,16.983721 L310.447727,15.3091095 C310.430387,15.253698 310.371704,15.2226084 310.316298,15.2394222 C309.775674,15.4036474 307.213918,16.1814176 306.741598,16.3238589 L306.741598,9.43697159 L310.503027,9.43697159 C310.561393,9.43697159 310.608762,9.38970262 310.608762,9.33122446 L310.608762,7.5061348 C310.608762,7.44765664 310.561393,7.40038768 310.503027,7.40038768 L306.741598,7.40038768 L306.741598,1.61527963 C306.741598,1.60819457 306.741281,1.60121526 306.740858,1.59402446 L306.740858,1.55362906 C306.740858,0.998773884 306.291271,0.549031355 305.736372,0.549031355 L305.676103,0.549031355 C305.295773,0.549031355 304.943463,0.769196872 304.775343,1.11076009 C304.685891,1.26441067 304.638628,1.43857618 304.638628,1.61538538 L304.638839,7.40038768 L301.185629,7.40038768 C300.630835,7.40038768 300.181143,7.85002446 300.181143,8.40498538 L300.181143,8.43237388 C300.181143,8.98722906 300.630835,9.43697159 301.185629,9.43697159 L304.638945,9.43697159 L304.639262,16.9522084 C303.226532,17.3794268 301.881473,17.7707969 300.737628,18.0871923 C300.457958,18.1645992 300.231156,18.3529348 300.103004,18.6153992 C299.982572,18.8621072 299.977497,19.1497394 300.066103,19.4095601 L300.095286,19.4951095 C300.270806,20.0095693 300.823379,20.2922314 301.34254,20.1312842 C301.685545,20.0250084 302.038278,19.9137624 302.399576,19.7999785 C303.122277,19.5723049 303.866442,19.3378635 304.639262,19.1079693 L304.639579,28.2773026 C304.639579,28.6292291 304.622133,28.6752291 304.167471,28.7019831 C304.006648,28.7112888 303.12196,28.7460796 301.432626,28.5101578 L301.281108,28.4890084 C301.224751,28.4811831 301.1722,28.5193578 301.162367,28.5754038 L300.841249,30.396052 C300.830992,30.4544245 300.870537,30.509836 300.929115,30.5189302 L301.088881,30.5438865 C301.588692,30.6219279 302.91916,30.8112153 304.054228,30.8112153 C304.546532,30.8112153 305.00204,30.7755785 305.337115,30.6798773 L305.348218,30.6764934 C306.344456,30.344236 306.708397,29.8030222 306.738637,28.6100888 C306.739272,28.5906314 306.739483,28.5702222 306.7398,28.549813 L306.740752,28.494613 C306.741175,28.4746268 306.741598,28.4546406 306.741598,28.4333854 L306.741598,18.4434543 C308.150839,17.9746773 310.403741,17.2717762 310.903764,17.1161164 C310.959592,17.0986681 310.989938,17.0395555 310.972492,16.983721" id="Fill-43"></path>
                    <path d="M319.761531,23.0338208 C317.569003,20.7913472 315.865183,18.1055817 314.691838,15.0426162 L325.395215,15.0426162 C324.196071,18.0216185 322.30288,20.7072783 319.761531,23.0338208 Z M329.288496,28.76743 C326.266369,27.8611771 323.557958,26.4072599 321.233895,24.443853 C324.26575,21.6768737 326.851297,17.7254208 327.859589,14.2978392 C327.951156,13.9864139 327.891098,13.658915 327.69443,13.400892 C327.498926,13.144138 327.184574,13.0058208 326.861764,13.0058208 L320.802601,13.0059265 L320.802601,8.02735181 L328.858471,8.02735181 C328.916837,8.02735181 328.964206,7.98008285 328.964206,7.92160469 L328.964206,6.09651503 C328.964206,6.03803687 328.916837,5.99076791 328.858471,5.99076791 L320.802601,5.99076791 L320.802601,1.55361848 C320.802601,0.998763309 320.352908,0.549020781 319.798115,0.549020781 L319.705068,0.549020781 C319.150275,0.549020781 318.700582,0.998763309 318.700582,1.55361848 L318.700582,5.99076791 L312.243325,5.99076791 C311.688532,5.99076791 311.238839,6.44040469 311.238839,6.99536561 L311.238839,7.02275411 C311.238839,7.57760929 311.688532,8.02735181 312.243325,8.02735181 L318.700582,8.02735181 L318.700582,13.0059265 L312.29725,13.0059265 C311.742457,13.0059265 311.292764,13.4556691 311.292764,14.0105242 L311.292764,14.0380185 C311.292764,14.5927679 311.742457,15.0426162 312.29725,15.0426162 L312.551861,15.0426162 C313.891739,18.7040047 315.772242,21.8236507 318.145683,24.322984 C315.621886,26.2802576 312.605891,27.7966714 309.404542,28.7159311 L309.241604,28.7626714 C309.18271,28.7795909 309.150566,28.8427219 309.17129,28.9003541 L309.830127,30.7232231 C309.849371,30.7765196 309.907208,30.8051771 309.961133,30.7881518 L310.106308,30.7426806 C313.668003,29.6244047 316.885635,27.9546576 319.673242,25.7785932 C322.195664,28.0585012 325.197173,29.7341702 328.598573,30.7608691 L328.742479,30.8043311 C328.796298,30.8205104 328.853395,30.791853 328.872533,30.7390851 L329.518153,28.9528047 C329.538878,28.8957012 329.507263,28.8329932 329.449108,28.8155449 L329.288496,28.76743 Z" id="Fill-46"></path>
                    <path d="M138.53436,5.37213664 L145.25807,5.37213664 C145.520822,5.37213664 145.733879,5.5852171 145.733879,5.84799871 L145.733879,12.5723527 C145.733879,12.6308309 145.686615,12.6780999 145.628144,12.6780999 L138.904433,12.6780999 C138.641681,12.6780999 138.428624,12.4651251 138.428624,12.2022378 L138.428624,5.47788377 C138.428624,5.41951136 138.475888,5.37213664 138.53436,5.37213664 M145.668217,3.40111595 L136.497897,3.40111595 C136.439531,3.40111595 136.392161,3.44849067 136.392161,3.50686308 L136.392161,12.481516 C136.392161,13.6787849 137.3626,14.649332 138.559736,14.649332 L147.730056,14.649332 C147.788422,14.649332 147.835792,14.6019573 147.835792,14.5435849 L147.835792,5.56893204 C147.835792,4.37166308 146.865353,3.40111595 145.668217,3.40111595" id="Fill-48"></path>
                    <path d="M127.218616,22.250372 L127.218616,19.0166249 C127.218616,18.9582525 127.265986,18.9108778 127.324351,18.9108778 L142.544848,18.9108778 C142.749235,18.9108778 142.914922,19.0765835 142.914922,19.2809927 L142.914922,22.250372 L127.218616,22.250372 Z M142.914922,24.090372 L142.914922,28.6182525 C142.914922,28.6767307 142.867552,28.7239996 142.809186,28.7239996 L127.324351,28.7239996 C127.265986,28.7239996 127.218616,28.6767307 127.218616,28.6182525 L127.218616,24.090372 L142.914922,24.090372 Z M142.882144,17.0053146 L125.255111,17.0053146 C125.196639,17.0053146 125.149376,17.0526893 125.149376,17.1110617 L125.149376,30.671333 C125.149376,30.7298111 125.196639,30.7770801 125.255111,30.7770801 L144.943983,30.7770801 C145.002349,30.7770801 145.049718,30.7298111 145.049718,30.671333 L145.049718,19.1731307 C145.049718,17.9758617 144.079279,17.0053146 142.882144,17.0053146 Z" id="Fill-50"></path>
                    <path d="M197.576815,15.2426051 L202.991522,15.2426051 C205.797421,15.2426051 206.18547,13.6562925 206.402016,10.0365684 L206.411426,9.8809086 C206.41481,9.82327641 206.371458,9.77357526 206.313938,9.76913388 L204.503643,9.62923044 C204.444114,9.62457756 204.392516,9.67015457 204.389872,9.72979595 L204.382471,9.8934925 C204.245543,12.930127 203.978033,13.2385914 202.893083,13.2385914 L197.609699,13.2385914 C195.979789,13.2385914 195.90736,13.0263569 195.90736,12.2901454 L195.90736,8.41271549 C197.229898,8.12413159 198.446806,7.78066492 199.527315,7.39088101 C200.756912,6.94801204 201.854127,6.4751109 202.786396,5.98655917 C203.326703,5.71013618 203.771426,5.47125342 204.144249,5.25711549 C204.381836,5.1207017 204.568565,4.90434308 204.646598,4.64177296 C204.730446,4.35953388 204.692804,4.06312469 204.542025,3.81197526 C204.276207,3.36900055 203.697834,3.2201086 203.252689,3.47982354 C202.895515,3.68814538 202.432394,3.93813159 201.8739,4.22386032 C201.0148,4.67402584 199.998789,5.11129021 198.85431,5.52359825 C197.969411,5.84274308 196.979411,6.13005802 195.90736,6.37888101 L195.90736,1.5896994 C195.90736,1.03484423 195.457668,0.5851017 194.902874,0.5851017 L194.842605,0.5851017 C194.287812,0.5851017 193.83812,1.03484423 193.83812,1.5896994 L193.83812,12.3230327 C193.83812,14.5604304 194.711599,15.2426051 197.576815,15.2426051" id="Fill-52"></path>
                    <path d="M204.715082,25.167396 C204.655659,25.1627431 204.603955,25.2084258 204.601311,25.2680672 L204.59391,25.431658 C204.457088,28.4682925 204.189472,28.7767569 203.104627,28.7767569 L197.609667,28.7767569 C195.979863,28.7767569 195.907328,28.5645224 195.907328,27.8284166 L195.907328,23.1054327 C197.285166,22.8838925 198.55547,22.5985868 199.685781,22.2566006 C200.936524,21.8787661 202.057002,21.4640258 203.013801,21.0247523 C203.588895,20.767681 204.058783,20.5455063 204.450427,20.3458557 C204.889546,20.1218833 205.102708,19.5990695 204.946326,19.1299753 L204.92613,19.0691707 C204.836255,18.799727 204.650055,18.5957408 204.401577,18.4946465 C204.151936,18.3931293 203.874592,18.4096258 203.62051,18.5406465 C203.251599,18.7312028 202.772724,18.9582419 202.194775,19.2167937 C201.312942,19.6213822 200.275678,20.004927 199.111532,20.3565362 C198.15135,20.6470235 197.074752,20.8947891 195.907328,21.0939109 L195.907328,17.1278649 C195.907328,16.5730097 195.457636,16.1232672 194.902843,16.1232672 L194.842574,16.1232672 C194.28778,16.1232672 193.838088,16.5730097 193.838088,17.1278649 L193.838088,27.8611983 C193.838088,30.0987017 194.711673,30.7807707 197.576784,30.7807707 L203.202961,30.7807707 C206.00886,30.7807707 206.396909,29.194458 206.613455,25.5747339 L206.622865,25.4190741 C206.626249,25.3615477 206.582897,25.3118465 206.525377,25.3072994 L204.715082,25.167396 Z" id="Fill-54"></path>
                    <path d="M188.886893,21.9912176 L181.288434,21.9912176 L181.288434,18.8814061 L188.886047,18.8814061 L188.886893,21.9912176 Z M181.288434,17.0085187 L181.288434,14.1681509 C181.288434,14.1097785 181.335698,14.0624038 181.394169,14.0624038 L188.778937,14.0624038 C188.837303,14.0624038 188.884673,14.1097785 188.884673,14.1681509 L188.885413,17.0085187 L181.288434,17.0085187 Z M179.357707,30.780813 L181.182699,30.780813 C181.241065,30.780813 181.288434,30.7334383 181.288434,30.6750658 L181.288434,23.8641049 L188.887422,23.8641049 L188.88869,28.2476406 C188.88869,28.6298107 188.835188,28.6476819 188.416371,28.672321 C188.256499,28.6816268 187.371811,28.7165233 185.681843,28.4804957 L185.530219,28.4593463 C185.473862,28.4514153 185.421417,28.4896957 185.411478,28.545636 L185.09036,30.3664957 C185.080103,30.4247624 185.119649,30.4801739 185.178226,30.4893739 L185.338098,30.5143302 C185.837909,30.5922658 187.168376,30.7815532 188.303445,30.7815532 C188.795643,30.7815532 189.251151,30.7459164 189.586121,30.6502153 L189.597223,30.6468314 C190.593567,30.3145739 190.957402,29.7733601 190.987748,28.5793693 L190.990603,12.2298061 C190.990603,12.1714337 190.94334,12.1240589 190.884868,12.1240589 L179.357707,12.1240589 C179.299235,12.1240589 179.251971,12.1714337 179.251971,12.2298061 L179.251971,30.6750658 C179.251971,30.7334383 179.299235,30.780813 179.357707,30.780813 Z" id="Fill-56"></path>
                    <path d="M187.936829,5.5677794 L188.947976,7.83425756 C188.979168,7.90426216 188.927992,7.98314952 188.85144,7.98314952 L181.370665,7.98314952 C181.294006,7.98314952 181.242831,7.90405067 181.274234,7.83404607 L183.894673,1.99659319 C184.110161,1.51332883 183.909476,0.939016183 183.447412,0.716418482 C183.330046,0.659949516 183.204961,0.628331125 183.075647,0.622303539 C182.662962,0.579052964 182.276076,0.802708137 182.107851,1.18054262 L178.26839,9.73770584 C178.236986,9.80771044 178.288056,9.88680929 178.36482,9.88680929 L191.784644,9.88659779 C191.861196,9.88659779 191.912372,9.80771044 191.88118,9.73770584 L189.675541,4.79360469 L187.936829,5.5677794 Z" id="Fill-58"></path>
                    <path d="M135.30737,8.48218078 L129.300756,8.48218078 C129.326662,8.07262216 129.349183,7.68072331 129.349183,7.27148193 L129.349183,5.33927044 L134.422259,5.33927044 C134.480731,5.33927044 134.527995,5.29200147 134.527995,5.23352331 L134.527995,3.53956009 C134.527995,3.48118768 134.480731,3.43381296 134.422259,3.43381296 L125.258812,3.43381296 C125.452624,2.97783136 125.644851,2.49689342 125.823333,2.02261756 C125.892906,1.83756009 125.915851,1.63590032 125.873874,1.44270032 C125.788123,1.04646584 125.488046,0.752277332 125.100949,0.666093424 C124.607693,0.556327907 124.108623,0.833068137 123.937649,1.30956469 C123.315185,3.04297159 122.473637,4.64990492 121.514194,5.95905434 C121.482368,6.00241067 121.488501,6.0619463 121.528469,6.09800607 C121.97446,6.49984515 122.419606,6.90792331 122.865175,7.32329802 C122.911698,7.36665434 122.986348,7.35999227 123.023989,7.30881067 C123.499587,6.66301296 123.924643,6.00399687 124.292073,5.33927044 L127.312826,5.33927044 L127.312826,7.27148193 C127.312826,7.66020837 127.312826,8.060144 127.274127,8.48218078 L121.181551,8.48218078 C120.655835,8.48218078 120.215659,8.89649802 120.200433,9.40588193 C120.192397,9.67818078 120.297075,9.93482906 120.494906,10.1241164 C120.678568,10.2998681 120.929584,10.387744 121.183877,10.387744 L126.892528,10.387744 C126.199327,12.487036 124.607376,14.1786727 122.037267,15.5504245 L121.882048,15.6332245 C121.826748,15.6627279 121.809196,15.7336842 121.844194,15.7856061 L122.864118,17.2297946 C122.893829,17.2717762 122.949235,17.286475 122.995758,17.2643739 C123.0629,17.2323325 123.153198,17.1888704 123.18661,17.1702589 C125.553919,15.8566681 127.205611,14.278498 128.240548,12.3375095 C128.683474,11.4329486 128.85043,10.9119325 128.946649,10.5592658 C130.616844,12.128236 133.417773,15.7114773 133.417773,15.7114773 C133.448331,15.7648796 133.517693,15.7809532 133.568658,15.7465854 L135.148978,14.6799141 C135.196242,14.6479785 135.20967,14.584213 135.179219,14.5358865 C135.179219,14.5358865 133.007732,11.7764153 131.586226,10.387744 L135.30737,10.387744 C135.365841,10.387744 135.413105,10.3403693 135.413105,10.2819969 L135.413105,8.58792791 C135.413105,8.52955549 135.365841,8.48218078 135.30737,8.48218078" id="Fill-60"></path>
                </g>
            </g>
        </g>
    </g>
</svg>