<?xml version="1.0" encoding="UTF-8"?>
<svg width="300px" height="100px" viewBox="0 0 300 100" version="1.1" xmlns="http://www.w3.org/2000/svg" xmlns:xlink="http://www.w3.org/1999/xlink">
    <!-- Generator: Sketch 52.4 (67378) - http://www.bohemiancoding.com/sketch -->
    <title>繁體字</title>
    <desc>Created with Sketch.</desc>
    <g id="繁體字" stroke="none" stroke-width="1" fill="none" fill-rule="evenodd">
        <g id="02圖標/06Logo/中英/淺色/橫式-繁體" transform="translate(10.000000, 24.333333)">
            <g id="12-logo/中英/淺色/橫式-繁體">
                <g id="英" transform="translate(75.600000, 0.000000)" fill="#FEFEFE">
                    <path d="M64.155364,3.73896917 C64.155364,3.22728 64.3642705,2.79374752 64.7761427,2.44935134 C65.1770473,2.11658446 65.6760075,1.94734242 66.2590525,1.94734242 L73.2530464,1.94734242 C73.8361567,1.94734242 74.3351168,2.11658446 74.7356298,2.44935134 C75.1490035,2.79498191 75.3586281,3.22851439 75.3586281,3.73896917 L75.3586281,19.6833883 C75.3586281,20.198066 75.1490035,20.6321182 74.7356298,20.9729411 C74.3375323,21.3069424 73.8388333,21.4761845 73.2530464,21.4761845 L66.2590525,21.4761845 C65.6732656,21.4761845 65.1745666,21.3069424 64.7761427,20.9722915 C64.3642705,20.6321182 64.155364,20.198066 64.155364,19.6833883 L64.155364,3.73896917 Z M76.4100807,1.16285197 C75.5556531,0.451710573 74.4934288,0.0909424204 73.2530464,0.0909424204 L66.2590525,0.0909424204 C65.0186701,0.0909424204 63.9563805,0.451710573 63.1019529,1.16285197 C62.2508547,1.87035516 61.8372199,2.71312204 61.8372199,3.73896917 L61.8372199,19.6833883 C61.8372199,20.708001 62.2508547,21.5519373 63.1019529,22.2631437 C63.955793,22.9731157 65.0180173,23.3326494 66.2590525,23.3326494 L73.2530464,23.3326494 C74.5108594,23.3326494 75.5435104,22.9827959 76.4104071,22.2631437 C77.2636596,21.5507029 77.6785349,20.7067017 77.6785349,19.6833883 L77.6785349,3.73896917 C77.6785349,2.71552586 77.2636596,1.87282395 76.4100807,1.16285197 Z" id="Fill-8"></path>
                    <path d="M134.040896,12.4471769 L143.142169,12.4471769 C143.724561,12.4471769 144.222999,12.616419 144.622598,12.9504852 C145.035711,13.2948164 145.24527,13.7282839 145.24527,14.2400381 L145.24527,19.6833948 C145.24527,20.1980725 145.035711,20.6321247 144.622011,20.9728827 C144.22424,21.3069489 143.72652,21.476191 143.142169,21.476191 L134.040896,21.4785948 L134.040896,12.4471769 Z M145.013188,8.79421261 C145.013188,9.30720115 144.802911,9.74255274 144.388754,10.0875336 C143.995161,10.4191311 143.496723,10.5870738 142.908259,10.5870738 L134.040896,10.5907769 L134.040896,1.94734892 L142.908259,1.94734892 C143.491892,1.94734892 143.990852,2.11717567 144.391104,2.45182662 C144.803564,2.79557312 145.013188,3.22910561 145.013188,3.73897567 L145.013188,8.79421261 Z M145.60472,11.7347362 L145.173393,11.5402865 L145.589509,11.3097795 C146.114648,11.0175527 146.545387,10.6543158 146.868278,10.2294241 C147.180201,9.81642153 147.33192,9.34657185 147.33192,8.79421261 L147.33192,3.73897567 C147.33192,2.71683172 146.917697,1.87399987 146.065359,1.16285847 C145.211192,0.45171707 144.148707,0.0909489172 142.908259,0.0909489172 L131.722687,0.0933527389 L131.725755,23.3326559 L143.142169,23.3326559 C144.399656,23.3326559 145.431132,22.981568 146.295613,22.2601617 C147.149192,21.5531132 147.564002,20.7104113 147.564002,19.6833948 L147.564002,14.2400381 C147.564002,13.6974241 147.392176,13.2256903 147.038276,12.7964457 C146.668446,12.3568062 146.185937,11.9998062 145.60472,11.7347362 Z" id="Fill-10"></path>
                    <path d="M160.655911,3.73896917 C160.655911,3.22663032 160.864948,2.79257809 161.276755,2.44935134 C161.675767,2.11658446 162.175315,1.94734242 162.761428,1.94734242 L169.753594,1.94734242 C170.337226,1.94734242 170.835664,2.11658446 171.234741,2.44935134 C171.64707,2.7931628 171.856695,3.22728 171.856695,3.73896917 L171.856695,19.6833883 C171.856695,20.1998851 171.647788,20.6334176 171.234088,20.9729411 C170.83808,21.3069424 170.339642,21.4761845 169.753594,21.4761845 L162.761428,21.4761845 C162.172834,21.4761845 161.673286,21.3069424 161.276103,20.9722915 C160.864948,20.6340023 160.655911,20.2004698 160.655911,19.6833883 L160.655911,3.73896917 Z M172.910693,1.16285197 C172.05842,0.451710573 170.995869,0.0909424204 169.753594,0.0909424204 L162.761428,0.0909424204 C161.51974,0.0909424204 160.456602,0.451710573 159.602631,1.16285197 C158.751467,1.87035516 158.337833,2.71312204 158.337833,3.73896917 L158.337833,19.6833883 C158.337833,20.708001 158.751467,21.5519373 159.602631,22.2631437 C160.456602,22.9731157 161.519218,23.3326494 162.761428,23.3326494 L169.753594,23.3326494 C171.009971,23.3326494 172.042491,22.9827959 172.910693,22.2631437 C173.764207,21.5507029 174.179082,20.7067017 174.179082,19.6833883 L174.179082,3.73896917 C174.179082,2.71552586 173.764207,1.87282395 172.910693,1.16285197 Z" id="Fill-12"></path>
                    <path d="M120.695531,0.0909229299 L118.889142,0.0909229299 C118.745976,0.0909229299 118.633885,0.203057962 118.633885,0.346182803 L118.633885,23.0810083 C118.633885,23.222314 118.745976,23.3326299 118.889142,23.3326299 L120.695531,23.3326299 C120.837457,23.3326299 120.952616,23.2198452 120.952616,23.0810083 L120.952616,0.346182803 C120.952616,0.205526752 120.837457,0.0909229299 120.695531,0.0909229299" id="Fill-14"></path>
                    <path d="M4.72280811,1.94225541 L15.8513229,1.94225541 C16.19863,1.94225541 16.3671914,1.76853057 16.3671914,1.41101083 L16.3641884,0.0909229299 L4.484263,0.0909229299 C1.77742224,0.0909229299 0.673286081,1.30205924 0.673286081,4.27136369 L0.673286081,19.2308656 C0.673286081,22.2138134 1.96067242,23.6636427 4.6092152,23.6636427 L16.3671914,23.6636427 L16.3671914,22.3399166 C16.3671914,21.9954554 16.2058764,21.8419357 15.8440765,21.8419357 L5.10060247,21.8419357 C3.45389695,21.8419357 2.78226253,21.1649675 2.78226253,19.5058108 L2.77932478,12.8172096 L13.4158648,12.8172096 C13.7414325,12.8172096 13.8994833,12.6458885 13.8994833,12.2930465 L13.8964803,10.9361217 L2.78226253,10.9122783 L2.78226253,4.02747325 C2.78226253,2.4371828 3.05011984,1.94225541 4.72280811,1.94225541" id="Fill-16"></path>
                    <path d="M51.0430469,0.324905732 C50.9918648,0.106092994 50.8337487,0 50.5596242,0 L48.2106664,0.00240382166 L39.325938,14.8875822 L30.4331798,0 L28.0774978,0 C27.8031121,0 27.64591,0.105443312 27.5791905,0.355895541 L27.579778,0.462638217 L27.5718788,0.531699363 L27.5791905,8.79792229 L27.5822588,23.6515261 L29.7230935,23.6478879 L29.7178708,2.63127516 L38.3895146,16.9119898 L40.2500881,16.9108204 L48.8836064,2.60158471 L48.9262364,23.6515261 L51.0670711,23.6515261 L51.0664183,0.521304459 L51.0430469,0.324905732 Z" id="Fill-18"></path>
                    <path d="M107.462884,0.0909229299 L88.9448235,0.0915076433 L88.8278359,0.106645223 C88.4879058,0.160049045 88.4486706,0.426158599 88.4486706,0.621452866 L88.4516736,1.94732293 L96.9949704,1.94374968 L96.9980387,23.3326299 L99.313702,23.3326299 L99.310699,1.94732293 L107.597563,1.94732293 L107.863788,1.94186561 L107.863788,0.621452866 C107.863788,0.308566242 107.749216,0.15036879 107.462884,0.0909229299" id="Fill-20"></path>
                    <path d="M203.961695,0.0909229299 L185.445723,0.0915076433 L185.326386,0.106645223 C184.98639,0.160049045 184.947416,0.426158599 184.947416,0.621452866 L184.950484,1.94732293 L193.495609,1.94374968 L193.498678,23.3326299 L195.814276,23.3326299 L195.811273,1.94732293 L204.096309,1.94732293 L204.364362,1.94186561 L204.364362,0.621452866 C204.364362,0.313438854 204.246134,0.15036879 203.961695,0.0909229299" id="Fill-22"></path>
                </g>
                <g id="繁中" transform="translate(74.666667, 31.527273)" fill="#FEFEFE">
                    <path d="M40.0056327,4.94010511 L44.8394681,4.94010511 L44.8394681,6.72542995 C44.8394681,6.76135734 44.8102212,6.7903981 44.7741848,6.7903981 L40.0064161,6.7903981 L40.0064161,4.97057517 C40.0064161,4.96037517 40.006155,4.95024014 40.0056327,4.94010511 M44.8394681,2.14517517 L44.8394681,3.82979937 L39.9850685,3.82979937 L39.9850685,2.37256371 C39.9850685,2.21111785 40.116549,2.08020702 40.2788432,2.08020702 L44.7741848,2.08020702 C44.8102212,2.08020702 44.8394681,2.10931275 44.8394681,2.14517517 M46.0315408,0.949826126 L40.0457819,0.949826126 C39.3066446,0.949826126 38.7074746,1.54610383 38.7074746,2.28167326 L38.7074746,18.5501535 C38.7074746,18.5860809 38.7367215,18.6151217 38.7727579,18.6151217 L39.9411328,18.6151217 C39.9771692,18.6151217 40.0064161,18.5860809 40.0064161,18.5501535 L40.0064161,7.92084396 L46.0315408,7.92084396 C46.0675772,7.92084396 46.0968241,7.89173823 46.0968241,7.85587581 L46.0968241,1.01479428 C46.0968241,0.978931859 46.0675772,0.949826126 46.0315408,0.949826126" id="Fill-25"></path>
                    <path d="M54.1285611,3.12733772 L54.1232732,3.12850715 L54.1235343,3.82983836 L49.112259,3.82983836 L49.112259,2.14521415 C49.112259,2.10935173 49.1415059,2.080246 49.1775422,2.080246 L53.9000696,2.080246 C54.0262622,2.080246 54.1285611,2.18205109 54.1285611,2.30763453 L54.1285611,3.12733772 Z M54.1246441,6.79043708 L49.1775422,6.79043708 C49.1415059,6.79043708 49.112259,6.76133135 49.112259,6.72546893 L49.112259,4.94007912 L54.1240566,4.94007912 L54.1246441,6.79043708 Z M55.4263928,2.28164727 C55.4263928,1.54614281 54.8272228,0.949800139 54.0880855,0.949800139 L47.9201209,0.949800139 C47.8840846,0.949800139 47.8548376,0.978905871 47.8548376,1.01476829 L47.8548376,7.87605492 C47.8548376,7.9119823 47.8840846,7.94102307 47.9201209,7.94102307 L54.1251011,7.94102307 L54.1285611,16.9992728 C54.1285611,17.2154218 54.1177894,17.2436829 53.837006,17.2601849 C53.7380365,17.266032 53.1918113,17.2873415 52.1485844,17.1423326 L52.0550335,17.129339 C52.0202375,17.1244664 51.9877917,17.1479199 51.9817204,17.182353 L51.783455,18.3009747 C51.7770573,18.3368371 51.8014732,18.3708154 51.8376402,18.3764677 L51.9363485,18.3918001 C52.2449426,18.4397466 53.0664021,18.5559747 53.7672834,18.5559747 C54.0711118,18.5559747 54.3524175,18.5341454 54.5592349,18.4753492 L54.5660244,18.4732702 C55.2093259,18.2597849 55.4263928,17.9120103 55.4263928,17.0951008 L55.4260664,16.1566358 L55.4263928,16.1566358 L55.4263928,2.28164727 Z" id="Fill-27"></path>
                    <path d="M44.4475791,12.322995 L44.4475791,10.5455313 C44.4475791,10.509604 44.476826,10.4805632 44.5128624,10.4805632 L49.2961685,10.4805632 C49.4223611,10.4805632 49.52466,10.5823683 49.52466,10.7079517 L49.52466,12.322995 L44.4475791,12.322995 Z M49.52466,13.4937212 L49.52466,15.5064345 C49.52466,15.542297 49.4954131,15.5714027 49.4593767,15.5714027 L44.5128624,15.5714027 C44.476826,15.5714027 44.4475791,15.542297 44.4475791,15.5064345 L44.4475791,13.4937212 L49.52466,13.4937212 Z M49.4234056,9.28969695 L43.2757442,9.28969695 C43.2397078,9.28969695 43.2104609,9.31873772 43.2104609,9.35466511 L43.2104609,16.6771606 C43.2104609,16.7130231 43.2397078,16.7421288 43.2757442,16.7421288 L50.6964296,16.7421288 C50.732466,16.7421288 50.7617129,16.7130231 50.7617129,16.6771606 L50.7617129,10.6215441 C50.7617129,9.88597466 50.1625429,9.28969695 49.4234056,9.28969695 Z" id="Fill-29"></path>
                    <path d="M9.65611347,5.0708925 L4.84506194,5.0708925 C5.23996052,4.04030269 5.60502464,2.91674345 5.93131048,1.7271116 C5.97707407,1.56046829 5.95109132,1.38050651 5.86015171,1.23335364 C5.76921209,1.08626574 5.61964809,0.982121795 5.44971571,0.947623706 L5.38286563,0.934045362 C5.05227108,0.867063196 4.72918411,1.06885428 4.64718831,1.39388995 C3.8049034,4.73481224 2.47475651,7.71983899 0.997983368,9.5837753 L0.930741587,9.66855874 C0.906782622,9.69876893 0.914355483,9.74301224 0.947062408,9.76367211 L1.94863853,10.4808556 C1.97742846,10.5062581 2.02188638,10.5014505 2.04460496,10.4705906 L2.10812559,10.3843129 C2.86371431,9.35697148 3.61094676,7.99757785 4.33004212,6.34231925 L5.49626269,6.34231925 L5.49626269,19.3885091 C5.49626269,19.4243715 5.5255096,19.4534772 5.56154597,19.4534772 L6.70863853,19.4534772 C6.7446749,19.4534772 6.77392182,19.4243715 6.77392182,19.3885091 L6.77392182,6.34231925 L9.65611347,6.34231925 C9.69214984,6.34231925 9.72139675,6.31327848 9.72139675,6.27735109 L9.72139675,5.13586065 C9.72139675,5.09999823 9.69214984,5.0708925 9.65611347,5.0708925" id="Fill-31"></path>
                    <path d="M12.5925229,5.0708925 C12.9594802,4.07012307 13.2928167,2.97540969 13.6089183,1.73360842 C13.6505038,1.57021351 13.6341177,1.39395492 13.5497064,1.24784154 C13.4592238,1.09126829 13.3108348,0.983875935 13.1345047,0.946519247 L13.1034951,0.939957464 C12.7719866,0.869661922 12.4386502,1.07918422 12.3606367,1.40701351 C11.5451179,4.83375874 10.2923317,7.736146 8.83311976,9.57961734 L8.76666138,9.66355619 C8.74407337,9.69214218 8.7494266,9.73365683 8.77860822,9.75561606 L9.74871781,10.4849485 C9.77783415,10.5068428 9.81922375,10.5008008 9.84076723,10.4715001 L9.91760566,10.3670963 C10.6867733,9.32227848 11.4019517,8.00491925 12.1025719,6.34231925 L15.2710307,6.34231925 L15.2710307,17.8857307 C15.2710307,18.1019447 15.260259,18.1302059 14.9794756,18.1466428 C14.880702,18.15236 14.3347379,18.1737995 13.2909887,18.0287906 L13.1974378,18.015797 C13.1626418,18.0109243 13.130196,18.0343778 13.1241247,18.068811 L12.9259899,19.1874326 C12.9195921,19.223295 12.9440734,19.2572734 12.980175,19.2629256 L13.0788181,19.2782581 C13.3874774,19.3262046 14.208937,19.4424326 14.909753,19.4424326 C15.2135814,19.4424326 15.4948871,19.4206033 15.7017045,19.3618071 L15.708494,19.3597282 C16.3517954,19.1462428 16.5688624,18.7984683 16.5688624,17.9816237 L16.5688624,6.34231925 L19.4486385,6.34231925 C19.4846749,6.34231925 19.5139218,6.31327848 19.5139218,6.27735109 L19.5139218,5.13586065 C19.5139218,5.09999823 19.4846749,5.0708925 19.4486385,5.0708925 L12.5925229,5.0708925 Z" id="Fill-33"></path>
                    <path d="M157.65816,3.55604307 C158.85885,4.35450167 160.025984,5.33656027 160.562352,5.99982014 L160.632858,6.0870074 C160.657731,6.11773734 160.704082,6.11949148 160.73124,6.09077555 L161.515292,5.26191186 C161.53788,5.23800358 161.53899,5.20116664 161.518034,5.17589402 L161.462739,5.10962651 C160.828512,4.34845963 159.553007,3.32547109 158.288861,2.56404434 C158.05704,2.42436281 157.760393,2.46061504 157.567742,2.65233606 C157.442398,2.77700995 157.38051,2.94911058 157.39794,3.12439466 C157.415306,3.30032842 157.510097,3.45761632 157.65816,3.55604307" id="Fill-35"></path>
                    <path d="M156.853308,8.74578358 C158.104266,9.51643581 159.464117,10.5755466 160.165194,11.325539 L160.237724,11.4031759 C160.263707,11.4310473 160.308099,11.4307874 160.333821,11.4026562 L161.073154,10.5932829 C161.095938,10.5682702 161.095742,10.5300689 161.072632,10.5053161 L161.011462,10.4397632 C160.30255,9.68009058 158.825516,8.57985492 157.419575,7.76424472 C157.197482,7.63534791 156.915066,7.67231479 156.732665,7.85383581 C156.590608,7.99514154 156.533616,8.19803708 156.584667,8.39644982 C156.622532,8.54340778 156.723656,8.66593772 156.853308,8.74578358" id="Fill-37"></path>
                    <path d="M166.341796,12.9428562 C166.280234,12.6223033 165.957669,12.4039454 165.623484,12.4558549 L163.685876,12.7572422 L163.685876,1.47883581 C163.685876,1.13794791 163.408226,0.861638356 163.065685,0.861638356 L163.028539,0.861638356 C162.685997,0.861638356 162.408348,1.13794791 162.408348,1.47883581 L162.408348,12.9487033 L155.364477,14.0300982 C155.328245,14.0356855 155.303698,14.0697938 155.310161,14.1056562 L155.506403,15.2040728 C155.512605,15.2388307 155.545573,15.2622842 155.580695,15.2568919 L162.408348,14.203953 L162.408348,19.3481313 C162.408348,19.3840587 162.437594,19.4130995 162.473631,19.4130995 L163.620593,19.4130995 C163.656694,19.4130995 163.685876,19.3840587 163.685876,19.3481313 L163.685876,14.0115173 L165.816722,13.6658868 C165.978299,13.6397046 166.128777,13.5584944 166.227615,13.4284931 C166.334158,13.2882919 166.374764,13.1147619 166.341796,12.9428562" id="Fill-39"></path>
                    <path d="M156.032071,12.5054646 C155.599177,11.6523028 155.143761,10.8862633 154.678422,10.2287856 C154.214062,9.57221746 153.753488,8.99874358 153.310411,8.52558052 C153.266475,8.47776396 153.209026,8.41416014 153.14211,8.34022638 C153.01076,8.19489262 152.834561,7.99985823 152.656403,7.80911173 L152.656403,7.79247988 L155.788629,7.79247988 C155.824731,7.79247988 155.853912,7.76337415 155.853912,7.72751173 L155.853912,6.60616141 C155.853912,6.57029899 155.824731,6.54119326 155.788629,6.54119326 L152.656403,6.54119326 L152.656403,3.10600218 C153.360222,2.93760472 154.00855,2.75231555 154.585785,2.55461746 C154.771973,2.49088371 154.927739,2.35250154 154.993022,2.16760218 C155.058697,1.98166332 155.032649,1.78052192 154.922255,1.6175818 L154.904302,1.59094485 C154.740702,1.3495232 154.424143,1.25518944 154.151716,1.36628498 C152.936794,1.86199199 150.870121,2.36607988 148.175032,2.82397543 C148.133511,2.83099199 148.038524,2.84807861 147.969455,2.86048753 C147.928196,2.86795887 147.904759,2.91148753 147.921145,2.94981874 L148.347706,3.94831428 C148.359587,3.97605568 148.38903,3.99203785 148.41893,3.98690536 C148.451049,3.98138307 148.49616,3.97365186 148.548387,3.96488116 C149.443812,3.81629899 150.419667,3.6065818 151.363402,3.40381619 L151.378874,3.40050281 L151.378874,6.54119326 L148.396734,6.54119326 C148.054192,6.54119326 147.776542,6.81750281 147.776542,7.15839071 L147.776542,7.17528243 C147.776542,7.51610536 148.054192,7.79247988 148.396734,7.79247988 L151.171534,7.79247988 C151.172579,7.79397415 151.172644,7.79410409 151.173689,7.79559836 C149.799019,11.4518761 148.272826,13.530857 147.491973,14.4389168 L147.428256,14.5129805 C147.404885,14.5402022 147.408018,14.581262 147.435437,14.6045856 L148.267146,15.3129984 C148.2945,15.3363869 148.335694,15.3332035 148.359196,15.3059168 L148.422847,15.2318531 C149.047216,14.505899 149.582148,13.7925487 150.012756,13.1117474 C150.442908,12.4323754 150.797135,11.7884111 151.065188,11.1993449 C151.092411,11.1411984 151.128839,11.0647958 151.171143,10.9759843 C151.231073,10.8503359 151.303537,10.6983754 151.378874,10.5370595 L151.378874,19.3280952 C151.378874,19.3639576 151.408056,19.3930633 151.444157,19.3930633 L152.591119,19.3930633 C152.627156,19.3930633 152.656403,19.3639576 152.656403,19.3280952 L152.656403,9.64173339 C153.955932,11.143862 154.618361,12.4324404 154.912332,13.0042901 L154.983229,13.1420226 C154.99955,13.173792 155.038655,13.1864608 155.070709,13.1703487 L156.047347,12.6797742 C156.079532,12.6635971 156.092458,12.6244863 156.076202,12.592457 L156.032071,12.5054646 Z" id="Fill-41"></path>
                    <path d="M192.390779,10.9586638 L192.066843,9.92982816 C192.056137,9.89578485 192.019905,9.87668422 191.985566,9.88701415 C191.651837,9.98790969 190.070154,10.4657505 189.778534,10.5532626 L189.778534,6.32214664 L192.100921,6.32214664 C192.136957,6.32214664 192.166204,6.29310587 192.166204,6.25717848 L192.166204,5.13589313 C192.166204,5.09996574 192.136957,5.07092498 192.100921,5.07092498 L189.778534,5.07092498 L189.778534,1.51671224 C189.778534,1.51235937 189.778338,1.50807148 189.778077,1.50365364 L189.778077,1.47883581 C189.778077,1.13801288 189.500427,0.861638356 189.157885,0.861638356 L189.120674,0.861638356 C188.88585,0.861638356 188.668326,0.99690205 188.564526,1.20674918 C188.509296,1.30114791 188.480114,1.40815046 188.480114,1.51677721 L188.480245,5.07092498 L186.348158,5.07092498 C186.005682,5.07092498 185.727967,5.34723453 185.727967,5.68812243 L185.727967,5.70494918 C185.727967,6.04583708 186.005682,6.32214664 186.348158,6.32214664 L188.48031,6.32214664 L188.480506,10.9393033 C187.608256,11.2017747 186.777788,11.4422218 186.071553,11.6366065 C185.898813,11.6841632 185.758846,11.7998715 185.679723,11.9611224 C185.605365,12.1126931 185.602166,12.2894065 185.656939,12.4490333 L185.674957,12.5015925 C185.783327,12.8176626 186.124498,12.9913224 186.445039,12.8924409 C186.656818,12.8271479 186.874603,12.7588664 187.097676,12.6888957 C187.543887,12.5490192 188.003351,12.4049849 188.480506,12.2637441 L188.480702,17.8971326 C188.480702,18.1133466 188.46993,18.1416078 188.189212,18.1580447 C188.089916,18.1637619 187.543691,18.1851364 186.50066,18.0401925 L186.407109,18.0271989 C186.372313,18.0223912 186.339867,18.0458447 186.333796,18.0802778 L186.135531,19.1988345 C186.129133,19.234697 186.153614,19.2687403 186.189716,19.2743275 L186.288424,19.28966 C186.597018,19.3376065 187.418478,19.4538995 188.119294,19.4538995 C188.423253,19.4538995 188.704493,19.4320052 188.911376,19.3732091 L188.918231,19.3711301 C189.53333,19.1670001 189.758035,18.8344931 189.776706,18.1015874 C189.777097,18.0896333 189.777228,18.0770944 189.777424,18.0645556 L189.778011,18.0306422 C189.778272,18.0183632 189.778534,18.0060842 189.778534,17.9930256 L189.778534,11.8554842 C190.648629,11.5674804 192.03962,11.1356371 192.348345,11.040004 C192.382814,11.0292842 192.401616,10.992967 192.390779,10.9586638" id="Fill-43"></path>
                    <path d="M197.817341,14.6756803 C196.463627,13.2979656 195.411652,11.6479045 194.687203,9.76610192 L201.295699,9.76610192 C200.555322,11.5963198 199.386424,13.2463159 197.817341,14.6756803 Z M203.699495,18.1982535 C201.833568,17.6414764 200.161337,16.7482293 198.726411,15.5419656 C200.598343,13.8420089 202.194715,11.414344 202.817257,9.30853122 C202.873857,9.11720001 202.836711,8.91599364 202.715284,8.75747135 C202.594576,8.59972867 202.400488,8.5148153 202.201244,8.5148153 L198.46012,8.5148153 L198.46012,5.45611466 L203.433988,5.45611466 C203.470024,5.45611466 203.499271,5.4270739 203.499271,5.39114651 L203.499271,4.26986116 C203.499271,4.23393377 203.470024,4.20489301 203.433988,4.20489301 L198.46012,4.20489301 L198.46012,1.47882931 C198.46012,1.13800638 198.182405,0.861631859 197.839929,0.861631859 L197.78248,0.861631859 C197.439938,0.861631859 197.162288,1.13800638 197.162288,1.47882931 L197.162288,4.20489301 L193.175438,4.20489301 C192.832962,4.20489301 192.555247,4.48120256 192.555247,4.82209046 L192.555247,4.83891721 C192.555247,5.17980511 192.832962,5.45611466 193.175438,5.45611466 L197.162288,5.45611466 L197.162288,8.5148153 L193.208733,8.5148153 C192.866257,8.5148153 192.588542,8.79112485 192.588542,9.13201275 L192.588542,9.14890447 C192.588542,9.4897274 192.866257,9.76610192 193.208733,9.76610192 L193.365935,9.76610192 C194.193205,12.0155592 195.354268,13.9321847 196.819682,15.467707 C195.261435,16.6702026 193.399295,17.6018459 191.422713,18.166614 L191.322046,18.1953299 C191.285748,18.2057249 191.265837,18.2445108 191.278698,18.2799185 L191.685478,19.3998395 C191.697359,19.4325835 191.733069,19.4501898 191.766364,19.4397949 L191.855933,19.4117936 C194.055065,18.7247554 196.041701,17.6989083 197.762829,16.3619936 C199.320227,17.762707 201.173424,18.7921924 203.273522,19.4229682 L203.362372,19.4496701 C203.395601,19.4596752 203.430854,19.4420038 203.442671,19.4095847 L203.84129,18.3121427 C203.854021,18.2771249 203.834566,18.2385338 203.79866,18.227814 L203.699495,18.1982535 Z" id="Fill-46"></path>
                    <path d="M85.9237525,3.82482931 L90.0751165,3.82482931 C90.2373455,3.82482931 90.3688913,3.95574014 90.3688913,4.117186 L90.3688913,8.24844587 C90.3688913,8.28437326 90.3396444,8.31341402 90.303608,8.31341402 L86.152244,8.31341402 C85.9900151,8.31341402 85.8584693,8.18256816 85.8584693,8.02105734 L85.8584693,3.88979746 C85.8584693,3.85393504 85.8877162,3.82482931 85.9237525,3.82482931 M90.3283504,2.61388791 L84.6663965,2.61388791 C84.6303601,2.61388791 84.6011132,2.64299364 84.6011132,2.67885606 L84.6011132,8.19263823 C84.6011132,8.92820765 85.2002832,9.52448536 85.9394205,9.52448536 L91.6013744,9.52448536 C91.6374107,9.52448536 91.6666577,9.49537963 91.6666577,9.45951721 L91.6666577,3.94573504 C91.6666577,3.21016562 91.0674877,2.61388791 90.3283504,2.61388791" id="Fill-48"></path>
                    <path d="M78.9371683,14.1943507 L78.9371683,12.2076246 C78.9371683,12.1717622 78.9664152,12.1426564 79.0024515,12.1426564 L88.3999148,12.1426564 C88.5261074,12.1426564 88.6284063,12.2444615 88.6284063,12.370045 L88.6284063,14.1943507 L78.9371683,14.1943507 Z M88.6284063,15.3247966 L88.6284063,18.1066029 C88.6284063,18.1425303 88.5991594,18.1715711 88.563123,18.1715711 L79.0024515,18.1715711 C78.9664152,18.1715711 78.9371683,18.1425303 78.9371683,18.1066029 L78.9371683,15.3247966 L88.6284063,15.3247966 Z M88.6081685,10.9719303 L77.7248577,10.9719303 C77.688756,10.9719303 77.6595744,11.0010361 77.6595744,11.0368985 L77.6595744,19.3679596 C77.6595744,19.403887 77.688756,19.4329278 77.7248577,19.4329278 L89.8811925,19.4329278 C89.9172289,19.4329278 89.9464758,19.403887 89.9464758,19.3679596 L89.9464758,12.3037775 C89.9464758,11.568208 89.3472405,10.9719303 88.6081685,10.9719303 Z" id="Fill-50"></path>
                    <path d="M122.37784,9.88897619 L125.720997,9.88897619 C127.453419,9.88897619 127.693009,8.91438893 127.826709,6.69052906 L127.832454,6.59489594 C127.834608,6.55948829 127.807842,6.52895326 127.772328,6.5262246 L126.654613,6.44027173 C126.617858,6.43741313 126.586,6.46541441 126.584368,6.50212141 L126.579798,6.60262715 C126.495256,8.46825262 126.33009,8.65776472 125.660218,8.65776472 L122.398143,8.65776472 C121.391801,8.65776472 121.347082,8.52737364 121.347082,8.07506536 L121.347082,5.6928781 C122.163645,5.51558001 122.914991,5.30456345 123.58212,5.06509084 C124.3413,4.79300422 125.018744,4.50246664 125.594347,4.20231377 C125.927945,4.03248702 126.202461,3.88578893 126.432715,3.75416345 C126.579407,3.67035453 126.694697,3.53742969 126.742876,3.37611377 C126.794711,3.20271377 126.771339,3.02067301 126.678311,2.86630867 C126.514189,2.59415708 126.157089,2.50268192 125.882246,2.66224371 C125.661719,2.79023097 125.375779,2.94381568 125.030952,3.11935963 C124.500526,3.39592906 123.873219,3.66457237 123.166592,3.9178832 C122.620237,4.11395708 122.008989,4.29047555 121.347082,4.44334562 L121.347082,1.50100294 C121.347082,1.16011504 121.069432,0.883805489 120.726891,0.883805489 L120.689679,0.883805489 C120.347138,0.883805489 120.069488,1.16011504 120.069488,1.50100294 L120.069488,8.09527046 C120.069488,9.46986664 120.608793,9.88897619 122.37784,9.88897619" id="Fill-52"></path>
                    <path d="M126.78516,15.9864972 C126.748405,15.9837036 126.716612,16.0117049 126.714915,16.0483469 L126.710345,16.1488526 C126.625869,18.0144781 126.460637,18.2039902 125.79083,18.2039902 L122.398123,18.2039902 C121.391847,18.2039902 121.347062,18.0735991 121.347062,17.6213558 L121.347062,14.7196832 C122.197769,14.5835749 122.982082,14.4082908 123.679961,14.1981838 C124.452196,13.9660526 125.144003,13.7112475 125.734752,13.4413698 C126.089828,13.2834322 126.379947,13.1469342 126.621756,13.0242743 C126.892877,12.8866717 127.024488,12.5654692 126.927934,12.2772705 L126.915465,12.2399138 C126.859975,12.0743749 126.745011,11.9490513 126.591595,11.8869418 C126.437461,11.8245724 126.266223,11.8347074 126.109347,11.9152029 C125.881574,12.0322756 125.585906,12.1717622 125.229068,12.3306093 C124.684605,12.5791775 124.044176,12.814817 123.325407,13.0308361 C122.73257,13.2093036 122.067855,13.361524 121.347062,13.483859 L121.347062,11.0472284 C121.347062,10.7064055 121.069413,10.430031 120.726871,10.430031 L120.68966,10.430031 C120.347118,10.430031 120.069469,10.7064055 120.069469,11.0472284 L120.069469,17.6414959 C120.069469,19.0161571 120.608839,19.4352017 122.37782,19.4352017 L125.851544,19.4352017 C127.583966,19.4352017 127.823556,18.4606144 127.957256,16.2367545 L127.963001,16.1411864 C127.965155,16.1057787 127.938454,16.0752437 127.90294,16.072515 L126.78516,15.9864972 Z" id="Fill-54"></path>
                    <path d="M117.012494,14.0351333 L112.321041,14.0351333 L112.321041,12.1245498 L117.011972,12.1245498 L117.012494,14.0351333 Z M112.321041,10.9738989 L112.321041,9.22885428 C112.321041,9.19299186 112.350223,9.16388613 112.386325,9.16388613 L116.94584,9.16388613 C116.981876,9.16388613 117.011123,9.19299186 117.011123,9.22885428 L117.01158,10.9738989 L112.321041,10.9738989 Z M111.128969,19.4352212 L112.255758,19.4352212 C112.291795,19.4352212 112.321041,19.4061154 112.321041,19.370253 L112.321041,15.1857842 L117.01282,15.1857842 L117.013604,17.8789091 C117.013604,18.113704 116.98057,18.1246836 116.721983,18.1398212 C116.623275,18.1455384 116.07705,18.1669778 115.033627,18.0219689 L114.940011,18.0089753 C114.905215,18.0041677 114.872834,18.0276212 114.866698,18.0620543 L114.668432,19.1806759 C114.6621,19.2164734 114.686581,19.2505167 114.722683,19.2561689 L114.821391,19.2715014 C115.129985,19.3193829 115.951445,19.4356759 116.652261,19.4356759 C116.956155,19.4356759 117.237395,19.4137817 117.444212,19.3549855 L117.451067,19.3529065 C118.066231,19.1487766 118.290871,18.8162696 118.309608,18.0827142 L118.31137,8.03798804 C118.31137,8.00212562 118.282189,7.97301988 118.246087,7.97301988 L111.128969,7.97301988 C111.092932,7.97301988 111.063685,8.00212562 111.063685,8.03798804 L111.063685,19.370253 C111.063685,19.4061154 111.092932,19.4352212 111.128969,19.4352212 Z" id="Fill-56"></path>
                    <path d="M116.425904,3.94502689 L117.050208,5.33748931 C117.069467,5.38049823 117.037935,5.42896447 116.990604,5.42896447 L112.371812,5.42896447 C112.324482,5.42896447 112.292885,5.38036829 112.312274,5.33735937 L113.930189,1.7509874 C114.063237,1.45408294 113.939329,1.1012409 113.654041,0.964482942 C113.581577,0.929789948 113.504347,0.91036447 113.424505,0.906661285 C113.169705,0.880089311 112.930833,1.01749695 112.826967,1.24962816 L110.456335,6.50691606 C110.436946,6.54992498 110.468543,6.59852116 110.515939,6.59852116 L118.801628,6.59839122 C118.848893,6.59839122 118.88049,6.54992498 118.861232,6.50698103 L117.499422,3.46939504 L116.425904,3.94502689 Z" id="Fill-58"></path>
                    <path d="M83.9313394,5.73554918 L80.2227267,5.73554918 C80.2387211,5.48392753 80.2526264,5.24315555 80.2526264,4.9917288 L80.2526264,3.80463071 L83.384853,3.80463071 C83.4208894,3.80463071 83.4501363,3.77558995 83.4501363,3.73966256 L83.4501363,2.69893772 C83.4501363,2.6630753 83.4208894,2.63396957 83.384853,2.63396957 L77.7271426,2.63396957 C77.8467416,2.35382689 77.9655572,2.05835173 78.0756901,1.76696957 C78.1185812,1.6532753 78.1327476,1.52938103 78.1069608,1.41068422 C78.0539507,1.16724855 77.8686768,0.986507145 77.6296747,0.933558101 C77.3251282,0.866121158 77.0169911,1.03614281 76.911428,1.32888931 C76.5271053,2.39384727 76.0075809,3.38110332 75.4151352,4.18540906 C75.3954849,4.212046 75.3992713,4.24862307 75.4239484,4.27077721 C75.6993133,4.51765619 75.9742212,4.76836829 76.2492597,5.0235632 C76.2779843,5.05020014 76.324009,5.04610715 76.3473151,5.01466256 C76.6409594,4.61790205 76.9033329,4.21302052 77.1302576,3.80463071 L78.9953357,3.80463071 L78.9953357,4.9917288 C78.9953357,5.23055173 78.9953357,5.47626129 78.971442,5.73554918 L75.2097539,5.73554918 C74.8851655,5.73554918 74.6133912,5.99009441 74.6039904,6.303046 C74.5989636,6.47033899 74.6636593,6.6280167 74.7858043,6.74430969 C74.8992014,6.85228676 75.0541839,6.9062753 75.2111902,6.9062753 L78.7358346,6.9062753 C78.3078374,8.19602307 77.3249323,9.23531861 75.7380916,10.0780855 L75.6422557,10.1289556 C75.6081125,10.1470817 75.5972102,10.1906753 75.6188843,10.2225747 L76.2486068,11.1098447 C76.2669514,11.1356371 76.3011599,11.1446677 76.3298192,11.1310893 C76.3713394,11.111404 76.4270913,11.084702 76.4477208,11.0732677 C77.9093483,10.2662333 78.9291384,9.29664855 79.5681312,8.1041581 C79.8416029,7.54842052 79.9446852,7.22832243 80.004093,7.01165364 C81.0353077,7.97558613 82.7646618,10.177097 82.7646618,10.177097 C82.7835287,10.2098409 82.8263546,10.2197161 82.8578211,10.1986014 L83.8334798,9.54326765 C83.8627919,9.52364727 83.8710176,9.48447148 83.8522161,9.45478103 C83.8522161,9.45478103 82.5114933,7.75943708 81.6338248,6.9062753 L83.9313394,6.9062753 C83.9673758,6.9062753 83.9966227,6.87716957 83.9966227,6.84130715 L83.9966227,5.80051734 C83.9966227,5.76465492 83.9673758,5.73554918 83.9313394,5.73554918" id="Fill-60"></path>
                </g>
                <g id="logo">
                    <path d="M51.6510627,4.89754624 C51.6510627,4.60291567 51.4439189,4.48525834 51.1885959,4.63442522 L26.5042033,19.2097704 C26.2507736,19.3589373 25.83283,19.6013985 25.5775724,19.7481615 L0.192494288,34.3064851 C-0.0628286314,34.4544176 -0.0628286314,34.6921361 0.194387503,34.8364303 L25.5757445,49.0940163 C25.83283,49.2396099 26.2507736,49.2359068 26.5066841,49.0868048 L51.1868333,34.6909017 C51.4420909,34.5405654 51.6510627,34.1792125 51.6510627,33.8845819 L51.6510627,4.89754624 Z" id="Fill-1" fill="#35BDCE"></path>
                    <path d="M25.84746,14.4103716 C26.1051331,14.5546659 26.1051331,14.7923194 25.8498755,14.9390175 L0.464275122,29.4986404 C0.208952203,29.6465729 -1.95849848e-05,29.5240429 -1.95849848e-05,29.2318162 L-1.95849848e-05,0.423118089 C-1.95849848e-05,0.129591975 0.208952203,0.00719197452 0.465972488,0.151486242 L25.84746,14.4103716 Z" id="Fill-3" fill="#FFFFFF"></path>
                    <path d="M25.4703642,19.8112261 L0.192481231,34.3064656 C-0.0627764048,34.4544631 -0.0627764048,34.6921166 0.194374446,34.8364758 L25.5757314,49.0940618 C25.5757314,49.0940618 25.6573355,49.1498045 25.8437846,49.1850172 C25.9290445,49.2008045 26.0417888,49.2008045 26.0417888,49.2008045 L26.0417888,19.4813828 L25.4703642,19.8112261 Z" id="Fill-6" fill="#E185B7"></path>
                </g>
            </g>
        </g>
    </g>
</svg>