<?xml version="1.0" encoding="UTF-8"?>
<svg width="400px" height="240px" viewBox="0 0 400 240" version="1.1" xmlns="http://www.w3.org/2000/svg" xmlns:xlink="http://www.w3.org/1999/xlink">
    <!-- Generator: Sketch 52.4 (67378) - http://www.bohemiancoding.com/sketch -->
    <title>登入-簡體字</title>
    <desc>Created with Sketch.</desc>
    <g id="登入-簡體字" stroke="none" stroke-width="1" fill="none" fill-rule="evenodd">
        <g id="12-logo/中英/深色/直式-簡體" transform="translate(35.000000, 28.150000)">
            <g>
                <g id="英" transform="translate(0.000000, 99.161677)" fill="#221E1F">
                    <path d="M102.818019,7.88841365 C102.818019,7.05592197 103.156372,6.35057103 103.823456,5.79053886 C104.472671,5.2491075 105.280912,4.97400583 106.22534,4.97400583 L117.552979,4.97400583 C118.497407,4.97400583 119.305542,5.2491075 119.954228,5.79053886 C120.623744,6.35268475 120.963155,7.05782433 120.963155,7.88841365 L120.963155,33.8257554 C120.963155,34.6632143 120.623744,35.3693051 119.954228,35.9236302 C119.309454,36.4670696 118.501742,36.7422769 117.552979,36.7422769 L106.22534,36.7422769 C105.276365,36.7422769 104.468759,36.4670696 103.823456,35.9225733 C103.156372,35.3693051 102.818019,34.6632143 102.818019,33.8257554 L102.818019,7.88841365 Z M122.66634,3.69773702 C121.28237,2.54068246 119.56195,1.95391164 117.552979,1.95391164 L106.22534,1.95391164 C104.216263,1.95391164 102.495737,2.54068246 101.111767,3.69773702 C99.7332957,4.84866178 99.0633566,6.21951991 99.0633566,7.88841365 L99.0633566,33.8257554 C99.0633566,35.4925354 99.7332957,36.8655073 101.111767,38.0224562 C102.494786,39.177397 104.215205,39.7621598 106.22534,39.7621598 L117.552979,39.7621598 C119.590076,39.7621598 121.262597,39.1930386 122.666763,38.0224562 C124.048723,36.8636049 124.720566,35.4907387 124.720566,33.8257554 L124.720566,7.88841365 C124.720566,6.2234303 124.048723,4.85257218 122.66634,3.69773702 Z" id="Fill-46"></path>
                    <path d="M216.007289,22.0543105 L230.748064,22.0543105 C231.691435,22.0543105 232.498724,22.3296235 233.14593,22.8731686 C233.815024,23.4332008 234.154328,24.1385517 234.154328,24.9710434 L234.154328,33.825766 C234.154328,34.6632249 233.815024,35.3693157 233.144979,35.9235351 C232.500522,36.4670802 231.694501,36.7422875 230.748064,36.7422875 L216.007289,36.7461979 L216.007289,22.0543105 Z M233.778439,16.111882 C233.778439,16.9464874 233.437971,17.6546919 232.767081,18.2157809 C232.129602,18.7553099 231.322525,19.0284035 230.369109,19.0284035 L216.007289,19.0344277 L216.007289,4.9740164 L230.369109,4.9740164 C231.314594,4.9740164 232.122624,5.24996356 232.770993,5.79445983 C233.438923,6.3536465 233.778439,7.05878608 233.778439,7.88842421 L233.778439,16.111882 Z M234.736613,20.8954593 L234.037914,20.5790342 L234.711871,20.2041646 C235.562512,19.7287872 236.260153,19.1380003 236.783015,18.4464943 C237.288324,17.7748573 237.534053,17.010639 237.534053,16.111882 L237.534053,7.88842421 C237.534053,6.2255546 236.862951,4.8544851 235.482576,3.69774759 C234.099029,2.54069303 232.378292,1.9539222 230.369109,1.9539222 L212.252627,1.9578326 L212.257597,39.7621703 L230.748064,39.7621703 C232.784739,39.7621703 234.455463,39.1911468 235.85561,38.0174995 C237.237994,36.8675259 237.909942,35.4964564 237.909942,33.825766 L237.909942,24.9710434 C237.909942,24.0881393 237.631647,23.3208562 237.058455,22.6225862 C236.459465,21.9075121 235.677975,21.3264483 234.736613,20.8954593 Z" id="Fill-48"></path>
                    <path d="M259.114054,7.88841365 C259.114054,7.05486511 259.452513,6.34877436 260.119598,5.79053886 C260.765746,5.2491075 261.574939,4.97400583 262.524231,4.97400583 L273.849014,4.97400583 C274.794394,4.97400583 275.601578,5.2491075 276.247726,5.79053886 C276.915762,6.34972554 277.255278,7.05592197 277.255278,7.88841365 L277.255278,33.8257554 C277.255278,34.6660679 276.91682,35.3714188 276.24688,35.9236302 C275.60549,36.4670696 274.798201,36.7422769 273.849014,36.7422769 L262.524231,36.7422769 C261.571027,36.7422769 260.761834,36.4670696 260.11854,35.9225733 C259.452513,35.3722643 259.114054,34.6671247 259.114054,33.8257554 L259.114054,7.88841365 Z M278.962376,3.69773702 C277.581789,2.54068246 275.860946,1.95391164 273.849014,1.95391164 L262.524231,1.95391164 C260.513145,1.95391164 258.79135,2.54068246 257.408015,3.69773702 C256.029332,4.84866178 255.359498,6.21951991 255.359498,7.88841365 L255.359498,33.8257554 C255.359498,35.4925354 256.029332,36.8655073 257.408015,38.0224562 C258.79135,39.177397 260.512404,39.7621598 262.524231,39.7621598 L273.849014,39.7621598 C275.883891,39.7621598 277.556201,39.1930386 278.962376,38.0224562 C280.344759,36.8636049 281.016707,35.4907387 281.016707,33.8257554 L281.016707,7.88841365 C281.016707,6.2234303 280.344759,4.85257218 278.962376,3.69773702 Z" id="Fill-50"></path>
                    <path d="M194.39267,1.95387993 L191.466973,1.95387993 C191.235095,1.95387993 191.053548,2.13640032 191.053548,2.36922743 L191.053548,39.3528047 C191.053548,39.5827783 191.235095,39.7621281 191.466973,39.7621281 L194.39267,39.7621281 C194.622538,39.7621281 194.809055,39.5788679 194.809055,39.3528047 L194.809055,2.36922743 C194.809055,2.14031072 194.622538,1.95387993 194.39267,1.95387993" id="Fill-52"></path>
                    <path d="M6.55879494,4.96552979 L24.5829699,4.96552979 C25.1454819,4.96552979 25.4184905,4.68313576 25.4184905,4.10143789 L25.4136267,1.9538905 L6.172438,1.9538905 C1.78833355,1.9538905 3.17206024e-05,3.92409613 3.17206024e-05,8.75438677 L3.17206024e-05,33.08984 C3.17206024e-05,37.9421134 2.08502691,40.3007165 6.37481544,40.3007165 L25.4184905,40.3007165 L25.4184905,38.1473563 C25.4184905,37.5871128 25.1572185,37.3373759 24.571339,37.3373759 L7.17068536,37.3373759 C4.50361711,37.3373759 3.41581192,36.2361237 3.41581192,33.5369991 L3.41105383,22.6564798 L20.6384072,22.6564798 C21.1657094,22.6564798 21.4218004,22.3775734 21.4218004,21.8036964 L21.4168308,19.5963305 L3.41581192,19.5574379 L3.41581192,8.35764007 C3.41581192,5.77075437 3.84964402,4.96552979 6.55879494,4.96552979" id="Fill-54"></path>
                    <path d="M81.5807052,2.33472083 C81.4979145,1.97866339 81.2418235,1.80607752 80.7978408,1.80607752 L76.9933774,1.80998791 L62.6033262,26.0243245 L48.2003752,1.80607752 L44.3850211,1.80607752 C43.9406155,1.80607752 43.6858991,1.97760652 43.5779433,2.38492186 L43.5790006,2.55845891 L43.5661009,2.67101491 L43.5779433,16.1179167 L43.5829128,40.2811011 L47.0502919,40.2750769 L47.0418331,6.0863762 L61.0866584,29.317618 L64.1001157,29.3155043 L78.0832973,6.03807752 L78.1523425,40.2811011 L81.6197216,40.2811011 L81.6186642,2.6539994 L81.5807052,2.33472083 Z" id="Fill-56"></path>
                    <path d="M172.960507,1.95387993 L142.968043,1.95493679 L142.778566,1.97966741 C142.228002,2.06633025 142.164349,2.49922169 142.164349,2.81691497 L142.169318,4.97397413 L156.006268,4.96805569 L156.011132,39.7621281 L159.761882,39.7621281 L159.756912,4.97397413 L173.178533,4.97397413 L173.609934,4.96509647 L173.609934,2.81691497 C173.609934,2.30792933 173.424262,2.05068866 172.960507,1.95387993" id="Fill-58"></path>
                    <path d="M329.253762,0.852083523 L299.264576,0.853140387 L299.071292,0.877871001 C298.520728,0.964533839 298.457498,1.39742528 298.457498,1.71511856 L298.462468,3.87217772 L312.302484,3.86625928 L312.307453,38.6603317 L316.057886,38.6603317 L316.053022,3.87217772 L329.471789,3.87217772 L329.905938,3.86330007 L329.905938,1.71511856 C329.905938,1.21416509 329.714451,0.948892253 329.253762,0.852083523" id="Fill-60"></path>
                </g>
                <g id="簡中" transform="translate(0.000000, 153.149701)" fill="#221E1F">
                    <path d="M14.7721788,7.34085931 C14.8306504,7.34085931 14.8779141,7.38820681 14.8779141,7.4465457 L14.8779141,9.30345552 C14.8779141,9.36190009 14.8306504,9.40914191 14.7721788,9.40914191 L10.1041749,9.40914191 L10.1041749,30.6319196 C10.1041749,30.6903642 10.056594,30.737606 9.9984396,30.737606 L8.14056392,30.737606 C8.08219801,30.737606 8.03482858,30.6903642 8.03482858,30.6319196 L8.03482858,9.40914191 L6.14586671,9.40914191 C4.98129766,12.1019254 3.77094521,14.3133073 2.54716437,15.9844205 L2.44428388,16.124772 C2.40759372,16.1750787 2.33548222,16.1827938 2.28895867,16.1414705 L0.666661326,14.9747984 C0.613793656,14.9412958 0.601528356,14.8693234 0.640438962,14.8201792 L0.749240628,14.6821528 C3.14107978,11.6500104 5.29543736,6.79414363 6.65963473,1.35943254 C6.79243832,0.830577862 7.31572252,0.50242163 7.85106056,0.611384295 L7.95943928,0.633367063 C8.23456264,0.689592221 8.47680231,0.858901814 8.62409164,1.09817579 C8.7714867,1.33755546 8.81346363,1.63030675 8.73944889,1.90139234 C8.21098366,3.83672146 7.61971163,5.66446184 6.98001282,7.34085931 L14.7721788,7.34085931 Z M19.5282073,7.34085931 L30.6325328,7.34085931 C30.6908988,7.34085931 30.7382682,7.38820681 30.7382682,7.4465457 L30.7382682,9.30345552 C30.7382682,9.36190009 30.6908988,9.40914191 30.6325328,9.40914191 L25.9683355,9.40914191 L25.9683355,28.3433866 C25.9683355,29.6721815 25.6168712,30.2378151 24.5749551,30.5851005 L24.5638529,30.5885882 C24.2288834,30.6841287 23.7732698,30.7196393 23.2811775,30.7196393 C22.1462144,30.7196393 20.8156408,30.5305664 20.3158299,30.4526755 L20.155958,30.4276278 C20.0975921,30.4185388 20.0579414,30.3631591 20.0681977,30.3049259 L20.3892102,28.485112 C20.3990436,28.4292039 20.4514883,28.3910512 20.507951,28.3988719 L20.6594697,28.4200092 C22.3499664,28.6560069 23.2341253,28.6211304 23.3942086,28.6117243 C23.8488706,28.5850914 23.8664226,28.5390121 23.8664226,28.1872878 L23.8664226,9.40914191 L18.7345578,9.40914191 C17.5998062,12.1137622 16.4414755,14.2567651 15.1957017,15.9565193 L15.0712512,16.1263573 C15.0363585,16.1739162 14.9694281,16.1838507 14.9222701,16.1482344 L13.3509372,14.9616933 C13.3036735,14.926077 13.2950032,14.8585434 13.3316934,14.8119357 L13.4393319,14.6754946 C15.8027283,11.6766433 17.8316838,6.955104 19.1525296,1.38067551 C19.2789891,0.847487684 19.818768,0.506649085 20.3556921,0.62089607 L20.4059164,0.631676081 C20.6915075,0.692340067 20.931844,0.867145352 21.0784989,1.12184954 C21.2152147,1.35943254 21.2416485,1.64615971 21.1742951,1.91206666 C20.6624303,3.93205058 20.1223342,5.71297189 19.5282073,7.34085931 Z" id="Combined-Shape"></path>
                    <path d="M254.482043,4.87663323 C256.426727,6.17541324 258.317064,7.77307436 259.185785,8.85202668 L259.299979,8.99385782 C259.340265,9.04384748 259.415548,9.04670101 259.459534,9.00009331 L260.72931,7.6516407 C260.765894,7.61274811 260.767692,7.55271824 260.733539,7.51181761 L260.644193,7.40380612 C259.616868,6.1656901 257.550905,4.50155224 255.503341,3.2628021 C255.128192,3.03557637 254.647624,3.09465506 254.335705,3.40653559 C254.132588,3.60934776 254.032456,3.889311 254.060582,4.17445288 C254.088813,4.46065161 254.242235,4.71651836 254.482043,4.87663323" id="Fill-14"></path>
                    <path d="M253.178527,13.318957 C255.204628,14.5727146 257.407095,16.2955084 258.542481,17.5156577 L258.660059,17.6418472 C258.702141,17.6871867 258.774041,17.686764 258.815701,17.6410018 L260.013154,16.3243607 C260.04995,16.2837772 260.049632,16.2216336 260.012308,16.1813671 L259.913234,16.0746238 C258.76516,14.8388329 256.372897,13.0491396 254.095675,11.7223527 C253.735858,11.5125652 253.278447,11.5727008 252.983234,11.8679885 C252.753154,12.0978564 252.660635,12.427915 252.743426,12.7506813 C252.804753,12.9898495 252.968537,13.1890684 253.178527,13.318957" id="Fill-16"></path>
                    <path d="M268.546493,20.1465618 C268.446784,19.6249995 267.92424,19.2697875 267.382981,19.3543366 L264.244756,19.8446158 L264.244756,1.49756465 C264.244756,0.943133864 263.794958,0.493543973 263.24027,0.493543973 L263.180001,0.493543973 C262.625314,0.493543973 262.175516,0.943133864 262.175516,1.49756465 L262.175516,20.1560736 L250.767201,21.9152235 C250.708412,21.9243125 250.668761,21.9797979 250.679123,22.0381367 L250.996858,23.8249765 C251.007009,23.8815187 251.060511,23.9196715 251.117291,23.9108995 L262.175516,22.1980402 L262.175516,30.5662884 C262.175516,30.6247329 262.222991,30.6719748 262.281251,30.6719748 L264.139021,30.6719748 C264.197492,30.6719748 264.244756,30.6247329 264.244756,30.5662884 L264.244756,21.8848915 L267.695852,21.3228513 C267.957758,21.280154 268.201373,21.148046 268.361456,20.9366732 C268.534122,20.7084963 268.599783,20.426208 268.546493,20.1465618" id="Fill-18"></path>
                    <path d="M251.848366,19.4350387 C251.147235,18.0471651 250.409625,16.8010169 249.656049,15.731365 C248.903848,14.6634041 248.157991,13.7305103 247.440365,12.9607964 C247.3691,12.8830112 247.276158,12.7795442 247.16778,12.6592731 C246.95504,12.4228526 246.669555,12.1055821 246.381109,11.7952869 L246.381109,11.7681255 L251.454079,11.7681255 C251.51255,11.7681255 251.559814,11.7208837 251.559814,11.6624391 L251.559814,9.83829205 C251.559814,9.78005885 251.51255,9.73260566 251.454079,9.73260566 L246.381109,9.73260566 L246.381109,4.14454363 C247.521041,3.87060451 248.570993,3.56918694 249.505905,3.24758326 C249.807568,3.14390492 250.059958,2.91879291 250.165376,2.61800945 C250.271852,2.31553501 250.229664,1.98832996 250.050865,1.72316281 L250.021788,1.67993708 C249.756815,1.28720647 249.24421,1.13374983 248.802765,1.31447355 C246.835242,2.12096637 243.487872,2.94088137 239.123012,3.68575902 C239.055658,3.69717315 238.901814,3.72496867 238.789734,3.74526046 C238.723015,3.75720302 238.685162,3.82811859 238.711596,3.89047355 L239.402576,5.51466195 C239.42182,5.55989573 239.469507,5.58589458 239.517722,5.57754535 C239.569849,5.56856201 239.643018,5.55598533 239.727501,5.54171767 C241.177661,5.3000129 242.758404,4.95885724 244.286809,4.62890434 L244.311868,4.62362002 L244.311868,9.73260566 L239.481878,9.73260566 C238.92719,9.73260566 238.477392,10.1821956 238.477392,10.7366263 L238.477392,10.7641048 C238.477392,11.3186413 238.92719,11.7681255 239.481878,11.7681255 L243.975947,11.7681255 C243.977639,11.770662 243.97785,11.7707676 243.979542,11.7733041 C241.753178,17.7211226 239.281192,21.103087 238.016386,22.5803713 L237.9134,22.7006424 C237.875441,22.7450307 237.880622,22.8117188 237.924925,22.8497659 L239.272099,24.002276 C239.316296,24.0401117 239.383121,24.0349331 239.421186,23.9905448 L239.524172,23.8702737 C240.53553,22.6891226 241.401714,21.5287918 242.09925,20.4211984 C242.796046,19.3161416 243.36966,18.2686838 243.803704,17.3103196 C243.848007,17.2157303 243.906902,17.0914431 243.975418,16.9469698 C244.072483,16.7425723 244.189955,16.4953719 244.311868,16.2329526 L244.311868,30.5336947 C244.311868,30.5920336 244.359132,30.6393811 244.417603,30.6393811 L246.275373,30.6393811 C246.333633,30.6393811 246.381109,30.5920336 246.381109,30.5336947 L246.381109,14.7764885 C248.485876,17.2200634 249.558773,19.3162472 250.034688,20.2464988 L250.149516,20.470554 C250.176267,20.5222346 250.239391,20.5428435 250.291413,20.5166332 L251.873002,19.7185953 C251.925236,19.6922794 251.946277,19.6286562 251.919843,19.5765528 L251.848366,19.4350387 Z" id="Fill-20"></path>
                    <path d="M310.736343,16.9187938 L310.211578,15.2450385 C310.194237,15.1897645 310.135554,15.1587984 310.080149,15.1754969 C309.53963,15.3396278 306.977768,16.1169512 306.505449,16.2593108 L306.505449,9.37637913 L310.266878,9.37637913 C310.325138,9.37637913 310.372613,9.32913731 310.372613,9.27069274 L310.372613,7.4465457 C310.372613,7.38820681 310.325138,7.34085931 310.266878,7.34085931 L306.505449,7.34085931 L306.505449,1.5592855 C306.505449,1.55209883 306.505237,1.54512353 306.504708,1.53793685 L306.504708,1.49767034 C306.504708,0.943133864 306.055122,0.49364966 305.500223,0.49364966 L305.439954,0.49364966 C305.059624,0.49364966 304.707208,0.713583031 304.5393,1.05495006 C304.449954,1.20851238 304.402267,1.38257786 304.402267,1.5592855 L304.402796,7.34085931 L300.949585,7.34085931 C300.39458,7.34085931 299.945099,7.7904492 299.945099,8.34487999 L299.945099,8.37235845 C299.945099,8.92689492 300.39458,9.37637913 300.949585,9.37637913 L304.402796,9.37637913 L304.403219,16.8872993 C302.990277,17.3142723 301.645324,17.7054176 300.501479,18.0216313 C300.221703,18.0989937 299.994901,18.2872212 299.866855,18.5496405 C299.746423,18.7961011 299.741242,19.0835681 299.829954,19.3432396 L299.859348,19.4287398 C300.034551,19.9429041 300.587124,20.2254038 301.106391,20.0645491 C301.449502,19.9583343 301.802129,19.8472579 302.163533,19.7334337 C302.886128,19.5058909 303.630505,19.2715842 304.403219,19.041822 L304.403536,28.2058886 C304.403536,28.5576129 304.385984,28.6036922 303.931322,28.6303251 C303.770604,28.6396255 302.885916,28.6743964 301.196477,28.4387157 L301.044958,28.4174727 C300.988707,28.409652 300.936051,28.4478047 300.926323,28.5038185 L300.605205,30.3235267 C300.594949,30.3817599 300.634599,30.4370339 300.69286,30.4462286 L300.852626,30.4711706 C301.352648,30.5491672 302.683222,30.7383458 303.818079,30.7383458 C304.310489,30.7383458 304.765785,30.7027295 305.100966,30.607189 L305.112068,30.6035957 C306.108201,30.2716347 306.472248,29.7307318 306.502594,28.5384837 C306.502911,28.5190374 306.50344,28.4985342 306.503651,28.4783481 L306.504708,28.4230741 C306.505026,28.4029937 306.505449,28.3831247 306.505449,28.3618817 L306.505449,18.3776887 C307.914583,17.9090753 310.167592,17.2066835 310.667615,17.0511132 C310.723654,17.0336749 310.753895,16.9745962 310.736343,16.9187938" id="Fill-22"></path>
                    <path d="M319.525381,22.9654185 C317.332853,20.724233 315.629034,18.0400101 314.455583,14.9788039 L325.159066,14.9788039 C323.959921,17.9562008 322.06673,20.6402123 319.525381,22.9654185 Z M329.052347,28.6957344 C326.030219,27.7900021 323.321809,26.33692 320.997534,24.3746408 C324.029707,21.6093565 326.615147,17.6601733 327.623545,14.2344547 C327.715006,13.9232083 327.655054,13.5960032 327.458175,13.3379171 C327.262671,13.0814162 326.948214,12.9432841 326.625721,12.9432841 L320.566451,12.9432841 L320.566451,7.96756902 L328.622321,7.96756902 C328.680899,7.96756902 328.728057,7.9203272 328.728057,7.86188263 L328.728057,6.03773559 C328.728057,5.9793967 328.680899,5.9320492 328.622321,5.9320492 L320.566451,5.9320492 L320.566451,1.49755408 C320.566451,0.943123296 320.116548,0.493533405 319.561966,0.493533405 L319.469024,0.493533405 C318.914125,0.493533405 318.464539,0.943123296 318.464539,1.49755408 L318.464539,5.9320492 L312.007176,5.9320492 C311.452488,5.9320492 311.00269,6.38163909 311.00269,6.93606988 L311.00269,6.96354834 C311.00269,7.51808481 311.452488,7.96756902 312.007176,7.96756902 L318.464539,7.96756902 L318.464539,12.9432841 L312.060995,12.9432841 C311.506413,12.9432841 311.056509,13.392874 311.056509,13.9473048 L311.056509,13.9747833 C311.056509,14.5293197 311.506413,14.9788039 312.060995,14.9788039 L312.315711,14.9788039 C313.655484,18.6380894 315.536093,21.7559435 317.90964,24.2538413 C315.385843,26.2099906 312.369848,27.7255334 309.168499,28.6442652 L309.005455,28.6910842 C308.946666,28.7078884 308.914417,28.7710888 308.935141,28.8285822 L309.593872,30.6505099 C309.613433,30.7036701 309.670953,30.7322054 309.724984,30.7152956 L309.870159,30.6698505 C313.431854,29.5521112 316.649486,27.8834289 319.437198,25.7086144 C321.959515,27.9872129 324.960918,29.6619194 328.362318,30.6880285 L328.506435,30.7314656 C328.560149,30.7477413 328.617035,30.7189946 328.636384,30.6661514 L329.281793,28.8811084 C329.302623,28.8240377 329.271325,28.7613657 329.212959,28.7439274 L329.052347,28.6957344 Z" id="Fill-24"></path>
                    <path d="M138.298316,5.31382611 L145.022026,5.31382611 C145.284567,5.31382611 145.497835,5.52688987 145.497835,5.78941485 L145.497835,12.5100122 C145.497835,12.5684568 145.45036,12.6156986 145.3921,12.6156986 L138.66839,12.6156986 C138.405532,12.6156986 138.192581,12.4027405 138.192581,12.1401099 L138.192581,5.4195125 C138.192581,5.36117361 138.239844,5.31382611 138.298316,5.31382611 M145.432174,3.34393754 L136.261853,3.34393754 C136.203487,3.34393754 136.156118,3.39128504 136.156118,3.44962393 L136.156118,12.4191219 C136.156118,13.6158089 137.126557,14.5856929 138.323692,14.5856929 L147.494013,14.5856929 C147.552273,14.5856929 147.599748,14.538451 147.599748,14.4800065 L147.599748,5.51050848 C147.599748,4.3139272 146.629098,3.34393754 145.432174,3.34393754" id="Fill-26"></path>
                    <path d="M126.982573,22.1823669 L126.982573,18.9504772 C126.982573,18.8921383 127.029836,18.8447908 127.088308,18.8447908 L142.308805,18.8447908 C142.513085,18.8447908 142.678878,19.0104014 142.678878,19.2146932 L142.678878,22.1823669 L126.982573,22.1823669 Z M142.678878,24.0213101 L142.678878,28.5466955 C142.678878,28.6050344 142.631403,28.6523819 142.573143,28.6523819 L127.088308,28.6523819 C127.029836,28.6523819 126.982573,28.6050344 126.982573,28.5466955 L126.982573,24.0213101 L142.678878,24.0213101 Z M142.6461,16.9403221 L125.019067,16.9403221 C124.960596,16.9403221 124.913332,16.9876696 124.913332,17.0460085 L124.913332,30.5985967 C124.913332,30.6569356 124.960596,30.7042831 125.019067,30.7042831 L144.707939,30.7042831 C144.766094,30.7042831 144.813675,30.6569356 144.813675,30.5985967 L144.813675,19.1068931 C144.813675,17.9103118 143.84313,16.9403221 142.6461,16.9403221 Z" id="Fill-28"></path>
                    <path d="M197.340761,15.1786886 L202.755362,15.1786886 C205.561261,15.1786886 205.94931,13.5932871 206.165962,9.97564208 L206.175266,9.8201774 C206.178756,9.76257832 206.135298,9.71280003 206.077778,9.7083612 L204.267483,9.56853811 C204.207955,9.56388791 204.15625,9.60943875 204.153712,9.66904587 L204.146417,9.83254271 C204.009489,12.8675387 203.741873,13.1758259 202.657029,13.1758259 L197.373539,13.1758259 C195.743735,13.1758259 195.671306,12.9637133 195.671306,12.2279247 L195.671306,8.35272192 C196.993844,8.06430377 198.210646,7.72103438 199.291261,7.33147436 C200.520963,6.88885977 201.618073,6.41633593 202.550342,5.92795914 C203.090543,5.65169492 203.535161,5.41305506 203.908089,5.19893444 C204.145465,5.062599 204.332511,4.84636465 204.410543,4.58394535 C204.494392,4.30186838 204.456644,4.00573513 204.305865,3.75451859 C204.040047,3.311904 203.461674,3.16320325 203.016634,3.42266333 C202.659355,3.63086551 202.19634,3.88070813 201.63774,4.16637844 C200.77864,4.6161797 199.762735,5.05319291 198.618256,5.46526413 C197.733357,5.78422565 196.743357,6.07137556 195.671306,6.32005563 L195.671306,1.53362485 C195.671306,0.979088373 195.221508,0.529604169 194.66682,0.529604169 L194.606445,0.529604169 C194.051546,0.529604169 193.60196,0.979088373 193.60196,1.53362485 L193.60196,12.2607931 C193.60196,14.4970114 194.475545,15.1786886 197.340761,15.1786886" id="Fill-30"></path>
                    <path d="M204.478933,25.0978211 C204.41951,25.0931709 204.367699,25.1387217 204.365162,25.1983288 L204.357866,25.3618257 C204.221045,28.3968216 203.953323,28.7051088 202.868584,28.7051088 L197.373518,28.7051088 C195.743819,28.7051088 195.671285,28.4929962 195.671285,27.7572076 L195.671285,23.0370422 C197.049122,22.8156292 198.319321,22.5303817 199.449737,22.1885919 C200.700269,21.8109744 201.820852,21.3965781 202.777651,20.9574512 C203.352852,20.7005275 203.822634,20.4785861 204.214277,20.2789445 C204.653291,20.0552065 204.866453,19.532693 204.710282,19.0637625 L204.689981,19.0030985 C204.600106,18.7337039 204.413906,18.5298348 204.165428,18.4287987 C203.915787,18.3274454 203.638337,18.3438268 203.384361,18.4748779 C203.015556,18.6652191 202.536575,18.8922335 201.958625,19.150531 C201.076793,19.5549928 200.039529,19.9382116 198.875383,20.2897246 C197.915306,20.5800451 196.838709,20.8276683 195.671285,21.0266757 L195.671285,17.0629078 C195.671285,16.5083713 195.221487,16.0588871 194.666799,16.0588871 L194.606424,16.0588871 C194.051525,16.0588871 193.601938,16.5083713 193.601938,17.0629078 L193.601938,27.7900761 C193.601938,30.0262943 194.47563,30.7079715 197.34074,30.7079715 L202.966812,30.7079715 C205.772711,30.7079715 206.160759,29.1225701 206.377411,25.504925 L206.386716,25.3493547 C206.390205,25.2918613 206.346748,25.242083 206.289228,25.2376441 L204.478933,25.0978211 Z" id="Fill-32"></path>
                    <path d="M188.650849,21.9234142 L181.052391,21.9234142 L181.052391,18.8153889 L188.650004,18.8153889 L188.650849,21.9234142 Z M181.052391,16.9435773 L181.052391,14.1048409 C181.052391,14.0466077 181.099654,13.9991545 181.158126,13.9991545 L188.542894,13.9991545 C188.60126,13.9991545 188.648629,14.046502 188.648629,14.1048409 L188.649369,16.9435773 L181.052391,16.9435773 Z M179.121663,30.707961 L180.946655,30.707961 C181.00481,30.707961 181.052391,30.6606135 181.052391,30.6022746 L181.052391,23.7952258 L188.651272,23.7952258 L188.652541,28.1762436 C188.652541,28.5581942 188.599039,28.5759495 188.180221,28.6007858 C188.02035,28.6099805 187.135662,28.6449627 185.4458,28.408965 L185.294175,28.3878277 C185.237818,28.3800069 185.185374,28.418054 185.175434,28.4741735 L184.854316,30.2938817 C184.843848,30.3522206 184.883605,30.4074946 184.942077,30.4165836 L185.101948,30.4416313 C185.601865,30.5196278 186.932121,30.7087008 188.067402,30.7087008 C188.5596,30.7087008 189.015002,30.6729788 189.350077,30.5774383 L189.361074,30.574162 C190.357524,30.2419897 190.721359,29.7010868 190.751705,28.5078875 L190.75456,12.1676095 C190.75456,12.1093763 190.707085,12.0619231 190.648824,12.0619231 L179.121663,12.0619231 C179.063192,12.0619231 179.015928,12.1093763 179.015928,12.1676095 L179.015928,30.6022746 C179.015928,30.6606135 179.063192,30.707961 179.121663,30.707961 Z" id="Fill-34"></path>
                    <path d="M187.70068,5.50940934 L188.711827,7.77469136 C188.743125,7.84455006 188.691949,7.92339211 188.615291,7.92339211 L181.134515,7.92339211 C181.057963,7.92339211 181.006681,7.84433869 181.038085,7.7743743 L183.658524,1.94027436 C183.874012,1.45728757 183.673432,0.8833048 183.211263,0.660834955 C183.093897,0.604398425 182.968918,0.572798195 182.839498,0.566774071 C182.426918,0.523548339 182.039821,0.746969361 181.871808,1.12469251 L178.032346,9.67704633 C178.000731,9.74690503 178.051907,9.82595845 178.128777,9.82595845 L191.548495,9.82574707 C191.624941,9.82574707 191.676329,9.74690503 191.645137,9.67704633 L189.439392,4.7356793 L187.70068,5.50940934 Z" id="Fill-36"></path>
                    <path d="M135.071326,8.42208389 L129.064607,8.42208389 C129.090512,8.01276052 129.11314,7.62119245 129.11314,7.21208045 L129.11314,5.28097878 L134.186216,5.28097878 C134.244476,5.28097878 134.291951,5.23373697 134.291951,5.17529239 L134.291951,3.48230216 C134.291951,3.42396327 134.244476,3.37661577 134.186216,3.37661577 L125.022768,3.37661577 C125.216475,2.92100176 125.408702,2.44034007 125.587183,1.96623093 C125.656757,1.78138544 125.679702,1.57973582 125.637725,1.38675247 C125.552079,0.990745582 125.252002,0.696620366 124.864799,0.610591647 C124.37165,0.500783491 123.872473,0.777364766 123.701499,1.25369331 C123.079035,2.98599888 122.237488,4.59211491 121.278045,5.90051238 C121.246219,5.9438438 121.252457,6.00323955 121.292319,6.03938429 C121.738311,6.44099257 122.183563,6.84873065 122.629026,7.26386678 C122.675549,7.30719819 122.750304,7.30064564 122.78784,7.24938774 C123.263438,6.60396098 123.688494,5.94532341 124.05603,5.28097878 L127.076783,5.28097878 L127.076783,7.21208045 C127.076783,7.60068929 127.076783,8.00039521 127.038084,8.42208389 L120.945508,8.42208389 C120.419791,8.42208389 119.979509,8.83626884 119.964389,9.34536017 C119.956142,9.61750262 120.061031,9.87400348 120.258651,10.0630764 C120.442419,10.2388329 120.69354,10.3265526 120.947834,10.3265526 L126.656485,10.3265526 C125.963178,12.4247444 124.371227,14.1153039 121.801118,15.4863734 L121.646004,15.5691258 C121.590705,15.5986123 121.572941,15.6694222 121.608045,15.7214199 L122.627968,17.1647789 C122.657786,17.2066307 122.713085,17.2213211 122.759609,17.1992327 C122.826856,17.1673154 122.917154,17.1238783 122.950567,17.1052775 C125.317875,15.7923355 126.969567,14.2151775 128.004399,12.2753039 C128.44743,11.3711568 128.61428,10.8505457 128.7105,10.4980816 C130.380801,12.0660448 133.18173,15.6473337 133.18173,15.6473337 C133.212287,15.7005997 133.28165,15.716664 133.332508,15.6823159 L134.912935,14.6162574 C134.960198,14.5844458 134.973627,14.5206112 134.943069,14.4723125 C134.943069,14.4723125 132.771583,11.7144262 131.350182,10.3265526 L135.071326,10.3265526 C135.129798,10.3265526 135.177062,10.2792051 135.177062,10.2208662 L135.177062,8.52777028 C135.177062,8.46943139 135.129798,8.42208389 135.071326,8.42208389" id="Fill-38"></path>
                    <g id="Group-2" transform="translate(61.600000, 1.101796)">
                        <path d="M1.43706312,6.46839179 L1.34391029,6.46839179 C0.789222685,6.46839179 0.339424543,6.91798168 0.339424543,7.47241247 L0.339424543,29.5629811 C0.339424543,29.62132 0.386688241,29.6686675 0.445159885,29.6686675 L2.33581352,29.6686675 C2.39428517,29.6686675 2.44154886,29.62132 2.44154886,29.5629811 L2.44154886,7.47241247 C2.44154886,6.91798168 1.99196219,6.46839179 1.43706312,6.46839179" id="Fill-1"></path>
                        <path d="M9.42317943,15.347084 L9.42317943,10.8703144 C9.42317943,10.8119755 9.47044313,10.764628 9.52891477,10.764628 L17.2761432,10.764628 C17.4805296,10.764628 17.6462169,10.9302385 17.6462169,11.1345303 L17.6462169,15.347084 L9.42317943,15.347084 Z M17.6462169,17.2515527 L17.6462169,21.7939537 C17.6462169,21.8523982 17.5988475,21.89964 17.5404816,21.89964 L9.52891477,21.89964 C9.47044313,21.89964 9.42317943,21.8523982 9.42317943,21.7939537 L9.42317943,17.2515527 L17.6462169,17.2515527 Z M17.4822214,8.8273965 L7.52533579,8.8273965 C7.46686415,8.8273965 7.41960045,8.87463832 7.41960045,8.93308289 L7.41960045,23.6984224 C7.41960045,23.7567612 7.46686415,23.8041087 7.52533579,23.8041087 L19.5440606,23.8041087 C19.6024265,23.8041087 19.6497959,23.7567612 19.6497959,23.6984224 L19.6497959,10.9939674 C19.6497959,9.79728048 18.6793569,8.8273965 17.4822214,8.8273965 Z" id="Fill-3"></path>
                        <path d="M2.89835726,0.416503913 C2.57015476,0.118891047 2.08535822,0.0836974799 1.71898526,0.330686567 C1.42863601,0.526629128 1.266438,0.864085763 1.30281096,1.22426497 C1.32554406,1.4507509 1.43730631,1.65916445 1.59897565,1.81959639 C3.03983114,3.2511185 4.2908917,4.74415009 4.86683211,5.72026956 L4.952372,5.86537697 C4.98335245,5.91790311 5.05208042,5.93333332 5.10272765,5.8993023 L6.6816735,4.83387784 C6.72936014,4.80174917 6.74257706,4.73759754 6.7115966,4.68929886 L6.62795995,4.55888186 C5.92069625,3.45572735 4.45647325,1.82974228 2.89835726,0.416503913" id="Fill-5"></path>
                        <path d="M26.8294476,3.55541075 C26.8286017,2.36157732 25.8563653,1.39031942 24.6618731,1.39031942 L9.73500352,1.39031942 C9.20199167,1.39031942 8.73569881,1.79150495 8.70017174,2.32310747 C8.6611554,2.90607359 9.1245934,3.39297077 9.69968792,3.39297077 L24.1478936,3.39297077 C24.4668971,3.39297077 24.7264774,3.65243085 24.7266889,3.971181 L24.7433951,27.1368973 C24.7433951,27.4886215 24.725843,27.5345951 24.271181,27.5614395 C24.1106748,27.5707399 23.2259872,27.6055107 21.5364422,27.3696187 L21.3849234,27.3484814 C21.3285665,27.3406606 21.2761218,27.3788134 21.2661826,27.4347215 L20.9450644,29.2545354 C20.9349138,29.3127686 20.9743531,29.3681483 21.0330362,29.3772373 L21.1928023,29.402285 C21.6926133,29.4801758 23.0229753,29.6692488 24.15815,29.6692488 C24.650348,29.6692488 25.1058558,29.6337381 25.4408254,29.5381977 L25.4520333,29.5346043 C26.4938436,29.1874245 26.8453079,28.621791 26.8453079,27.2927847 L26.8294476,3.55541075 Z" id="Fill-7"></path>
                    </g>
                </g>
                <g id="logo" transform="translate(123.200000, 0.000000)">
                    <path d="M83.6867911,7.92431246 C83.6867911,7.4450247 83.3511871,7.25362665 82.9378677,7.49638828 L42.9578549,31.2067065 C42.547496,31.4492567 41.8705783,31.843784 41.4570474,32.0825296 L0.342600128,55.765158 C-0.0710365268,56.0058059 -0.0710365268,56.3925123 0.345560718,56.6271361 L41.4540868,79.8206479 C41.8705783,80.0573854 42.547496,80.051467 42.9619785,79.808811 L82.9349071,56.3903986 C83.3483323,56.1458403 83.6867911,55.5581183 83.6867911,55.0788306 L83.6867911,7.92431246 Z" id="Fill-40" fill="#35BDCE"></path>
                    <path d="M41.8942736,23.3993149 C42.311611,23.6340443 42.311611,24.0206451 41.8981858,24.259285 L0.782681192,47.9439214 C0.369150272,48.184675 0.030691445,47.9853505 0.030691445,47.5099731 L0.030691445,0.645564159 C0.030691445,0.168178748 0.369150272,-0.0310400919 0.785536046,0.20379506 L41.8942736,23.3993149 Z" id="Fill-42" fill="#F0EFEF"></path>
                    <path d="M41.2834088,32.1851194 L0.342578981,55.7651262 C-0.0709519385,56.0058798 -0.0709519385,56.3924806 0.345539571,56.6272101 L41.4540657,79.8207219 C41.4540657,79.8207219 41.5863406,79.9114008 41.8883207,79.9685771 C42.0264111,79.9943646 42.209016,79.9943646 42.209016,79.9943646 L42.209016,31.6484439 L41.2834088,32.1851194 Z" id="Fill-44" fill="#E185B7"></path>
                </g>
            </g>
        </g>
    </g>
</svg>