<?xml version="1.0" encoding="utf-8"?>
<!-- Generator: Adobe Illustrator 21.1.0, SVG Export Plug-In . SVG Version: 6.00 Build 0)  -->
<svg version="1.1" id="圖層_1" xmlns="http://www.w3.org/2000/svg" xmlns:xlink="http://www.w3.org/1999/xlink" x="0px" y="0px"
	 viewBox="0 0 30 30" style="enable-background:new 0 0 30 30;" xml:space="preserve">
<style type="text/css">
	.st0{fill:#868686;}
</style>
<g id="机器人总览">
	<g id="机器人总览_now" transform="translate(-1156.000000, -102.000000)">
		<g id="Group-17" transform="translate(840.000000, 70.000000)">
			<g id="del_off" transform="translate(308.000000, 26.000000)">
				<g id="del" transform="translate(8.000000, 6.000000)">
					<path class="st0" d="M23.1,29H6.9c-1.7,0-3.2-1.3-3.2-2.9L3.5,3.9h23l-0.2,22.1C26.3,27.7,24.8,29,23.1,29z M6.7,26
						c0,0,0.1,0,0.2,0h16.2c0.1,0,0.2,0,0.2-0.1l0.2-19.1h-17L6.7,26C6.7,26,6.7,26,6.7,26z"/>
					<path id="Path" class="st0" d="M15,1L15,1L15,1c1.9,0,3.5,1.3,3.5,2.9l0,0l0,0c0,1.6-1.6,2.9-3.5,2.9l0,0l0,0
						c-1.9,0-3.5-1.3-3.5-2.9l0,0l0,0C11.5,2.3,13.1,1,15,1z"/>
					<path id="Rectangle-29" class="st0" d="M11.5,9.8L11.5,9.8c1,0,1.8,0.7,1.8,1.5v10.3c0,0.8-0.8,1.5-1.8,1.5l0,0
						c-1,0-1.8-0.7-1.8-1.5V11.3C9.8,10.5,10.5,9.8,11.5,9.8z"/>
					<path id="Rectangle-29_1_" class="st0" d="M18.5,9.8L18.5,9.8c1,0,1.8,0.7,1.8,1.5v10.3c0,0.8-0.8,1.5-1.8,1.5l0,0
						c-1,0-1.8-0.7-1.8-1.5V11.3C16.8,10.5,17.5,9.8,18.5,9.8z"/>
					<path id="Rectangle-28" class="st0" d="M2.8,3.9h24.5c1,0,1.8,0.7,1.8,1.5l0,0c0,0.8-0.8,1.5-1.8,1.5H2.8C1.8,6.9,1,6.2,1,5.4
						l0,0C1,4.6,1.8,3.9,2.8,3.9z"/>
				</g>
			</g>
		</g>
	</g>
</g>
</svg>
