<?xml version="1.0" encoding="UTF-8"?>
<svg width="12px" height="12px" viewBox="0 0 12 12" version="1.1" xmlns="http://www.w3.org/2000/svg" xmlns:xlink="http://www.w3.org/1999/xlink">
    <!-- Generator: Sketch 46.2 (44496) - http://www.bohemiancoding.com/sketch -->
    <title>search</title>
    <desc>Created with Sketch.</desc>
    <defs></defs>
    <g id="Style" stroke="none" stroke-width="1" fill="none" fill-rule="evenodd">
        <g id="管理标准问题1" transform="translate(-454.000000, -317.000000)" fill="#CCCCCC">
            <g id="main" transform="translate(70.000000, 188.000000)">
                <g id="搜索-简易搜索样式" transform="translate(244.000000, 121.000000)">
                    <g id="search" transform="translate(140.000000, 8.000000)">
                        <path d="M11.649112,1.07887576 L9.00641677,3.71822703 C9.70159135,4.57137671 10.1181802,5.65907812 10.1181802,6.84472419 C10.1181802,9.58202014 7.89852258,11.7999516 5.1590962,11.7999516 C2.41966983,11.7999516 0.200012207,9.58202014 0.200012207,6.84472419 C0.200012207,4.10742825 2.41966983,1.88949683 5.1590962,1.88949683 C6.34050607,1.88949683 7.42518478,2.30189547 8.27641897,2.99137444 L10.9191142,0.350734423 C11.0197146,0.250212256 11.151269,0.199951172 11.2841131,0.199951172 C11.4156675,0.199951172 11.5485116,0.250212256 11.649112,0.350734423 C11.8503128,0.551778758 11.8503128,0.87783143 11.649112,1.07887576 L11.649112,1.07887576 Z M6.74440876,3.14305462 C6.24656393,2.93227876 5.71768462,2.82624428 5.17199497,2.82624428 C4.62630531,2.82624428 4.097426,2.93357186 3.59958117,3.14305462 C3.11854669,3.34607186 2.68665014,3.63831324 2.31423634,4.00943393 C1.94311566,4.38055462 1.65087428,4.81374428 1.44785703,5.29477876 C1.23708117,5.79262359 1.13104669,6.3215029 1.13104669,6.86719255 C1.13104669,7.41288221 1.23837428,7.94176152 1.44785703,8.43960634 C1.65087428,8.92064083 1.94311566,9.35253738 2.31423634,9.72495117 C2.68535703,10.0960719 3.11854669,10.3883132 3.59958117,10.5913305 C4.097426,10.8021063 4.62630531,10.9081408 5.17199497,10.9081408 C5.71768462,10.9081408 6.24656393,10.8008132 6.74440876,10.5913305 C7.22544324,10.3883132 7.65733979,10.0960719 8.02975359,9.72495117 C8.40087428,9.35383048 8.69311566,8.92193393 8.8961329,8.43960634 C9.10690876,7.94176152 9.21294324,7.41288221 9.21294324,6.86719255 C9.21294324,6.3215029 9.10561566,5.79262359 8.8961329,5.29477876 C8.69311566,4.81374428 8.40087428,4.38184772 8.02975359,4.00943393 C7.65733979,3.63831324 7.22544324,3.34736496 6.74440876,3.14305462 L6.74440876,3.14305462 Z" id="Shape" transform="translate(6.000012, 5.999951) scale(1, -1) translate(-6.000012, -5.999951) "></path>
                    </g>
                </g>
            </g>
        </g>
    </g>
</svg>